<?xml version="1.0" encoding="UTF-8" standalone="no"?>
<!-- Created with Inkscape (http://www.inkscape.org/) -->

<svg
   xmlns:dc="http://purl.org/dc/elements/1.1/"
   xmlns:cc="http://creativecommons.org/ns#"
   xmlns:rdf="http://www.w3.org/1999/02/22-rdf-syntax-ns#"
   xmlns:svg="http://www.w3.org/2000/svg"
   xmlns="http://www.w3.org/2000/svg"
   xmlns:sodipodi="http://sodipodi.sourceforge.net/DTD/sodipodi-0.dtd"
   xmlns:inkscape="http://www.inkscape.org/namespaces/inkscape"
   width="200"
   height="369.03"
   id="svg2"
   version="1.1"
   inkscape:version="0.92.2 5c3e80d, 2017-08-06"
   sodipodi:docname="lateral.svg">
  <defs
     id="defs4" />
  <sodipodi:namedview
     id="base"
     pagecolor="#ffffff"
     bordercolor="#666666"
     borderopacity="1.0"
     inkscape:pageopacity="0"
     inkscape:pageshadow="2"
     inkscape:zoom="1.979899"
     inkscape:cx="132.27644"
     inkscape:cy="234.64087"
     inkscape:document-units="px"
     inkscape:current-layer="layer1"
     showgrid="false"
     fit-margin-top="0"
     fit-margin-left="0"
     fit-margin-right="0"
     fit-margin-bottom="0"
     inkscape:window-width="1280"
     inkscape:window-height="700"
     inkscape:window-x="0"
     inkscape:window-y="1"
     inkscape:window-maximized="1" />
  <metadata
     id="metadata7">
    <rdf:RDF>
      <cc:Work
         rdf:about="">
        <dc:format>image/svg+xml</dc:format>
        <dc:type
           rdf:resource="http://purl.org/dc/dcmitype/StillImage" />
        <dc:title></dc:title>
      </cc:Work>
    </rdf:RDF>
  </metadata>
  <g
     inkscape:label="Ebene 1"
     inkscape:groupmode="layer"
     id="layer1"
     transform="translate(-54.28571,-335.71492)">
    <path
       style="fill:#e60000;stroke:none;stroke-width:1px;stroke-linecap:butt;stroke-linejoin:miter;stroke-opacity:1;fill-opacity:1;opacity:0.544"
       d="m 123.44091,398.23406 c -0.49166,0.64995 -0.98332,1.29991 -1.47498,1.94987 0.16836,-0.16836 0.26698,-0.50508 0.50508,-0.50508 0.16836,0 0.11904,0.38603 0,0.50508 -0.11905,0.11904 -0.3545,-0.0753 -0.50508,0 -0.21296,0.10648 -0.33672,0.67343 -0.50508,0.50507 -0.16835,-0.16836 0.26699,-0.50507 0.50508,-0.50507 0.16836,0 0.15058,0.42978 0,0.50507 -0.30117,0.15059 -0.70898,-0.15058 -1.01015,0 -0.15059,0.0753 0.16836,0.50508 0,0.50508 -0.16836,0 0.11905,-0.38603 0,-0.50508 -0.11905,-0.11904 -0.50508,-0.16836 -0.50508,0 0,0.2381 0.50508,0.26698 0.50508,0.50508 0,0.33672 -1.01016,-0.33672 -1.01016,0 0,0.23809 0.26699,0.50508 0.50508,0.50508 0.16836,0 -0.16836,-0.50508 0,-0.50508 0.16836,0 0.11905,0.38603 0,0.50508 -0.23809,0.23809 -1.01015,-0.33672 -1.01015,0 0,0.23809 0.26698,0.50507 0.50507,0.50507 0.16836,0 0.11905,-0.38603 0,-0.50507 -0.11904,-0.11905 -0.35449,-0.0753 -0.50507,0 -1.53284,0.76641 -0.10062,0.40445 0,0.50507 0.11905,0.11905 0.16836,0.50508 0,0.50508 -0.2381,0 -0.26698,-0.50508 -0.50508,-0.50508 -0.16836,0 0.11905,0.38603 0,0.50508 -0.11905,0.11904 -0.38603,-0.11905 -0.50507,0 -0.11905,0.11904 0.16835,0.50507 0,0.50507 -0.16836,0 0.16835,-0.50507 0,-0.50507 -0.2381,0 -0.50508,0.26698 -0.50508,0.50507 0,0.2381 0.26698,0.50508 0.50508,0.50508 0.16835,0 0.11904,-0.38603 0,-0.50508 -0.11905,-0.11904 -0.38603,-0.11904 -0.50508,0 -0.11905,0.11905 0.11905,0.38603 0,0.50508 -0.11905,0.11905 -0.50508,-0.16836 -0.50508,0 0,0.2381 0.67344,0.33672 0.50508,0.50508 -0.16836,0.16835 -0.26698,-0.50508 -0.50508,-0.50508 -0.16836,0 0.0753,0.35449 0,0.50508 -0.10648,0.21296 -0.33671,0.67343 -0.50507,0.50507 -0.16836,-0.16836 0.50507,-0.26698 0.50507,-0.50507 0,-0.16836 -0.38603,-0.11905 -0.50507,0 -0.11905,0.11904 0.11904,0.38602 0,0.50507 -0.11905,0.11905 -0.50508,-0.16836 -0.50508,0 0,0.2381 0.67344,0.33672 0.50508,0.50508 -0.16836,0.16836 -0.26698,-0.50508 -0.50508,-0.50508 -0.23809,0 -0.50508,0.26698 -0.50508,0.50508 0,0.16836 0.50508,-0.16836 0.50508,0 0,0.23809 -0.26698,0.50508 -0.50508,0.50508 -0.16835,0 0.16836,-0.50508 0,-0.50508 -0.67343,0 -0.67343,1.01015 0,1.01015 0.16836,0 0.15059,-0.42978 0,-0.50507 -0.30116,-0.15059 -0.67343,0 -1.01015,0 -0.16836,0 0.38603,-0.11905 0.50508,0 0.11905,0.11904 0.0753,0.35449 0,0.50507 -0.67344,1.34687 -0.33672,0 -1.01015,0 -0.16836,0 0.11904,0.38603 0,0.50508 -0.11905,0.11904 -0.50508,-0.16836 -0.50508,0 0,0.23809 0.26698,0.50507 0.50508,0.50507 0.16835,0 0.16835,-0.50507 0,-0.50507 -0.37647,0 -0.74396,0.23888 -1.01016,0.50507 -0.11904,0.11905 0.50508,-0.16835 0.50508,0 0,0.2381 -0.26698,0.50508 -0.50508,0.50508 -0.23809,0 -0.26698,-0.50508 -0.50507,-0.50508 -0.16836,0 0.11904,0.38603 0,0.50508 -0.11905,0.11905 -0.50508,-0.16836 -0.50508,0 0,0.2381 0.67344,0.33672 0.50508,0.50508 -0.16836,0.16836 -0.26698,-0.50508 -0.50508,-0.50508 -0.23809,0 -0.50508,0.26698 -0.50508,0.50508 0,0.16836 0.50508,-0.16836 0.50508,0 0,0.16836 -0.38603,-0.11905 -0.50508,0 -0.11904,0.11904 0.16836,0.50507 0,0.50507 -0.23809,0 -0.50507,-0.26698 -0.50507,-0.50507 0,-0.16836 0.38603,-0.11905 0.50507,0 0.11905,0.11904 0.11905,0.38603 0,0.50507 -0.23809,0.2381 -1.01015,-0.33671 -1.01015,0 0,1.05101 0.9464,0.44133 0.50508,0 -0.11905,-0.11904 -0.38603,-0.11904 -0.50508,0 -0.11905,0.11905 0.11905,0.38603 0,0.50508 -0.11905,0.11905 -0.38603,-0.11905 -0.50507,0 -0.11905,0.11905 0.11904,0.38603 0,0.50508 -0.11905,0.11904 -0.50508,0.16835 -0.50508,0 0,-0.16836 0.50508,-0.16836 0.50508,0 0,0.16835 -0.38603,-0.11905 -0.50508,0 -0.11905,0.11904 0.16836,0.50507 0,0.50507 -0.16836,0 0.16836,-0.50507 0,-0.50507 -0.2381,0 -0.50508,0.26698 -0.50508,0.50507 0,0.16836 0.50508,-0.16836 0.50508,0 0,0.2381 -0.26698,0.50508 -0.50508,0.50508 -0.16836,0 0.16836,-0.50508 0,-0.50508 -0.23809,0 -0.50507,0.26698 -0.50507,0.50508 0,0.16836 0.50507,-0.16836 0.50507,0 0,0.16836 -0.38603,-0.11905 -0.50507,0 -0.11905,0.11905 0.16836,0.50507 0,0.50507 -0.2381,0 -0.50508,-0.26698 -0.50508,-0.50507 0,-0.16836 0.38603,-0.11905 0.50508,0 0.11904,0.11905 0.11904,0.38603 0,0.50507 -0.2381,0.2381 -1.01016,-0.33671 -1.01016,0 0,1.05101 0.9464,0.44133 0.50508,0 -0.11905,-0.11904 -0.38603,-0.11904 -0.50508,0 -0.11904,0.11905 0.11905,0.38603 0,0.50508 -0.11904,0.11905 -0.50507,0.16836 -0.50507,0 0,-0.16836 0.67343,0 0.50507,0 -0.33671,0 -0.77205,-0.23809 -1.01015,0 -0.16836,0.16836 0.26698,0.50508 0.50508,0.50508 0.16836,0 0.11905,-0.38603 0,-0.50508 -0.11905,-0.11905 -0.33672,0 -0.50508,0 -0.16836,0 -0.38603,-0.11905 -0.50507,0 -0.11905,0.11905 0.11904,0.38603 0,0.50508 -0.2381,0.23809 -0.77206,-0.2381 -1.01016,0 -0.11904,0.11904 0.16836,0.50507 0,0.50507 -0.16836,0 0.11905,-0.38603 0,-0.50507 -0.30185,-0.30185 -1.01015,0.30783 -1.01015,0.50507 0,0.16836 0.50508,-0.16836 0.50508,0 0,0.33672 -1.01016,-0.33671 -1.01016,0 0,0.2381 0.26699,0.50508 0.50508,0.50508 0.16836,0 0.11905,-0.38603 0,-0.50508 -0.11905,-0.11904 -0.33672,0 -0.50508,0 -0.16835,0 -0.50507,-0.16836 -0.50507,0 0,0.2381 0.50507,0.26698 0.50507,0.50508 0,0.16836 -0.35449,-0.0753 -0.50507,0 -0.21296,0.10648 -0.26698,0.50508 -0.50508,0.50508 -0.16836,0 -0.16836,-0.50508 0,-0.50508 0.16836,0 0.11905,0.38603 0,0.50508 -0.11905,0.11904 -0.38603,-0.11905 -0.50507,0 -0.11905,0.11904 0.16835,0.50507 0,0.50507 -0.15093,0 0.33248,-1.67512 -0.50508,0 -0.0753,0.15059 0.16836,0.50508 0,0.50508 -0.2381,0 -0.26698,-0.50508 -0.50508,-0.50508 -0.16836,0 0.0753,0.35449 0,0.50508 -0.10648,0.21296 -0.26698,0.50507 -0.50507,0.50507 -0.16836,0 0.11904,-0.38602 0,-0.50507 -0.11905,-0.11905 -0.38603,-0.11905 -0.50508,0 -0.23809,0.23809 0.33672,1.01015 0,1.01015 -0.23809,0 -0.26698,-0.50508 -0.505075,-0.50508 -0.168359,0 0.119047,0.38603 0,0.50508 -0.119048,0.11905 -0.386029,-0.11905 -0.505077,0 -0.119047,0.11905 0.168359,0.50508 0,0.50508 -0.238095,0 -0.266981,-0.50508 -0.505076,-0.50508 -0.168359,0 0.168359,0.50508 0,0.50508 -0.168359,0 0,-0.33672 0,-0.50508 0,-0.33672 0,-0.67343 0,-1.01015 0,-0.16836 0.168359,0.50507 0,0.50507 -0.168359,0 0,-0.33671 0,-0.50507 0,-0.16836 -0.168359,-0.50508 0,-0.50508 0.168359,0 0.168359,0.50508 0,0.50508 -0.168359,0 0,-0.33672 0,-0.50508 0,-0.16836 -0.168359,-0.50507 0,-0.50507 0.168359,0 0,0.67343 0,0.50507 0,-0.33672 0,-0.67343 0,-1.01015 0,-0.16836 -0.119048,0.38603 0,0.50508 0.119048,0.11904 0.386029,0.11904 0.505076,0 0.119048,-0.11905 -0.119047,-0.38603 0,-0.50508 0.119048,-0.11905 0.386029,0.11905 0.505077,0 0.119047,-0.11905 -0.168359,-0.50508 0,-0.50508 0.168358,0 0.168358,0.50508 0,0.50508 -0.168359,0 -0.119048,-0.38603 0,-0.50508 0.119047,-0.11904 0.386025,0.11905 0.505075,0 0.0743,-0.0743 -0.0594,-1.51523 0,-1.51523 0.16836,0 -0.11905,0.38603 0,0.50508 0.11905,0.11905 0.38603,0.11905 0.50508,0 0.0803,-0.0802 0,-2.7044 0,0 0,0.16836 0,-0.33672 0,-0.50508 0,-0.16835 0,-0.33671 0,-0.50507 0,-0.16836 -0.16836,-0.50508 0,-0.50508 0.16836,0 -0.11905,0.38603 0,0.50508 0.11904,0.11905 0.38603,0.11905 0.50507,0 0.2381,-0.2381 -0.33671,-1.01015 0,-1.01015 0.2381,0 0.26698,0.50507 0.50508,0.50507 0.33672,0 -0.33672,-1.01015 0,-1.01015 0.23809,0 0.26698,0.50508 0.50508,0.50508 0.33671,0 -0.33672,-1.01016 0,-1.01016 0.23809,0 0.26698,0.50508 0.50507,0.50508 0.33672,0 -0.33672,-1.01015 0,-1.01015 0.2381,0 0.26698,0.50507 0.50508,0.50507 0.33672,0 -0.33672,-1.01015 0,-1.01015 0.23809,0 0.26698,0.50508 0.50507,0.50508 0.33672,0 -0.23809,-0.77206 0,-1.01016 0.11905,-0.11904 0.38603,0.11905 0.50508,0 1.18449,-1.18449 -1.79417,0 0.50508,0 0.33671,0 -0.33672,-1.01015 0,-1.01015 0.23809,0 0.26698,0.50508 0.50507,0.50508 0.33672,0 -0.33671,-1.01015 0,-1.01015 0.2381,0 0.26698,0.50507 0.50508,0.50507 0.33672,0 -0.33672,-1.01015 0,-1.01015 0.23809,0 0.26698,0.50508 0.50508,0.50508 0.33671,0 -0.33672,-1.01016 0,-1.01016 0.23809,0 0.26698,0.50508 0.50507,0.50508 0.33672,0 -0.33672,-1.01015 0,-1.01015 0.2381,0 0.26698,0.50507 0.50508,0.50507 0.33672,0 -0.33672,-1.01015 0,-1.01015 0.23809,0 0.26698,0.50508 0.50507,0.50508 0.33672,0 -0.33671,-1.01016 0,-1.01016 0.2381,0 0.26699,0.50508 0.50508,0.50508 0.33672,0 -0.33672,-1.01015 0,-1.01015 0.2381,0 0.26698,0.50507 0.50508,0.50507 0.16836,0 -0.11905,-0.38602 0,-0.50507 0.11904,-0.11905 0.38603,0.11904 0.50507,0 0.11905,-0.11905 -0.16836,-0.50508 0,-0.50508 0.2381,0 0.26698,0.50508 0.50508,0.50508 0.16836,0 -0.11905,-0.38603 0,-0.50508 0.23809,-0.23809 0.70898,0.15059 1.01015,0 0.21296,-0.10648 0.26698,-0.50507 0.50508,-0.50507 0.16836,0 0.16836,0.50507 0,0.50507 -0.16836,0 -0.11905,-0.38603 0,-0.50507 0.23809,-0.2381 0.77206,0.23809 1.01015,0 0.11905,-0.11905 -0.16836,-0.50508 0,-0.50508 0.2381,0 0.50508,0.26698 0.50508,0.50508 0,0.16835 -0.50508,0.16835 -0.50508,0 0,-0.892 1.51523,-0.31344 1.51523,-0.50508 0,-1.051 -0.9464,-0.44132 -0.50508,0 0.11905,0.11905 0.38603,0.11905 0.50508,0 0.11905,-0.11905 -0.11905,-0.38603 0,-0.50508 0.11905,-0.11904 0.50508,-0.16836 0.50508,0 0,0.16836 -0.67344,0 -0.50508,0 0.33672,0 0.77206,0.2381 1.01015,0 0.16836,-0.16836 -0.67343,-0.33671 -0.50507,-0.50507 0.16835,-0.16836 0.26698,0.50507 0.50507,0.50507 0.16836,0 -0.11905,-0.38603 0,-0.50507 0.11905,-0.11905 0.50508,-0.16836 0.50508,0 0,0.16835 -0.67344,0 -0.50508,0 0.33672,0 0.77206,0.23809 1.01015,0 0.16836,-0.16836 -0.67343,-0.33672 -0.50507,-0.50508 0.16836,-0.16836 0.26698,0.50508 0.50507,0.50508 0.2381,0 0.50508,-0.26699 0.50508,-0.50508 0,-0.16836 -0.50508,0.16836 -0.50508,0 0,-0.33672 0.77206,0.23809 1.01016,0 0.11904,-0.11905 -0.16836,-0.50508 0,-0.50508 0.16836,0 -0.11905,0.38603 0,0.50508 0.11904,0.11905 0.50507,-0.16836 0.50507,0 0,0.16836 -0.50507,0.16836 -0.50507,0 0,-1.051 0.7083,-0.20323 1.01015,-0.50508 0.11905,-0.11904 -0.16836,-0.50507 0,-0.50507 1.67513,0 0,0.9464 0,0.50507 0,-0.16835 0.38603,0.11905 0.50508,0 0.11904,-0.11904 -0.11905,-0.38602 0,-0.50507 0.11904,-0.11905 0.50507,-0.16836 0.50507,0 0,0.16836 -0.67343,0 -0.50507,0 0.33671,0 0.77205,0.23809 1.01015,0 0.16836,-0.16836 -0.67344,-0.33672 -0.50508,-0.50508 0.16836,-0.16836 0.29212,0.3986 0.50508,0.50508 0.15058,0.0753 0.50508,0.16836 0.50508,0 0,-0.2381 -0.50508,-0.26698 -0.50508,-0.50508 0,-0.16836 0.33672,0 0.50508,0 0.16835,0 0.33671,0 0.50507,0 0.16836,0 0.50508,0.16836 0.50508,0 0,-0.23809 -0.67344,-0.33672 -0.50508,-0.50508 0.2381,-0.23809 0.67344,0 1.01015,0 0.16836,0 -0.66674,-0.047 -0.50507,0 0.81651,0.23733 1.65675,0.38368 2.48513,0.57552 z"
       id="path834"
       inkscape:connector-curvature="0" />
    <path
       style="fill:#e60000;stroke:none;stroke-width:1px;stroke-linecap:butt;stroke-linejoin:miter;stroke-opacity:1;fill-opacity:1;opacity:0.544"
       d="m 186.06249,400.65941 c 0.52112,-0.49521 1.04224,-0.99042 1.56336,-1.48564 0,-0.16835 -0.16836,-0.50507 0,-0.50507 0.16835,0 -0.11905,0.38603 0,0.50507 1.18449,1.1845 0,-1.79417 0,0.50508 0,0.33672 1.01015,-0.33672 1.01015,0 0,0.23809 -0.50508,0.26698 -0.50508,0.50508 0,0.33671 1.01015,-0.33672 1.01015,0 0,0.16835 -0.38602,-0.11905 -0.50507,0 -0.11905,0.11904 -0.11905,0.38602 0,0.50507 0.23809,0.2381 1.01015,-0.33671 1.01015,0 0,0.16836 -0.50508,0.16836 -0.50508,0 0,-0.16836 0.38603,-0.11904 0.50508,0 0.11905,0.11905 -0.11905,0.38603 0,0.50508 0.11905,0.11905 0.38603,-0.11905 0.50508,0 0.11905,0.11905 -0.11905,0.38603 0,0.50508 0.11905,0.11904 0.38603,-0.11905 0.50507,0 0.11905,0.11904 -0.11904,0.38602 0,0.50507 0.11905,0.11905 0.50508,-0.16836 0.50508,0 0,0.16836 -0.50508,0.16836 -0.50508,0 0,-0.16836 0.38603,-0.11905 0.50508,0 0.11905,0.11905 -0.11905,0.38603 0,0.50508 0.11905,0.11904 0.38603,-0.11905 0.50508,0 0.11904,0.11904 -0.11905,0.38603 0,0.50507 0.11904,0.11905 0.38602,-0.11904 0.50507,0 0.11905,0.11905 -0.11905,0.38603 0,0.50508 0.11905,0.11905 0.50508,-0.16836 0.50508,0 0,0.16836 -0.38603,-0.11905 -0.50508,0 -0.11905,0.11905 -0.11905,0.38603 0,0.50508 0.2381,0.23809 1.01016,-0.33672 1.01016,0 0,0.23809 -0.50508,0.26698 -0.50508,0.50507 0,0.16836 0.35449,-0.0753 0.50508,0 0.21295,0.10648 0.50507,0.26698 0.50507,0.50508 0,0.16836 -0.50507,0.16836 -0.50507,0 0,-0.16836 0.38602,-0.11905 0.50507,0 0.11905,0.11905 -0.16836,0.50508 0,0.50508 0.2381,0 0.33672,-0.67344 0.50508,-0.50508 0.16836,0.16836 -0.50508,0.26698 -0.50508,0.50508 0,0.23809 0.26698,0.50507 0.50508,0.50507 0.23809,0 0.33672,-0.67343 0.50507,-0.50507 0.16836,0.16835 -0.50507,0.26698 -0.50507,0.50507 0,0.2381 0.26698,0.50508 0.50507,0.50508 0.2381,0 0.33672,-0.67344 0.50508,-0.50508 0.16836,0.16836 -0.50508,0.26698 -0.50508,0.50508 0,0.23809 0.26698,0.50507 0.50508,0.50507 0.16836,0 -0.11905,-0.38602 0,-0.50507 0.11905,-0.11905 0.50508,-0.16836 0.50508,0 0,0.23809 -0.50508,0.26698 -0.50508,0.50507 0,0.16836 0.38603,-0.11904 0.50508,0 0.11904,0.11905 -0.11905,0.38603 0,0.50508 0.11904,0.11905 0.50507,-0.16836 0.50507,0 0,0.16836 -0.50507,0.16836 -0.50507,0 0,-0.16836 0.33671,0 0.50507,0 0.16836,0 0.50508,-0.16836 0.50508,0 0,0.2381 -0.26698,0.50508 -0.50508,0.50508 -0.16836,0 -0.11904,-0.38603 0,-0.50508 0.11905,-0.11905 0.38603,-0.11905 0.50508,0 0.11905,0.11905 -0.11905,0.38603 0,0.50508 0.11905,0.11904 0.50508,-0.16836 0.50508,0 0,0.16836 -0.50508,-0.16836 -0.50508,0 0,0.23809 0.26698,0.50507 0.50508,0.50507 0.16835,0 -0.16836,-0.50507 0,-0.50507 1.67512,0 0,0.9464 0,0.50507 0,-0.16836 0.35449,-0.0753 0.50507,0 0.21296,0.10648 0.50508,0.26698 0.50508,0.50508 0,0.16836 -0.50508,0.16836 -0.50508,0 0,-0.16836 0.33672,0 0.50508,0 0.16836,0 0.50507,-0.16836 0.50507,0 0,0.16836 -0.38602,-0.11905 -0.50507,0 -0.11905,0.11905 0.16836,0.50508 0,0.50508 -0.16836,0 -0.11905,-0.38603 0,-0.50508 0.11905,-0.11905 0.38603,-0.11905 0.50507,0 0.11905,0.11905 -0.11904,0.38603 0,0.50508 0.11905,0.11904 0.50508,-0.16836 0.50508,0 0,0.16835 -0.38603,-0.11905 -0.50508,0 -0.11904,0.11904 -0.16835,0.50507 0,0.50507 0.2381,0 0.29212,-0.39859 0.50508,-0.50507 0.15058,-0.0753 0.50508,-0.16836 0.50508,0 0,0.23809 -0.50508,0.26698 -0.50508,0.50507 0,0.16836 0.38603,-0.11905 0.50508,0 0.11904,0.11905 -0.16836,0.50508 0,0.50508 0.23809,0 0.50507,-0.26698 0.50507,-0.50508 0,-0.16836 -0.38603,-0.11905 -0.50507,0 -0.11905,0.11905 -0.11905,0.38603 0,0.50508 0.23809,0.23809 1.01015,-0.33672 1.01015,0 0,1.67513 -0.9464,0 -0.50508,0 0.2381,0 0.3986,0.29212 0.50508,0.50507 0.0753,0.15059 -0.16836,0.50508 0,0.50508 0.23809,0 0.50508,-0.26698 0.50508,-0.50508 0,-0.16835 -0.38603,-0.11904 -0.50508,0 -0.30185,0.30185 0.30783,1.01016 0.50508,1.01016 0.16835,0 -0.16836,-0.50508 0,-0.50508 0.23809,0 0.50507,0.26698 0.50507,0.50508 0,0.16836 -0.38603,-0.11905 -0.50507,0 -0.11905,0.11904 -0.16836,0.50507 0,0.50507 0.23809,0 0.26698,-0.50507 0.50507,-0.50507 0.16836,0 -0.11905,0.38603 0,0.50507 0.11905,0.11905 0.50508,-0.16836 0.50508,0 0,0.16836 -0.38603,-0.11904 -0.50508,0 -0.11905,0.11905 -0.11905,0.38603 0,0.50508 0.2381,0.2381 1.01015,-0.33672 1.01015,0 0,1.67513 -0.94639,0 -0.50507,0 0.16836,0 -0.0753,0.35449 0,0.50508 0.10648,0.21295 0.26698,0.50507 0.50507,0.50507 0.16836,0 -0.11904,-0.38603 0,-0.50507 0.11905,-0.11905 0.50508,-0.16836 0.50508,0 0,0.16835 -0.38603,-0.11905 -0.50508,0 -0.11904,0.11904 0,0.33671 0,0.50507 0,0.16836 -0.16835,0.50508 0,0.50508 0.2381,0 0.26699,-0.50508 0.50508,-0.50508 0.2381,0 0.50508,0.26698 0.50508,0.50508 0,0.16836 -0.38603,-0.11905 -0.50508,0 -0.11905,0.11905 -0.16836,0.50507 0,0.50507 0.2381,0 0.26698,-0.50507 0.50508,-0.50507 0.33671,0 -0.33672,1.01015 0,1.01015 1.67512,0 0,-0.9464 0,-0.50508 0,0.2381 0.39859,0.29212 0.50507,0.50508 0.0753,0.15059 -0.16836,0.50508 0,0.50508 0.2381,0 0.50508,-0.26698 0.50508,-0.50508 0,-0.16836 -0.38603,-0.11905 -0.50508,0 -0.30185,0.30185 0.30783,1.01015 0.50508,1.01015 0.23809,0 0.50508,-0.26698 0.50508,-0.50507 0,-0.16836 -0.38603,-0.11905 -0.50508,0 -0.11905,0.11905 0,0.33671 0,0.50507 0,0.16836 -0.16836,0.50508 0,0.50508 0.37646,0 0.74395,-0.23888 1.01015,-0.50508 0.11905,-0.11904 -0.38603,-0.11904 -0.50507,0 -0.11905,0.11905 -0.11905,0.38603 0,0.50508 0.11904,0.11905 0.38602,-0.11905 0.50507,0 0.11905,0.11905 -0.16836,0.50508 0,0.50508 0.2381,0 0.50508,-0.26698 0.50508,-0.50508 0,-0.16836 -0.50508,0.16836 -0.50508,0 0,-0.37646 1.01015,0.12861 1.01015,0.50508 0,0.16836 -0.50507,0.16836 -0.50507,0 0,-0.16836 0.33672,0 0.50507,0 0.16836,0 0.50508,-0.16836 0.50508,0 0,0.23809 -0.26698,0.50507 -0.50508,0.50507 -0.16835,0 -0.11904,-0.38603 0,-0.50507 0.11905,-0.11905 0.33672,0 0.50508,0 0.16836,0 0.33672,0 0.50508,0 0.16836,0 0.50507,-0.16836 0.50507,0 0,0.23809 -0.50507,0.26698 -0.50507,0.50507 0,0.33672 1.01015,-0.33671 1.01015,0 0,0.16836 -0.67344,0 -0.50508,0 3.31106,0 -1.79582,0 1.51523,0 0.16836,0 -0.38603,0.11905 -0.50507,0 -0.0163,-0.0162 0,-1.39273 0,-1.51523 0,-0.16836 -0.16836,-0.50507 0,-0.50507 0.16835,0 -0.11905,0.38603 0,0.50507 0.11904,0.11905 0.50507,-0.16836 0.50507,0 0,0.16836 -0.62412,0.11905 -0.50507,0 0.26619,-0.26619 0.84179,-0.16836 1.01015,-0.50507 0.10648,-0.21296 -0.26698,-0.50508 -0.50508,-0.50508 -0.16836,0 0.16836,0.50508 0,0.50508 -0.16836,0 0,-0.33672 0,-0.50508 0,-1.68359 0,1.17851 0,-0.50508 0,-0.16835 0.16836,-0.50507 0,-0.50507 -0.23809,0 -0.26698,0.50507 -0.50507,0.50507 -0.2381,0 -0.50508,-0.26698 -0.50508,-0.50507 0,-0.16836 0.50508,0.16836 0.50508,0 0,-0.2381 -0.26699,-0.50508 -0.50508,-0.50508 -0.16836,0 0.16836,0.50508 0,0.50508 -0.67344,0 -0.67344,-1.01015 0,-1.01015 0.16836,0 0.11905,0.38602 0,0.50507 -0.11905,0.11905 -0.38603,0.11905 -0.50508,0 -0.23809,-0.23809 0.33672,-1.01015 0,-1.01015 -0.23809,0 -0.50507,0.26698 -0.50507,0.50508 0,0.16835 0.50507,-0.16836 0.50507,0 0,0.16835 -0.42978,0.15058 -0.50507,0 -0.15059,-0.30117 0,-0.67344 0,-1.01016 0,-0.16836 0.11904,0.38603 0,0.50508 -0.11905,0.11905 -0.50508,0.16836 -0.50508,0 0,-0.2381 0.50508,-0.26698 0.50508,-0.50508 0,-0.23809 -0.26698,-0.50507 -0.50508,-0.50507 -0.16836,0 0.16836,0.50507 0,0.50507 -0.16836,0 0.11905,-0.38603 0,-0.50507 -0.11905,-0.11905 -0.50508,0.16836 -0.50508,0 0,-0.2381 0.26699,-0.50508 0.50508,-0.50508 0.16836,0 0.11905,0.38603 0,0.50508 -0.11905,0.11904 -0.38603,0.11904 -0.50508,0 -0.23809,-0.2381 0.33672,-1.01016 0,-1.01016 -1.051,0 -0.44132,0.9464 0,0.50508 0.11905,-0.11905 0.11905,-0.38603 0,-0.50508 -0.11904,-0.11904 -0.38602,0.11905 -0.50507,0 -0.11905,-0.11904 0.16836,-0.50507 0,-0.50507 -0.2381,0 -0.33672,0.67343 -0.50508,0.50507 -0.16836,-0.16835 0.50508,-0.26698 0.50508,-0.50507 0,-0.2381 -0.26698,-0.50508 -0.50508,-0.50508 -0.16836,0 0.16836,0.50508 0,0.50508 -0.16836,0 0.0753,-0.35449 0,-0.50508 -0.10648,-0.21296 -0.67343,-0.33672 -0.50507,-0.50507 0.16835,-0.16836 0.50507,0.26698 0.50507,0.50507 0,0.16836 -0.38603,0.11905 -0.50507,0 -0.2381,-0.23809 0.33671,-1.01015 0,-1.01015 -0.2381,0 -0.50508,0.26698 -0.50508,0.50508 0,0.16835 0.50508,0.16835 0.50508,0 0,-0.2381 -0.3986,-0.29212 -0.50508,-0.50508 -0.0753,-0.15059 0.16836,-0.50508 0,-0.50508 -0.2381,0 -0.33672,0.67344 -0.50508,0.50508 -0.16836,-0.16836 0.50508,-0.26698 0.50508,-0.50508 0,-0.23809 -0.26698,-0.50507 -0.50508,-0.50507 -0.16836,0 0.16836,0.50507 0,0.50507 -0.33671,0 0.33672,-1.01015 0,-1.01015 -0.23809,0 -0.33671,0.67344 -0.50507,0.50508 -0.16836,-0.16836 0.39859,-0.29212 0.50507,-0.50508 0.0753,-0.15058 0.16836,-0.50508 0,-0.50508 -0.23809,0 -0.26698,0.50508 -0.50507,0.50508 -0.33672,0 0.33671,-1.01015 0,-1.01015 -0.2381,0 -0.50508,0.26698 -0.50508,0.50507 0,0.16836 0.38603,0.11905 0.50508,0 0.11904,-0.11904 0.0753,-0.35449 0,-0.50507 -0.83757,-1.67513 -0.35415,0 -0.50508,0 -0.16836,0 0.11905,-0.38603 0,-0.50508 -0.11905,-0.11905 -0.50508,0.16836 -0.50508,0 0,-1.051 0.9464,-0.44132 0.50508,0 -0.30185,0.30185 -1.01015,-0.30783 -1.01015,-0.50507 0,-0.16836 0.50507,0.16835 0.50507,0 0,-0.2381 -0.26698,-0.50508 -0.50507,-0.50508 -0.16836,0 0.11905,0.38603 0,0.50508 -0.11905,0.11904 -0.50508,0.16835 -0.50508,0 0,-0.2381 0.50508,-0.26699 0.50508,-0.50508 0,-0.16836 -0.38603,0.11905 -0.50508,0 -0.11905,-0.11905 0.16836,-0.50508 0,-0.50508 -0.23809,0 -0.50507,0.26698 -0.50507,0.50508 0,0.16836 0.38602,0.11905 0.50507,0 0.11905,-0.11905 0.11905,-0.38603 0,-0.50508 -0.11905,-0.11905 -0.38603,0.11905 -0.50507,0 -0.11905,-0.11905 0.16835,-0.50507 0,-0.50507 -0.2381,0 -0.50508,0.26698 -0.50508,0.50507 0,0.16836 0.50508,0.16836 0.50508,0 0,-0.23809 -0.29212,-0.39859 -0.50508,-0.50507 -0.15059,-0.0753 -0.50508,0.16835 -0.50508,0 0,-0.2381 0.26698,-0.50508 0.50508,-0.50508 0.16836,0 0.11905,0.38603 0,0.50508 -0.11905,0.11904 -0.33672,0 -0.50508,0 -0.16836,0 -0.50507,0.16835 -0.50507,0 0,-0.2381 0.50507,-0.26698 0.50507,-0.50508 0,-0.16836 -0.35449,0.0753 -0.50507,0 -0.21296,-0.10648 -0.26698,-0.50508 -0.50508,-0.50508 -0.16836,0 0.16836,0.50508 0,0.50508 -0.23809,0 -0.50508,-0.26698 -0.50508,-0.50508 0,-0.16835 0.50508,0.16836 0.50508,0 0,-0.23809 -0.26698,-0.50507 -0.50508,-0.50507 -0.16835,0 0.11905,0.38603 0,0.50507 -0.11904,0.11905 -0.50507,0.16836 -0.50507,0 0,-0.23809 0.50507,-0.26698 0.50507,-0.50507 0,-0.16836 -0.35449,0.0753 -0.50507,0 -0.21296,-0.10648 -0.26698,-0.50508 -0.50508,-0.50508 -0.16836,0 0.11905,0.38603 0,0.50508 -0.11905,0.11904 -0.50507,0.16836 -0.50507,0 0,-0.2381 0.50507,-0.26698 0.50507,-0.50508 0,-0.16836 -0.35449,0.0753 -0.50507,0 -0.21296,-0.10648 -0.26699,-0.50507 -0.50508,-0.50507 -0.16836,0 0.11905,0.38602 0,0.50507 -0.11905,0.11905 -0.50508,0.16836 -0.50508,0 0,-0.23809 0.50508,-0.26698 0.50508,-0.50507 0,-0.16836 -0.35449,0.0753 -0.50508,0 -0.21296,-0.10648 -0.26698,-0.50508 -0.50507,-0.50508 -0.16836,0 0.16836,0.50508 0,0.50508 -0.2381,0 -0.29212,-0.3986 -0.50508,-0.50508 -0.15058,-0.0753 -0.38603,0.11905 -0.50508,0 -0.11904,-0.11905 -0.16835,-0.50508 0,-0.50508 0.16836,0 0.11905,0.38603 0,0.50508 -0.11904,0.11905 -0.38602,0.11905 -0.50507,0 -0.11905,-0.11905 0.11905,-0.38603 0,-0.50508 -0.11905,-0.11904 -0.38603,0.11905 -0.50508,0 -0.11905,-0.11904 -0.16836,-0.50507 0,-0.50507 0.16836,0 0.11905,0.38602 0,0.50507 -0.11905,0.11905 -0.38603,0.11905 -0.50507,0 -0.11905,-0.11904 0.11904,-0.38603 0,-0.50507 -0.11905,-0.11905 -0.38603,0.11904 -0.50508,0 -0.11905,-0.11905 -0.16836,-0.50508 0,-0.50508 0.16836,0 0.11905,0.38603 0,0.50508 -0.11905,0.11904 -0.38603,0.11904 -0.50508,0 -0.11905,-0.11905 0.11905,-0.38603 0,-0.50508 -0.11905,-0.11905 -0.35449,0.0753 -0.50507,0 -0.21296,-0.10648 -0.26698,-0.50508 -0.50508,-0.50508 -0.16836,0 0.16836,0.50508 0,0.50508 -0.16836,0 0.11905,-0.38603 0,-0.50508 -0.2381,-0.23809 -0.77206,0.2381 -1.01015,0 -0.11905,-0.11904 -0.16836,-0.50507 0,-0.50507 0.16836,0 0.16836,0.50507 0,0.50507 -0.16836,0 0.11905,-0.38602 0,-0.50507 -0.2381,-0.2381 -0.70899,0.15058 -1.01016,0 -0.21295,-0.10648 -0.26698,-0.50508 -0.50507,-0.50508 -0.16836,0 0.16836,0.50508 0,0.50508 -0.2381,0 -0.29212,-0.3986 -0.50508,-0.50508 -0.15058,-0.0753 -0.33672,0 -0.50507,0 -0.16836,0 -0.41571,-0.14268 -0.50508,0 -0.47969,0.7658 -0.70552,1.66386 -1.05828,2.49579"
       id="path838"
       inkscape:connector-curvature="0" />
  </g>
</svg>
