<?xml version="1.0" encoding="UTF-8" standalone="no"?>
<!-- Created with Inkscape (http://www.inkscape.org/) -->

<svg
   xmlns:dc="http://purl.org/dc/elements/1.1/"
   xmlns:cc="http://creativecommons.org/ns#"
   xmlns:rdf="http://www.w3.org/1999/02/22-rdf-syntax-ns#"
   xmlns:svg="http://www.w3.org/2000/svg"
   xmlns="http://www.w3.org/2000/svg"
   xmlns:sodipodi="http://sodipodi.sourceforge.net/DTD/sodipodi-0.dtd"
   xmlns:inkscape="http://www.inkscape.org/namespaces/inkscape"
   width="200"
   height="369.03"
   id="svg2"
   version="1.1"
   inkscape:version="0.92.2 5c3e80d, 2017-08-06"
   sodipodi:docname="muscle-16.svg">
  <defs
     id="defs4" />
  <sodipodi:namedview
     id="base"
     pagecolor="#ffffff"
     bordercolor="#666666"
     borderopacity="1.0"
     inkscape:pageopacity="0"
     inkscape:pageshadow="2"
     inkscape:zoom="2.8"
     inkscape:cx="90.842727"
     inkscape:cy="240.97873"
     inkscape:document-units="px"
     inkscape:current-layer="layer1"
     showgrid="false"
     fit-margin-top="0"
     fit-margin-left="0"
     fit-margin-right="0"
     fit-margin-bottom="0"
     inkscape:window-width="1280"
     inkscape:window-height="700"
     inkscape:window-x="0"
     inkscape:window-y="1"
     inkscape:window-maximized="1" />
  <metadata
     id="metadata7">
    <rdf:RDF>
      <cc:Work
         rdf:about="">
        <dc:format>image/svg+xml</dc:format>
        <dc:type
           rdf:resource="http://purl.org/dc/dcmitype/StillImage" />
        <dc:title></dc:title>
      </cc:Work>
    </rdf:RDF>
  </metadata>
  <g
     inkscape:label="Ebene 1"
     inkscape:groupmode="layer"
     id="layer1"
     transform="translate(-54.28571,-335.71492)">
    <path
       style="fill:#e30000;stroke:none;stroke-width:1px;stroke-linecap:butt;stroke-linejoin:miter;stroke-opacity:1;opacity:0.544;fill-opacity:1"
       d="m 154.15785,506.99468 c 0.87595,-0.0356 1.75513,-0.19001 2.62786,-0.1069 0.11851,0.0113 0,0.23809 0,0.35714 0,0.11905 0,0.23809 0,0.35714 0,0.11905 0.0842,0.27296 0,0.35714 -0.0842,0.0842 -0.35714,-0.11904 -0.35714,0 0,1.62582 0.83756,-0.48042 0,0.35715 -0.0115,0.0115 0,0.98481 0,1.07143 0,0.11904 0,0.23809 0,0.35714 0,0.11905 0.0842,0.27296 0,0.35714 -0.0842,0.0842 -0.35715,-0.11905 -0.35715,0 0,0.16836 0.18879,0.35714 0.35715,0.35714 0.11904,0 -0.11905,-0.35714 0,-0.35714 0.11904,0 0,0.2381 0,0.35714 0,0.21344 0.0842,0.71429 -0.35715,0.71429 -0.11904,0 0,-0.47619 0,-0.35714 0,2.34127 0,-1.26984 0,1.07143 0,0.47761 0,0.23667 0,0.71428 0,0.11905 0.11905,0.35714 0,0.35714 -0.11904,0 0.0842,-0.44132 0,-0.35714 -0.18823,0.18823 -0.35714,0.44809 -0.35714,0.71429 0,0.16836 0.18879,-0.35715 0.35714,-0.35715 0.11905,0 0,0.2381 0,0.35715 0,0.11904 0,0.23809 0,0.35714 0,0.83756 0.0842,0 -0.35714,0 -0.11905,0 0,0.2381 0,0.35714 0,0.11905 0,0.2381 0,0.35715 0,0.23809 0,0.47619 0,0.71428 0,0.11905 0.11905,0.35714 0,0.35714 -0.11905,0 0,-0.47619 0,-0.35714 0,0.2381 0,0.47619 0,0.71429 0,0.11904 -0.11905,-0.35715 0,-0.35715 0.11905,0 0.0842,0.27297 0,0.35715 -0.0842,0.0842 -0.35714,-0.11905 -0.35714,0 0,0.16836 0.18878,0.35714 0.35714,0.35714 0.11905,0 -0.11905,-0.35714 0,-0.35714 0.11905,0 0.0842,0.27296 0,0.35714 -0.0842,0.0842 -0.27296,-0.0842 -0.35714,0 -0.0842,0.0842 0.0842,0.27296 0,0.35714 -0.0842,0.0842 -0.35714,-0.11904 -0.35714,0 0,0.16836 0.18878,0.35715 0.35714,0.35715 0.11905,0 -0.11905,-0.35715 0,-0.35715 0.11905,0 0.0842,0.27297 0,0.35715 -0.0842,0.0842 -0.27296,-0.0842 -0.35714,0 -0.0842,0.0842 0.0842,0.27296 0,0.35714 -0.0842,0.0842 -0.35715,-0.11905 -0.35715,0 0,0.16836 0.18879,0.35714 0.35715,0.35714 0.11904,0 -0.11905,-0.35714 0,-0.35714 0.11904,0 0.0842,0.27296 0,0.35714 -0.0842,0.0842 -0.2381,0 -0.35715,0 -0.11904,0 -0.23809,0 -0.35714,0 -0.11905,0 -0.35714,0.11905 -0.35714,0 0,-0.11905 0.35714,-0.11905 0.35714,0 0,0.11905 -0.35714,0.11905 -0.35714,0 0,-0.11905 0.47619,0 0.35714,0 -0.2381,0 -0.47619,0 -0.71429,0 -0.11904,0 0.35715,0.11905 0.35715,0 0,-0.16836 -0.30391,-0.19742 -0.35715,-0.35714 -0.0753,-0.22588 0,-0.47619 0,-0.71429 0,-0.11904 0,0.47619 0,0.35715 0,-0.2381 0,-0.47619 0,-0.71429 0,-0.11905 0,0.47619 0,0.35714 0,-0.23809 0,-0.47619 0,-0.71428 0,-0.11905 0,0.47619 0,0.35714 0,-2.34127 0,1.26984 0,-1.07143 0,-0.11905 0.0842,0.44132 0,0.35714 -1.29474,-1.29474 0,-0.63063 0,-0.35714 0,0.11905 -0.27296,0.0842 -0.35714,0 -0.0842,-0.0842 0,-0.23809 0,-0.35714 0,-0.11905 -0.11905,-0.35714 0,-0.35714 0.11905,0 0.11905,0.35714 0,0.35714 -0.16836,0 -0.35714,-0.18879 -0.35714,-0.35714 0,-0.16836 0.23809,-0.47619 0.35714,-0.35715 0.11905,0.11905 -0.18878,0.35715 -0.35714,0.35715 -0.2381,0 0.23809,-0.71429 0,-0.71429 -0.16836,0 -0.35714,0.18878 -0.35714,0.35714 0,0.11905 0.35714,-0.11904 0.35714,0 0,0.11905 -0.27297,0.0842 -0.35714,0 -0.16836,-0.16836 0.16835,-0.54592 0,-0.71428 -0.0842,-0.0842 -0.35715,0.11904 -0.35715,0 0,-0.16836 0.18879,-0.35715 0.35715,-0.35715 0.11904,0 0.0842,0.27297 0,0.35715 -0.0842,0.0842 -0.27297,0.0842 -0.35715,0 -0.0842,-0.0842 0,-0.2381 0,-0.35715 0,-0.11904 -0.11905,-0.35714 0,-0.35714 0.47619,0 -0.35714,0.83333 -0.35714,0.35714 0,-0.11904 0.27296,0.0842 0.35714,0 0.0525,-0.0525 -0.042,-1.07142 0,-1.07142 0.2381,0 -0.11905,0.83333 -0.35714,0.35714 -0.10648,-0.21296 0,-0.47619 0,-0.71429 0,-0.11904 0.0842,0.27297 0,0.35715 -0.0842,0.0842 -0.35714,0.11904 -0.35714,0 0.14418,-2.4808 0.47619,-0.2381 0.35714,-0.35715 -0.18823,-0.18823 -0.16891,-0.52605 -0.35714,-0.71428 -0.0842,-0.0842 0,0.47619 0,0.35714 0,-0.2381 0,-0.47619 0,-0.71429 0,-0.11904 0.11905,-0.35714 0,-0.35714 -0.16836,0 -0.35715,0.18879 -0.35715,0.35714 0,0.11905 0.30391,0.10648 0.35715,0 0.10648,-0.21295 0,-0.47619 0,-0.71428 0,-0.47619 0.11905,1.30952 -0.35715,0.35714 -0.10647,-0.21296 0,-0.47619 0,-0.71428 0,-0.11905 0,0.47619 0,0.35714 0,-0.2381 0,-0.47619 0,-0.71429 0,-0.11904 0,0.47619 0,0.35715 0,-0.2381 0,-0.47619 0,-0.71429 0,-0.11905 0,0.47619 0,0.35714 0,-0.23809 0,-0.47619 0,-0.71428 0,-0.11905 0.11905,0.35714 0,0.35714 -0.11904,0 0,-0.2381 0,-0.35714 0,-0.11905 -0.11904,-0.35715 0,-0.35715 0.11905,0 0.11905,0.35715 0,0.35715 -0.11904,0 0,-0.2381 0,-0.35715 0,-0.11904 -0.11904,-0.35714 0,-0.35714 0.11905,0 0.11905,0.35714 0,0.35714 -0.11904,0 0,-0.23809 0,-0.35714 0,-0.11905 -0.11904,-0.35714 0,-0.35714 0.11905,0 0.11905,0.35714 0,0.35714 -0.11904,0 0,-0.23809 0,-0.35714 0,-0.11905 -0.11904,-0.35714 0,-0.35714 0.11905,0 0.11905,0.35714 0,0.35714 -0.11904,0 0,-0.2381 0,-0.35714 0,-0.11905 -0.11904,-0.35715 0,-0.35715 0.11905,0 0.11905,0.35715 0,0.35715 -0.11904,0 0,-0.2381 0,-0.35715 0,-0.11904 -0.11904,-0.35714 0,-0.35714 0.11905,0 0.11905,0.35714 0,0.35714 -0.11904,0 0,-0.23809 0,-0.35714 0,-0.11905 -0.11904,-0.35714 0,-0.35714 0.11905,0 0,0.47619 0,0.35714 0,-0.2381 0,-0.47619 0,-0.71429 0,-0.11904 0.11905,0.35715 0,0.35715 -0.11904,0 0,-0.2381 0,-0.35715 0,-0.23809 0,-0.47619 0,-0.71428 0,-0.11905 0.11905,0.35714 0,0.35714 -0.11904,0 0,-0.23809 0,-0.35714 0,-0.11905 -0.11904,-0.35714 0,-0.35714 0.11905,0 0.11905,0.35714 0,0.35714 -0.11904,0 0,-0.2381 0,-0.35714 0,-0.11905 -0.11904,-0.35715 0,-0.35715 0.11905,0 0.11905,0.35715 0,0.35715 -0.11904,0 0,-0.2381 0,-0.35715 0,-0.11904 -0.11904,-0.35714 0,-0.35714 0.11905,0 0.11905,0.35714 0,0.35714 -0.11904,0 0,-0.23809 0,-0.35714 0,-1.19048 0,0.83333 0,-0.35714 0,-1.19048 0,0.83333 0,-0.35715 0,-0.11904 -0.11904,-0.35714 0,-0.35714 0.11905,0 -0.0842,0.27296 0,0.35714 0.0842,0.0842 0.27297,0.0842 0.35715,0 0.16836,-0.16835 -0.2381,-0.71428 0,-0.71428 0.11905,0 0.11905,0.35714 0,0.35714 -0.11905,0 0,-0.23809 0,-0.35714 0,-0.11905 0,-0.2381 0,-0.35714 0,-0.11905 -0.11905,-0.35715 0,-0.35715 0.11905,0 0.11905,0.35715 0,0.35715 -0.11905,0 0,-0.2381 0,-0.35715 0,-0.11904 0,-0.23809 0,-0.35714 0,-0.11905 -0.11905,-0.35714 0,-0.35714 0.11905,0 0.11905,0.35714 0,0.35714 -0.11905,0 0,-0.2381 0,-0.35714 0,-0.11905 0,-0.2381 0,-0.35715 0,-0.11904 -0.11905,-0.35714 0,-0.35714 0.11905,0 -0.11905,0.35714 0,0.35714 0.16836,0 0.28185,-0.20655 0.35714,-0.35714 0.0532,-0.10648 -0.11905,-0.35714 0,-0.35714 0.11905,0 0.11905,0.35714 0,0.35714 -0.11905,0 0,-0.23809 0,-0.35714 0,-0.11905 -0.11905,-0.35714 0,-0.35714 0.16836,0 0.35714,0.18878 0.35714,0.35714 0,0.11905 -0.27296,0.0842 -0.35714,0 -0.0842,-0.0842 0,-0.2381 0,-0.35714 0,-0.11905 0,-0.2381 0,-0.35715 0,-1.19047 0,0.83334 0,-0.35714 0,-0.11905 0,-0.2381 0,-0.35714 0,-0.11905 -0.11905,-0.35715 0,-0.35715 0.11905,0 0.11905,0.35715 0,0.35715 -0.11905,0 0,-0.2381 0,-0.35715 0,-0.11904 0,-0.23809 0,-0.35714 0,-1.19047 0,0.83333 0,-0.35714 0,-0.11905 0,-0.2381 0,-0.35714 0,-0.11905 -0.11905,-0.35715 0,-0.35715 0.11905,0 0.11905,0.35715 0,0.35715 -0.11905,0 0,-0.2381 0,-0.35715 0,-0.11904 -0.11905,-0.35714 0,-0.35714 0.11905,0 0.11905,0.35714 0,0.35714 -0.11905,0 0,-0.23809 0,-0.35714 0,-0.11905 0,-0.2381 0,-0.35714 0,-1.04338 0,-2.22448 0,-3.57143 0,-0.83757 -0.0842,0 0.35714,0 0.11905,0 0,-0.2381 0,-0.35714 0,-0.11905 0,-0.2381 0,-0.35715 0,-0.11904 0,-0.23809 0,-0.35714 0,-0.11905 -0.0532,-0.25066 0,-0.35714 0.0753,-0.15059 0.35715,-0.18879 0.35715,-0.35715 0,-0.11904 -0.27297,0.0842 -0.35715,0 -0.0842,-0.0842 0,-0.23809 0,-0.35714 0,-0.11905 0,-0.23809 0,-0.35714 0,-0.11905 -0.11905,-0.35714 0,-0.35714 0.11905,0 0,0.47619 0,0.35714 0,-0.2381 0,-0.47619 0,-0.71429 0,-0.11904 0.11905,0.35715 0,0.35715 -0.11905,0 0,-0.2381 0,-0.35715 0,-0.11904 0,-0.23809 0,-0.35714 0,-0.11905 -0.11905,-0.35714 0,-0.35714 0.11905,0 0.11905,0.35714 0,0.35714 -0.11905,0 0,-0.2381 0,-0.35714 0,-0.11905 0,-0.2381 0,-0.35715 0,-0.47619 0,-0.95238 0,-1.42857 0,-0.71428 0,-1.42857 0,-2.14285 0,-0.11905 -0.11905,-0.35715 0,-0.35715 0.11905,0 0,0.47619 0,0.35715 0,-2.02381 -0.23809,-0.11905 0.35715,-0.71429 0.0144,-0.0144 0,-1.29742 0,-1.42857 0,-0.13116 -0.0144,-1.4142 0,-1.42857 0.0842,-0.0842 0.35714,0.11904 0.35714,0 0,-0.16836 -0.3039,-0.19743 -0.35714,-0.35715 -0.0753,-0.22587 0,-0.47619 0,-0.71428 0,-0.11905 0.11904,0.35714 0,0.35714 -0.11905,0 0,-0.23809 0,-0.35714 0,-0.11905 0,-0.2381 0,-0.35714 0,-0.2381 -0.0753,-0.48841 0,-0.71429 0.0532,-0.15972 0.20655,-0.28185 0.35714,-0.35714 0.10648,-0.0532 0.35714,0.11904 0.35714,0 0,-0.2662 -0.29258,-0.45604 -0.35714,-0.71429 -0.50595,-2.02381 0.25297,-0.35714 0,-0.35714 -0.11905,0 0,-0.2381 0,-0.35714 0,-0.11905 -0.11905,-0.35715 0,-0.35715 0.11905,0 0.11905,0.35715 0,0.35715 -0.11905,0 0,-0.2381 0,-0.35715 0,-0.35714 0,-0.71428 0,-1.07143 0,-0.11904 0,0.47619 0,0.35715 0,-1.9213 0,-1.65013 0,-3.57143 0,-0.11905 0,0.47619 0,0.35714 0,-0.23809 0,-0.47619 0,-0.71428 0,-0.11905 0.0842,0.44132 0,0.35714 -0.18823,-0.18823 -0.16891,-0.52606 -0.35714,-0.71429 -0.0842,-0.0842 0,0.47619 0,0.35715 0,-0.2381 0,-0.47619 0,-0.71429 0,-0.11905 0,0.47619 0,0.35714 0,-0.23809 0,-0.47619 0,-0.71428 0,-0.11905 0,0.47619 0,0.35714 0,-2.34127 0,1.26984 0,-1.07143 0,-0.11905 0,0.47619 0,0.35714 0,-0.23809 0,-0.47619 0,-0.71428 0,-0.11905 0,0.47619 0,0.35714 0,-0.23809 0,-0.47619 0,-0.71428 0,-0.11905 0.11904,0.35714 0,0.35714 -0.11905,0 0,-0.2381 0,-0.35714 0,-0.11905 -0.11905,-0.35715 0,-0.35715 0.11904,0 0.11904,0.35715 0,0.35715 -0.11905,0 0,-0.2381 0,-0.35715 0,-0.11904 -0.11905,-0.35714 0,-0.35714 0.11904,0 0.11904,0.35714 0,0.35714 -0.11905,0 0,-0.23809 0,-0.35714 0,-0.11905 -0.11905,-0.35714 0,-0.35714 0.11904,0 0.11904,0.35714 0,0.35714 -0.11905,0 0,-0.2381 0,-0.35714 0,-0.11905 -0.11905,-0.35715 0,-0.35715 0.11904,0 0.11904,0.35715 0,0.35715 -0.11905,0 0.0532,-0.25067 0,-0.35715 -0.0753,-0.15058 -0.4762,-0.23809 -0.35715,-0.35714 0.11905,-0.11905 0.18879,0.35714 0.35715,0.35714 0.23809,0 -0.2381,-0.71428 0,-0.71428 0.11904,0 0.11904,0.35714 0,0.35714 -0.2662,0 -0.62335,-0.71428 -0.35715,-0.71428 0.11905,0 0.11905,0.35714 0,0.35714 -0.11905,0 0,-0.2381 0,-0.35714 0,-0.11905 -0.11905,-0.35715 0,-0.35715 0.11905,0 0.11905,0.35715 0,0.35715 -0.11905,0 0,-0.2381 0,-0.35715 0,-0.11904 -0.11905,-0.35714 0,-0.35714 0.11905,0 0.11905,0.35714 0,0.35714 -0.11905,0 0,-0.23809 0,-0.35714 0,-0.11905 -0.11905,-0.35714 0,-0.35714 0.11905,0 0.11905,0.35714 0,0.35714 -0.11905,0 0,-0.2381 0,-0.35714 0,-0.11905 -0.11905,-0.35715 0,-0.35715 0.11905,0 0,0.47619 0,0.35715 0,-0.2381 0,-0.47619 0,-0.71429 0,-0.11905 0,0.47619 0,0.35714 0,-2.34127 0,1.26985 0,-1.07142 0,-0.11905 0.11905,0.35714 0,0.35714 -0.11905,0 0.0532,-0.25067 0,-0.35714 -0.0753,-0.15059 -0.47619,-0.2381 -0.35714,-0.35715 0.11905,-0.11904 0.18878,0.35715 0.35714,0.35715 0.2381,0 -0.23809,-0.71429 0,-0.71429 0.11905,0 0.0842,0.27296 0,0.35714 -0.0842,0.0842 -0.27296,0.0842 -0.35714,0 -0.0842,-0.0842 0,-0.23809 0,-0.35714 0,-0.11905 -0.11905,-0.35714 0,-0.35714 0.11905,0 0.11905,0.35714 0,0.35714 -0.11905,0 0,-0.2381 0,-0.35714 0,-0.11905 -0.11905,-0.35715 0,-0.35715 0.11905,0 0.11905,0.35715 0,0.35715 -0.11905,0 0,-0.2381 0,-0.35715 0,-0.11904 -0.11905,-0.35714 0,-0.35714 0.11905,0 0.11905,0.35714 0,0.35714 -0.11905,0 0,-0.23809 0,-0.35714 0,-0.11905 -0.11905,-0.35714 0,-0.35714 0.11905,0 0.11905,0.35714 0,0.35714 -0.11905,0 0,-0.23809 0,-0.35714 0,-0.11905 -0.11905,-0.35714 0,-0.35714 0.11905,0 0.11905,0.35714 0,0.35714 -0.11905,0 0,-0.2381 0,-0.35714 0,-0.11905 -0.11905,-0.35715 0,-0.35715 0.11905,0 0.11905,0.35715 0,0.35715 -0.11905,0 0,-0.2381 0,-0.35715 0,-0.11904 -0.11905,-0.35714 0,-0.35714 0.11905,0 0.11905,0.35714 0,0.35714 -0.11905,0 0,-0.23809 0,-0.35714 0,-0.11905 -0.11905,-0.35714 0,-0.35714 0.11905,0 0.11905,0.35714 0,0.35714 -0.11905,0 0.0842,-0.27296 0,-0.35714 -0.0842,-0.0842 -0.35714,0.11904 -0.35714,0 0,-0.16836 0.18878,-0.35715 0.35714,-0.35715 0.11905,0 0.0842,0.27297 0,0.35715 -0.0842,0.0842 -0.27296,0.0842 -0.35714,0 -0.16836,-0.16836 0.16836,-0.54593 0,-0.71429 -0.0842,-0.0842 -0.35715,0.11905 -0.35715,0 0,-0.16836 0.18879,-0.35714 0.35715,-0.35714 0.11905,0 0.0842,0.27296 0,0.35714 -0.0842,0.0842 -0.27297,0.0842 -0.35715,0 -0.0842,-0.0842 0.0842,-0.27296 0,-0.35714 -0.0842,-0.0842 -0.35714,0.11905 -0.35714,0 0,-0.11905 0.30391,-0.10648 0.35714,0 0.10648,0.21296 0,0.47619 0,0.71428 0,0.11905 0,-0.23809 0,-0.35714 0,-0.11905 -0.11904,-0.35714 0,-0.35714 0.11905,0 0.11905,0.35714 0,0.35714 -0.11904,0 0,-0.23809 0,-0.35714 0,-0.11905 -0.11904,-0.35714 0,-0.35714 0.11905,0 0.11905,0.35714 0,0.35714 -0.11904,0 0,-0.2381 0,-0.35714 0,-0.11905 -0.11904,-0.35715 0,-0.35715 0.11905,0 0.0842,0.44132 0,0.35715 -0.18823,-0.18824 -0.16891,-0.52606 -0.35714,-0.71429 -0.0842,-0.0842 0,0.47619 0,0.35714 0,-0.23809 0,-0.47619 0,-0.71428 0,-0.11905 -0.11905,-0.35715 0,-0.35715 0.11905,0 0.11905,0.35715 0,0.35715 -0.11905,0 0,-0.2381 0,-0.35715 0,-0.11904 -0.11905,-0.35714 0,-0.35714 0.11905,0 0.11905,0.35714 0,0.35714 -0.11905,0 0,-0.23809 0,-0.35714 0,-0.11905 -0.11905,-0.35714 0,-0.35714 0.11905,0 0.11905,0.35714 0,0.35714 -0.23809,0 0.2381,-0.71428 0,-0.71428 -0.16836,0 -0.35714,0.18878 -0.35714,0.35714 0,0.11905 0.27296,0.0842 0.35714,0 0.16836,-0.16836 -0.23809,-0.71429 0,-0.71429 0.11905,0 0.0842,0.27297 0,0.35715 -0.0842,0.0842 -0.27296,0.0842 -0.35714,0 -0.0855,-0.0855 0.0812,-1.42858 0,-1.42858 -0.16836,0 -0.35714,0.52551 -0.35714,0.35715 0,-0.2662 0.35714,-0.44809 0.35714,-0.71429 0,-0.16836 -0.18878,0.35714 -0.35714,0.35714 -0.2381,0 0.10648,-0.50132 0,-0.71428 -0.0753,-0.15059 -0.47619,-0.2381 -0.35715,-0.35714 0.11905,-0.11905 0.18879,0.35714 0.35715,0.35714 0.11904,0 0,-0.2381 0,-0.35714 0,-0.11905 0.11904,-0.35715 0,-0.35715 -0.44133,0 -0.35715,0.83757 -0.35715,0 0,-0.11904 0,-0.23809 0,-0.35714 0,-0.11905 -0.11904,-0.35714 0,-0.35714 0.11905,0 0.11905,0.35714 0,0.35714 -0.23809,0 0.2381,-0.71429 0,-0.71429 -0.16836,0 -0.23809,0.47619 -0.35714,0.35715 -0.11905,-0.11905 0.35714,-0.18879 0.35714,-0.35715 0,-0.16835 -0.18878,-0.35714 -0.35714,-0.35714 -0.11905,0 0.11905,0.35714 0,0.35714 -0.11905,0 0,-0.23809 0,-0.35714 0,-0.11905 0,-0.23809 0,-0.35714 0,-0.11905 -0.11905,-0.35714 0,-0.35714 0.11905,0 0.11905,0.35714 0,0.35714 -0.23809,0 0.16836,-0.54593 0,-0.71429 -0.0842,-0.0842 -0.35714,0.11905 -0.35714,0 0,-1.18449 0.6692,0 0.35714,0 -0.23809,0 0.2381,-0.71428 0,-0.71428 -0.16836,0 -0.18878,0.35714 -0.35714,0.35714 -0.11905,0 0,-0.2381 0,-0.35714 0,-0.71429 0,-1.42857 0,-2.14286 0,-1.34921 0,1.5873 0,-0.71429 0,-0.11904 0.11905,0.35715 0,0.35715 -0.11905,0 0,-0.2381 0,-0.35715 0,-0.11904 0,-0.23809 0,-0.35714 0,-0.11905 -0.11905,-0.35714 0,-0.35714 0.11905,0 0.11905,0.35714 0,0.35714 -0.11905,0 0,-0.23809 0,-0.35714 0,-0.11905 0,-0.2381 0,-0.35714 0,-0.11905 -0.11905,-0.35715 0,-0.35715 0.11905,0 0.11905,0.35715 0,0.35715 -0.11905,0 0,-0.2381 0,-0.35715 0,-0.0866 -0.0115,-1.05994 0,-1.07143 0.0842,-0.0842 0.27296,0.0842 0.35714,0 0.0842,-0.0842 0,-0.23809 0,-0.35714 0,-0.59524 0,-1.19047 0,-1.78571 0,-0.95238 -0.11905,0.11904 0.35714,-0.35715 0.0842,-0.0842 -0.0842,-0.27296 0,-0.35714 0.0842,-0.0842 0.35715,0.11905 0.35715,0 0,-0.16836 -0.28185,-0.20656 -0.35715,-0.35714 -0.0532,-0.10648 0,-0.2381 0,-0.35714 0,-0.11905 -0.0842,-0.27297 0,-0.35715 0.0842,-0.0842 0.27297,0.0842 0.35715,0 0.0842,-0.0842 -0.0842,-0.27296 0,-0.35714 0.0842,-0.0842 0.35714,-0.11905 0.35714,0 0,0.11905 -0.27296,0.0842 -0.35714,0 -0.0115,-0.0115 0,-0.98481 0,-1.07143 0,-0.11905 -0.0842,-0.27296 0,-0.35714 0.21344,-0.21344 0.71428,0.38603 0.71428,-0.35714 0,-0.11905 -0.3039,0.10647 -0.35714,0 -0.10648,-0.21296 0,-0.47619 0,-0.71429 0,-0.11905 0,0.47619 0,0.35714 0,-0.23809 0,-0.47619 0,-0.71428 0,-0.11905 0.11905,0.35714 0,0.35714 -0.11905,0 0,-0.2381 0,-0.35714 0,-0.11905 -0.0842,-0.27297 0,-0.35715 0.0842,-0.0842 0.27296,0.0842 0.35714,0 0.0842,-0.0842 -0.0842,-0.27296 0,-0.35714 0.0842,-0.0842 0.35714,-0.11905 0.35714,0 0,0.11905 -0.27296,0.0842 -0.35714,0 -0.0842,-0.0842 0,-0.23809 0,-0.35714 0,-2.34127 0,1.26984 0,-1.07143 0,-0.11905 0.11905,0.35714 0,0.35714 -0.11905,0 0,-0.23809 0,-0.35714 0,-0.35714 0,-0.71429 0,-1.07143 0,-0.11905 0,0.47619 0,0.35714 0,-0.23809 0,-0.47619 0,-0.71428 0,-0.11905 0,0.47619 0,0.35714 0,-0.23809 0,-0.47619 0,-0.71428 0,-0.11905 0,0.47619 0,0.35714 0,-2.34127 0,1.26984 0,-1.07143 0,-0.11905 0,0.47619 0,0.35714 0,-2.34127 0,1.26984 0,-1.07143 0,-0.11904 0,0.4762 0,0.35715 0,-0.2381 0,-0.47619 0,-0.71429 0,-0.11905 0,0.47619 0,0.35714 0,-0.23809 0,-0.47619 0,-0.71428 0,-0.11905 0,0.47619 0,0.35714 0,-2.34127 0,1.26984 0,-1.07143 0,-0.11905 0,0.47619 0,0.35715 0,-0.2381 0,-0.4762 0,-0.71429 0,-0.11905 -0.11905,-0.35714 0,-0.35714 0.11905,0 0.11905,0.35714 0,0.35714 -0.11905,0 0,-0.23809 0,-0.35714 0,-0.11905 -0.11905,-0.35715 0,-0.35715 0.11905,0 0.11905,0.35715 0,0.35715 -0.11905,0 0,-0.2381 0,-0.35715 0,-0.11904 -0.11905,-0.35714 0,-0.35714 0.11905,0 0.11905,0.35714 0,0.35714 -0.11905,0 -0.0842,-0.27296 0,-0.35714 0.0842,-0.0842 0.30391,0.10648 0.35714,0 0.15972,-0.31944 0,-0.71428 0,-1.07143 0,-0.11904 -0.11904,-0.35714 0,-0.35714 0.11905,0 0,0.47619 0,0.35714 0,-0.23809 0,-0.47619 0,-0.71428 0,-0.11905 -0.11904,-0.35715 0,-0.35715 0.11905,0 0.11905,0.35715 0,0.35715 -0.11904,0 0,-0.2381 0,-0.35715 0,-0.11904 -0.11904,-0.35714 0,-0.35714 0.11905,0 0.11905,0.35714 0,0.35714 -0.11904,0 0,-0.23809 0,-0.35714 0,-0.11905 -0.11904,-0.35714 0,-0.35714 0.11905,0 0,0.47619 0,0.35714 0,-2.34127 0,1.26984 0,-1.07143 0,-0.11904 0.11905,0.35715 0,0.35715 -0.11904,0 0,-0.2381 0,-0.35715 0,-0.11904 -0.11904,-0.35714 0,-0.35714 0.11905,0 0.11905,0.35714 0,0.35714 -0.11904,0 0,-0.23809 0,-0.35714 0,-0.11905 -0.11904,-0.35714 0,-0.35714 0.11905,0 0,0.47619 0,0.35714 0,-2.34127 0,1.26984 0,-1.07143 0,-0.11905 0.11905,0.35714 0,0.35714 -0.11904,0 0,-0.23809 0,-0.35714 0,-0.11905 -0.11904,-0.35714 0,-0.35714 0.11905,0 0,0.47619 0,0.35714 0,-0.23809 0,-0.47619 0,-0.71428 0,-0.11905 0.11905,0.35714 0,0.35714 -0.11904,0 0,-0.2381 0,-0.35714 0,-0.11905 -0.11904,-0.35715 0,-0.35715 0.11905,0 0.11905,0.35715 0,0.35715 -0.11904,0 0,-0.2381 0,-0.35715 0,-0.11904 0,-0.23809 0,-0.35714 0,-0.11905 -0.11904,-0.35714 0,-0.35714 0.11905,0 0.11905,0.35714 0,0.35714 -0.11904,0 0,-0.23809 0,-0.35714 0,-0.11905 -0.11904,-0.35715 0,-0.35715 0.11905,0 0.11905,0.35715 0,0.35715 -0.11904,0 0,-0.47619 0,-0.35715 0,0.4762 0,0.95239 0,1.42858 0,0.11904 0,0.47619 0,0.35714 0,-1.48067 0,-1.40641 0,-2.14286 0,-0.11905 -0.11904,-0.35714 0,-0.35714 0.11905,0 0,0.47619 0,0.35714 0,-2.34127 0,1.26984 0,-1.07143 0,-0.11904 0.11905,0.35715 0,0.35715 -0.11904,0 0,-0.2381 0,-0.35715 0,-0.11904 -0.11904,-0.35714 0,-0.35714 0.11905,0 0.11905,0.35714 0,0.35714 -0.11904,0 0,-0.23809 0,-0.35714 0,-0.11905 -0.11904,-0.35714 0,-0.35714 0.11905,0 0.11905,0.35714 0,0.35714 -0.11904,0 0,-0.23809 0,-0.35714 0,-0.11905 -0.11904,-0.35715 0,-0.35715 0.11905,0 0,0.4762 0,0.35715 0,-0.2381 0,-0.47619 0,-0.71429 0,-0.11905 0,0.47619 0,0.35714 0,-2.34127 0,1.26985 0,-1.07142 0,-0.11905 0.11905,0.35714 0,0.35714 -0.11904,0 0,-0.2381 0,-0.35714 0,-0.11905 0,-0.2381 0,-0.35715 0,-0.11904 -0.11904,-0.35714 0,-0.35714 0.11905,0 0.11905,0.35714 0,0.35714 -0.11904,0 0,-0.23809 0,-0.35714 0,-0.11905 0,-0.23809 0,-0.35714 0,-0.11905 -0.11904,-0.35715 0,-0.35715 0.11905,0 0.11905,0.35715 0,0.35715 -0.11904,0 0,-0.2381 0,-0.35715 0,-0.11904 0,-0.23809 0,-0.35714 0,-0.11905 -0.11904,-0.35714 0,-0.35714 0.11905,0 0.11905,0.35714 0,0.35714 -0.11904,0 0,-0.23809 0,-0.35714 0,-0.11905 -0.11904,-0.35714 0,-0.35714 0.11905,0 0,0.47619 0,0.35714 0,-0.2381 0,-0.47619 0,-0.71429 0,-0.11904 0.11905,0.35715 0,0.35715 -0.11904,0 0,-0.2381 0,-0.35715 0,-0.11904 0,-0.23809 0,-0.35714 0,-1.34921 0,1.5873 0,-0.71429 0,-0.11904 0.11905,0.35715 0,0.35715 -0.11904,0 0,-0.2381 0,-0.35715 0,-0.11904 0,-0.23809 0,-0.35714 0,-0.11905 -0.11904,-0.35714 0,-0.35714 0.11905,0 0.11905,0.35714 0,0.35714 -0.11904,0 0,-0.23809 0,-0.35714 0,-0.11905 -0.11904,-0.35714 0,-0.35714 0.11905,0 0.11905,0.35714 0,0.35714 -0.11904,0 0,-0.2381 0,-0.35714 0,-0.2381 0,-0.47619 0,-0.71429 0,-0.11905 -0.11904,-0.35714 0,-0.35714 0.11905,0 0.11905,0.35714 0,0.35714 -0.11904,0 0,-0.23809 0,-0.35714 0,-0.11905 -0.0842,-0.27297 0,-0.35715 0.0842,-0.0842 0.27297,0.0842 0.35715,0 0.0842,-0.0842 0,-0.23809 0,-0.35714 0,-0.11905 0,-0.23809 0,-0.35714 0,-1.19048 0,0.83333 0,-0.35714 0,-0.47619 0,-0.95238 0,-1.42858 0,-0.11904 -0.11905,-0.35714 0,-0.35714 0.11905,0 0,0.47619 0,0.35714 0,-2.30158 0,0.63493 0,-0.71428 0,-0.11905 0,-0.2381 0,-0.35714 0,-0.11905 -0.11905,-0.35715 0,-0.35715 0.11905,0 0.11905,0.35715 0,0.35715 -0.11905,0 0,-0.2381 0,-0.35715 0,-0.11904 0,-0.23809 0,-0.35714 0,-0.11905 -0.11905,-0.35714 0,-0.35714 0.11905,0 0.11905,0.35714 0,0.35714 -0.11905,0 0,-0.23809 0,-0.35714 0,-0.11905 0,-0.2381 0,-0.35715 0,-0.11904 -0.11905,-0.35714 0,-0.35714 0.11905,0 0.11905,0.35714 0,0.35714 -0.11905,0 0,-0.23809 0,-0.35714 0,-0.11905 0,-0.23809 0,-0.35714 0,-0.11905 -0.11905,-0.35714 0,-0.35714 0.11905,0 0.11905,0.35714 0,0.35714 -0.11905,0 -0.0842,-0.27296 0,-0.35714 0.0842,-0.0842 0.27296,0.0842 0.35714,0 0.0842,-0.0842 -0.0532,-0.25067 0,-0.35715 0.0753,-0.15058 0.28185,-0.20656 0.35714,-0.35714 0.10648,-0.21296 -0.16836,-0.54593 0,-0.71429 0.0842,-0.0842 0.27297,0.0842 0.35715,0 0.0842,-0.0842 0,-0.23809 0,-0.35714 0,-0.83333 0,-1.66667 0,-2.5 0,-0.47619 -0.11905,1.30953 0.35714,0.35714 0.10648,-0.21295 0,-0.47619 0,-0.71428 0,-0.11905 0,0.47619 0,0.35714 0,-0.23809 0,-0.47619 0,-0.71428 0,-0.11905 0,0.47619 0,0.35714 0,-0.2381 0,-0.47619 0,-0.71429 0,-0.11904 0.11905,0.35715 0,0.35715 -0.11905,0 0,-0.2381 0,-0.35715 0,-0.35714 0,-0.71428 0,-1.07143 0,-0.83333 0,-1.66666 0,-2.5 0,-1.26288 0,-1.99123 0,-2.5 0,-0.47619 -0.11905,1.30953 0.35714,0.35715 0.10648,-0.21296 0,-0.47619 0,-0.71429 0,-0.11905 0,0.47619 0,0.35714 0,-0.23809 0,-0.47619 0,-0.71428 0,-0.11905 0,0.47619 0,0.35714 0,-2.34127 0,1.26984 0,-1.07143 0,-0.11904 0,0.47619 0,0.35715 0,-0.2381 0,-0.47619 0,-0.71429 0,-0.47619 -0.11905,1.30952 0.35714,0.35714 0.10648,-0.21296 0,-0.47619 0,-0.71428 0,-0.11905 0,0.47619 0,0.35714 0,-0.2381 0,-0.47619 0,-0.71429 0,-0.11904 0,0.47619 0,0.35715 0,-0.2381 0,-0.47619 0,-0.71429 0,-0.11905 0,0.47619 0,0.35714 0,-2.34127 0,1.26985 0,-1.07142 0,-0.11905 0,0.47619 0,0.35714 0,-0.2381 0,-0.47619 0,-0.71429 0,-0.11904 0,0.47619 0,0.35715 0,-0.2381 0,-0.47619 0,-0.71429 0,-0.11905 0,0.47619 0,0.35714 0,-2.34127 0,1.26984 0,-1.07143 0,-0.11904 0,0.47619 0,0.35715 0,-2.34127 0,1.26984 0,-1.07143 0,-0.11905 0.11905,0.35714 0,0.35714 -0.11904,0 0,-0.23809 0,-0.35714 0,-0.11905 -0.11904,-0.35714 0,-0.35714 0.11905,0 0.11905,0.35714 0,0.35714 -0.26619,0 0.091,-0.71429 0.35715,-0.71429 0.11904,0 0.11904,0.35715 0,0.35715 -0.11905,0 0,-0.2381 0,-0.35715 0,-0.11904 -0.11905,-0.35714 0,-0.35714 0.11904,0 0.11904,0.35714 0,0.35714 -0.11905,0 0,-0.23809 0,-0.35714 0,-0.11905 -0.11905,-0.35714 0,-0.35714 0.11904,0 0.11904,0.35714 0,0.35714 -0.11905,0 0,-0.2381 0,-0.35714 0,-0.11905 -0.11905,-0.35715 0,-0.35715 0.11904,0 0.11904,0.35715 0,0.35715 -0.11905,0 0,-0.2381 0,-0.35715 0,-0.11904 -0.11905,-0.35714 0,-0.35714 0.11904,0 0.11904,0.35714 0,0.35714 -0.11905,0 0,-0.23809 0,-0.35714 0,-0.11905 -0.11905,-0.35714 0,-0.35714 0.11904,0 0.11904,0.35714 0,0.35714 -0.2381,0 0.23809,-0.71428 0,-0.71428 -0.16836,0 -0.18879,0.35714 -0.35715,0.35714 -0.11904,0 0,-0.2381 0,-0.35714 0,-0.11905 0,-0.2381 0,-0.35715 0,-0.11904 -0.11904,-0.35714 0,-0.35714 0.11905,0 0.11905,0.35714 0,0.35714 -0.11904,0 0.0842,-0.27296 0,-0.35714 -0.0842,-0.0842 -0.27296,0.0842 -0.35714,0 -0.0842,-0.0842 0,-0.2381 0,-0.35714 0,-0.11905 0,-0.2381 0,-0.35715 0,-0.11904 -0.11905,-0.35714 0,-0.35714 0.11905,0 0.11905,0.35714 0,0.35714 -0.11905,0 0,-0.23809 0,-0.35714 0,-0.11905 -0.11905,-0.35714 0,-0.35714 0.11905,0 0.11905,0.35714 0,0.35714 -0.11905,0 0,-0.23809 0,-0.35714 0,-0.11905 -0.11905,-0.35714 0,-0.35714 0.11905,0 0.11905,0.35714 0,0.35714 -0.11905,0 0,-0.2381 0,-0.35714 0,-0.11905 -0.11905,-0.35715 0,-0.35715 0.11905,0 0,0.47619 0,0.35715 0,-0.2381 0,-0.47619 0,-0.71429 0,-0.11905 0.11905,0.35714 0,0.35714 -0.11905,0 0,-0.23809 0,-0.35714 0,-0.11905 -0.11905,-0.35714 0,-0.35714 0.11905,0 0.11905,0.35714 0,0.35714 -0.11905,0 -0.0842,-0.27296 0,-0.35714 0.0842,-0.0842 0.27296,0.0842 0.35714,0 0.0842,-0.0842 -0.11904,-0.35715 0,-0.35715 0.11905,0 0.11905,0.35715 0,0.35715 -0.11904,0 0,-0.2381 0,-0.35715 0,-0.11904 -0.11904,-0.35714 0,-0.35714 0.11905,0 -0.11904,0.35714 0,0.35714 0.16836,0 0.28185,-0.20655 0.35715,-0.35714 0.0532,-0.10648 -0.11905,-0.35714 0,-0.35714 0.11904,0 0.11904,0.35714 0,0.35714 -0.11905,0 -0.0842,-0.27296 0,-0.35714 0.0842,-0.0842 0.27296,0.0842 0.35714,0 0.0842,-0.0842 -0.11905,-0.35714 0,-0.35714 0.11905,0 0.11905,0.35714 0,0.35714 -0.11905,0 0,-0.2381 0,-0.35714 0,-0.11905 -0.0842,-0.27297 0,-0.35715 0.0842,-0.0842 0.27296,0.0842 0.35714,0 0.83757,-0.83756 -1.26867,0 0.35715,0 0.11904,0 -0.11905,-0.35714 0,-0.35714 0.11904,0 0,0.2381 0,0.35714 0,0.11905 0,0.2381 0,0.35715 0,0.11904 0.11904,0.35714 0,0.35714 -0.11905,0 -0.11905,-0.35714 0,-0.35714 0.11904,0 0,0.23809 0,0.35714 0,0.11905 0.11904,0.35714 0,0.35714 -0.11905,0 -0.11905,-0.35714 0,-0.35714 0.11904,0 0,0.23809 0,0.35714 0,0.11905 0.11904,0.35714 0,0.35714 -0.11905,0 -0.11905,-0.35714 0,-0.35714 0.11904,0 0,0.2381 0,0.35714 0,0.11905 0.11904,0.35715 0,0.35715 -0.11905,0 0,-0.47619 0,-0.35715 0,0.2381 0,0.47619 0,0.71429 0,0.11905 -0.11905,-0.35714 0,-0.35714 0.11904,0 0,0.23809 0,0.35714 0,0.11905 0.11904,0.35714 0,0.35714 -0.11905,0 -0.11905,-0.35714 0,-0.35714 0.11904,0 0,0.2381 0,0.35714 0,0.11905 0,0.2381 0,0.35715 0,0.11904 0.11904,0.35714 0,0.35714 -0.11905,0 -0.11905,-0.35714 0,-0.35714 0.11904,0 0,0.23809 0,0.35714 0,0.11905 0.11904,0.35714 0,0.35714 -0.11905,0 -0.11905,-0.35714 0,-0.35714 0.11904,0 0,0.23809 0,0.35714 0,0.11905 0.11904,0.35714 0,0.35714 -0.11905,0 -0.11905,-0.35714 0,-0.35714 0.11904,0 0,0.2381 0,0.35714 0,0.11905 0.11904,0.35715 0,0.35715 -0.11905,0 0,-0.47619 0,-0.35715 0,2.34127 0,-1.26984 0,1.07143 0,0.47619 -0.11905,-1.30952 0.35714,-0.35714 0.10648,0.21296 0,0.47619 0,0.71429 0,0.11904 0,-0.47619 0,-0.35715 0,0.2381 0,0.47619 0,0.71429 0,0.11905 0,-0.47619 0,-0.35714 0,0.23809 0,0.47619 0,0.71428 0,0.11905 -0.11905,-0.35714 0,-0.35714 0.16836,0 0.28185,0.20656 0.35714,0.35714 0.0532,0.10648 0.11905,0.35714 0,0.35714 -0.11905,0 -0.11905,-0.35714 0,-0.35714 0.11905,0 -0.0532,0.25067 0,0.35714 0.0753,0.15059 0.47619,0.2381 0.35714,0.35715 -0.11904,0.11904 -0.23809,-0.47619 -0.35714,-0.35715 -0.16836,0.16836 0,0.47619 0,0.71429 0,0.11905 0,-0.47619 0,-0.35714 0,2.34127 0,-1.26984 0,1.07143 0,0.11904 0,-0.47619 0,-0.35715 0,2.20635 0,2.43652 0,4.64286 0,0.47619 -0.11905,-1.30952 0.35714,-0.35714 0.10648,0.21296 0,0.47619 0,0.71428 0,0.11905 -0.11904,-0.35714 0,-0.35714 0.11905,0 0,0.2381 0,0.35714 0,0.35715 0,0.71429 0,1.07143 0,0.11905 0,-0.47619 0,-0.35714 0,2.34127 0,-1.26984 0,1.07143 0,0.11904 0,-0.47619 0,-0.35715 0,0.2381 -0.16835,0.54593 0,0.71429 0.11905,0.11905 0.35715,-0.18878 0.35715,-0.35714 0,-0.11905 -0.30391,-0.10648 -0.35715,0 -0.10647,0.21296 0,0.47619 0,0.71428 0,0.11905 0,-0.47619 0,-0.35714 0,2.34127 0,-1.26984 0,1.07143 0,0.11905 -0.0842,-0.44132 0,-0.35714 1.1073,2.21459 0.0455,0.35714 0.35715,0.35714 0.11904,0 0,0.23809 0,0.35714 0,0.2381 0,0.47619 0,0.71429 0,0.11904 -0.11905,-0.35715 0,-0.35715 0.11904,0 0,0.2381 0,0.35715 0,0.11904 0,0.23809 0,0.35714 0,0.35714 0,0.71429 0,1.07143 0,0.11905 0,-0.47619 0,-0.35714 0,1.62597 0,0.55709 0,1.78571 0,0.11905 0,-0.47619 0,-0.35714 0,0.23809 0,0.47619 0,0.71428 0,0.11905 0,-0.47619 0,-0.35714 0,0.2381 0,0.47619 0,0.71429 0,0.11904 -0.0842,-0.27297 0,-0.35715 0.0842,-0.0842 0.27296,-0.0842 0.35714,0 0.0842,0.0842 0,0.2381 0,0.35715 0,0.35714 0,0.71428 0,1.07142 0,0.11905 0,-0.47619 0,-0.35714 0,0.2381 0,0.47619 0,0.71429 0,0.11904 -0.0842,-0.44132 0,-0.35715 0.18823,0.18824 0.16891,0.52606 0.35714,0.71429 0.0842,0.0842 -0.11904,-0.35714 0,-0.35714 0.11905,0 0,0.23809 0,0.35714 0,0.2381 0,0.47619 0,0.71429 0,0.11904 0,-0.47619 0,-0.35715 0,0.2381 0,0.47619 0,0.71429 0,0.11905 -0.11904,-0.35714 0,-0.35714 0.11905,0 -0.0842,0.27296 0,0.35714 0.0842,0.0842 0.27297,-0.0842 0.35715,0 0.17857,0.17857 -0.17858,0.89286 0,1.07143 0.0842,0.0842 0.27296,-0.0842 0.35714,0 0.0842,0.0842 0,0.23809 0,0.35714 0,0.2381 0,0.47619 0,0.71429 0,0.11904 -0.11905,-0.35715 0,-0.35715 0.11905,0 0.11905,0.35715 0,0.35715 -0.11905,0 -0.11905,-0.35715 0,-0.35715 0.11905,0 0,0.2381 0,0.35715 0,0.11904 0,0.23809 0,0.35714 0,0.71428 0,1.42857 0,2.14286 0,1.28147 0,1.54305 0,2.14285 0,0.11905 -0.11905,-0.35714 0,-0.35714 0.11905,0 0,0.2381 0,0.35714 0,0.11905 0,0.2381 0,0.35715 0,0.11904 0.11905,0.35714 0,0.35714 -0.11905,0 -0.11905,-0.35714 0,-0.35714 0.11905,0 0,0.23809 0,0.35714 0,0.11905 0.0842,0.27296 0,0.35714 -0.0842,0.0842 -0.27296,-0.0842 -0.35714,0 -0.0162,0.0162 0,1.61732 0,1.78572 0,0.23809 0,0.47619 0,0.71428 0,0.11905 0.11904,0.35714 0,0.35714 -0.11905,0 0,-0.47619 0,-0.35714 0,2.30159 0,-0.63492 0,0.71429 0,0.11905 0,0.23809 0,0.35714 0,0.11905 0.11904,0.35714 0,0.35714 -0.11905,0 -0.11905,-0.35714 0,-0.35714 0.11904,0 0,0.2381 0,0.35714 0,0.11905 0,0.2381 0,0.35715 0,1.19047 0,-0.83334 0,0.35714 0,0.11905 0,0.23809 0,0.35714 0,0.11905 0.11904,0.35714 0,0.35714 -0.11905,0 -0.11905,-0.35714 0,-0.35714 0.11904,0 0,0.2381 0,0.35714 0,0.11905 0,0.2381 0,0.35715 0,0.11905 0.11904,0.35714 0,0.35714 -0.11905,0 -0.11905,-0.35714 0,-0.35714 0.11904,0 0,0.23809 0,0.35714 0,0.11905 0,0.2381 0,0.35714 0,1.19048 0,-0.83333 0,0.35715 0,0.11904 0,0.23809 0,0.35714 0,0.11905 0.11904,0.35714 0,0.35714 -0.11905,0 -0.11905,-0.35714 0,-0.35714 0.11904,0 -0.0532,0.25066 0,0.35714 0.0753,0.15059 0.18878,0.35714 0.35714,0.35714 0.11905,0 -0.11905,-0.35714 0,-0.35714 0.11905,0 0,0.2381 0,0.35714 0,0.11905 0.11905,0.35715 0,0.35715 -0.11905,0 0,-0.47619 0,-0.35715 0,0.2381 0,0.4762 0,0.71429 0,0.11905 -0.11905,-0.35714 0,-0.35714 0.11905,0 0,0.23809 0,0.35714 0,0.11905 0,0.2381 0,0.35714 0,0.11905 0.11905,0.35715 0,0.35715 -0.11905,0 -0.11905,-0.35715 0,-0.35715 0.11905,0 0,0.2381 0,0.35715 0,0.11904 0,0.23809 0,0.35714 0,1.19048 0,-0.83333 0,0.35714 0,0.11905 0,0.2381 0,0.35714 0,0.11905 0.11905,0.35715 0,0.35715 -0.11905,0 -0.11905,-0.35715 0,-0.35715 0.23809,0 -0.2381,0.71429 0,0.71429 0.16836,0 0.18878,-0.35714 0.35714,-0.35714 0.11905,0 0,0.23809 0,0.35714 0,0.11905 0.11905,0.35714 0,0.35714 -0.11905,0 -0.11905,-0.35714 0,-0.35714 0.11905,0 0,0.2381 0,0.35714 0,0.11905 0.11905,0.35715 0,0.35715 -0.11905,0 -0.11905,-0.35715 0,-0.35715 0.11905,0 0,0.2381 0,0.35715 0,0.11904 0.11905,0.35714 0,0.35714 -0.11905,0 -0.11905,-0.35714 0,-0.35714 0.11905,0 0,0.23809 0,0.35714 0,0.11905 0,0.23809 0,0.35714 0,0.11905 0.11905,0.35714 0,0.35714 -0.11905,0 -0.11905,-0.35714 0,-0.35714 0.2381,0 -0.10648,0.50133 0,0.71429 0.0753,0.15058 0.18879,0.35714 0.35714,0.35714 0.11905,0 0,-0.47619 0,-0.35714 0,0.23809 0,0.47619 0,0.71428 0,0.2381 0,0.47619 0,0.71429 0,0.11905 0.11905,0.35714 0,0.35714 -0.11904,0 0,-0.47619 0,-0.35714 0,0.23809 0,0.47619 0,0.71428 0,0.11905 0,-0.47619 0,-0.35714 0,0.47619 0,0.95238 0,1.42857 0,0.11905 0.11905,0.35715 0,0.35715 -0.11904,0 0,-0.47619 0,-0.35715 0,0.35715 0,0.71429 0,1.07143 0,0.11905 0.11905,0.35714 0,0.35714 -0.11904,0 -0.11904,-0.35714 0,-0.35714 0.11905,0 0,0.2381 0,0.35714 0,0.11905 0.11905,0.35715 0,0.35715 -0.11904,0 -0.11904,-0.35715 0,-0.35715 0.11905,0 0,0.2381 0,0.35715 0,0.11905 0.11905,0.35714 0,0.35714 -0.11904,0 -0.11904,-0.35714 0,-0.35714 0.11905,0 0,0.23809 0,0.35714 0,0.11905 0.11905,0.35714 0,0.35714 -0.11904,0 -0.11904,-0.35714 0,-0.35714 0.11905,0 0,0.2381 0,0.35714 0,0.11905 0.11905,0.35715 0,0.35715 -0.11904,0 -0.11904,-0.35715 0,-0.35715 0.11905,0 0,0.2381 0,0.35715 0,0.11904 0,0.23809 0,0.35714 0,0.11905 0.11905,0.35714 0,0.35714 -0.11904,0 -0.11904,-0.35714 0,-0.35714 0.2381,0 -0.10647,0.50133 0,0.71428 0.0753,0.15059 0.18879,0.35715 0.35715,0.35715 0.11904,0 0,-0.47619 0,-0.35715 0,2.44466 0,4.14546 0,5.71429 0,1.19048 0,-0.83333 0,0.35714 0,0.11905 0.11904,0.35715 0,0.35715 -0.11905,0 -0.11905,-0.35715 0,-0.35715 0.11904,0 0,0.2381 0,0.35715 0,0.11904 0.11904,0.35714 0,0.35714 -0.11905,0 -0.11905,-0.35714 0,-0.35714 0.11904,0 0,0.23809 0,0.35714 0,0.11905 0.11904,0.35714 0,0.35714 -0.11905,0 -0.11905,-0.35714 0,-0.35714 0.11904,0 0,0.23809 0,0.35714 0,0.11905 0.11904,0.35714 0,0.35714 -0.11905,0 -0.11905,-0.35714 0,-0.35714 0.11904,0 0,0.2381 0,0.35714 0,0.11905 0.11904,0.35715 0,0.35715 -0.11905,0 -0.11905,-0.35715 0,-0.35715 0.11904,0 0,0.2381 0,0.35715 0,0.11904 0.11904,0.35714 0,0.35714 -0.11905,0 -0.11905,-0.35714 0,-0.35714 0.11904,0 0,0.23809 0,0.35714 0,0.11905 0.11904,0.35714 0,0.35714 -0.11905,0 -0.11905,-0.35714 0,-0.35714 0.11904,0 0,0.2381 0,0.35714 0,0.11905 0.11904,0.35715 0,0.35715 -0.11905,0 -0.11905,-0.35715 0,-0.35715 0.11904,0 0,0.2381 0,0.35715 0,0.11904 0.11904,0.35714 0,0.35714 -0.11905,0 -0.11905,-0.35714 0,-0.35714 0.11904,0 0,0.23809 0,0.35714 0,0.11905 0.11904,0.35714 0,0.35714 -0.11905,0 -0.11905,-0.35714 0,-0.35714 0.11904,0 0,0.23809 0,0.35714 0,0.11905 0,0.2381 0,0.35714 0,0.83334 0,1.66667 0,2.5 0,0.11905 0,-0.47619 0,-0.35714 0,0.2381 0,0.47619 0,0.71429 0,0.11904 -0.11905,-0.35715 0,-0.35715 0.11904,0 0,0.2381 0,0.35715 0,0.11904 0.11904,0.35714 0,0.35714 -0.11905,0 -0.11905,-0.35714 0,-0.35714 0.11904,0 0,0.23809 0,0.35714 0,0.11905 0,0.2381 0,0.35714 0,0.11905 0.11904,0.35715 0,0.35715 -0.11905,0 0,-0.47619 0,-0.35715 0,0.2381 0,0.47619 0,0.71429 0,0.11905 -0.0842,-0.27297 0,-0.35714 0.0842,-0.0842 0.35714,-0.11905 0.35714,0 0,0.16835 -0.35714,0.18878 -0.35714,0.35714 0,0.16836 0.18878,0.35714 0.35714,0.35714 0.11905,0 0,-0.47619 0,-0.35714 0,0.23809 -0.16836,0.54593 0,0.71428 0.11905,0.11905 0.2381,-0.47619 0.35714,-0.35714 0.2381,2.02381 -0.11904,0.35714 0,0.35714 0.11905,0 0,0.2381 0,0.35715 0,0.11904 0.11905,0.35714 0,0.35714 -0.11904,0 -0.11904,-0.35714 0,-0.35714 0.11905,0 0,0.23809 0,0.35714 0,0.11905 0.11905,0.35714 0,0.35714 -0.11904,0 -0.11904,-0.35714 0,-0.35714 0.11905,0 0,0.2381 0,0.35714 0,0.11905 0.11905,0.35715 0,0.35715 -0.11904,0 -0.0842,-0.27297 0,-0.35715 0.0842,-0.0842 0.27297,-0.0842 0.35715,0 0.0842,0.0842 0,0.2381 0,0.35715 0,0.11904 0.11904,0.35714 0,0.35714 -0.11905,0 0,-0.47619 0,-0.35714 0,0.23809 0,0.47619 0,0.71428 0,0.11905 0.11904,0.35714 0,0.35714 -0.11905,0 0,-0.47619 0,-0.35714 0,2.34127 0,-1.26984 0,1.07143 0,0.11905 0,-0.47619 0,-0.35714 0,1.82974 0,1.39547 0,3.21428 0,0.11905 0.0842,-0.27296 0,-0.35714 -0.0842,-0.0842 -0.27297,-0.0842 -0.35715,0 -0.16836,0.16836 0.2381,0.71429 0,0.71429 -0.11904,0 0,-0.47619 0,-0.35715 0,0.2381 0,0.47619 0,0.71429 0,0.47619 0.11905,-1.30953 -0.35714,-0.35714 -0.10648,0.21295 0,0.47619 0,0.71428 0,0.11905 -0.11905,-0.35714 0,-0.35714 0.11905,0 0,0.23809 0,0.35714 0,0.11905 0.11905,0.35714 0,0.35714 -0.11905,0 -0.11905,-0.35714 0,-0.35714 0.11905,0 0,0.2381 0,0.35714 0,0.11905 0.11905,0.35715 0,0.35715 -0.11905,0 0.11905,-0.35715 0,-0.35715 -0.51103,0 -0.35714,0.80058 -0.35714,1.07143 0,0.47619 0.11904,-1.30952 -0.35715,-0.35714 -0.10647,0.21296 0,0.47619 0,0.71429 0,0.11904 0,-0.47619 0,-0.35715 0,0.2381 0,0.47619 0,0.71429 0,0.11905 0.0842,-0.27297 0,-0.35714 -0.21344,-0.21344 -0.71428,0.21767 -0.71428,0.35714 0,0.16836 0.18878,0.35714 0.35714,0.35714 0.11905,0 0,-0.47619 0,-0.35714 0,0.23809 0,0.47619 0,0.71428 0,0.11905 0.0842,-0.27296 0,-0.35714 -0.0842,-0.0842 -0.23809,0 -0.35714,0 -0.11905,0 -0.35714,-0.11905 -0.35714,0 0.14418,2.4808 0.47619,0.2381 0.35714,0.35714 -0.18823,0.18823 -0.16891,0.52606 -0.35714,0.71429 -0.0842,0.0842 0.0842,-0.27296 0,-0.35714 -0.0842,-0.0842 -0.35715,-0.11905 -0.35715,0 0,0.2662 0.16892,0.52605 0.35715,0.71428 0.0842,0.0842 0,-0.47619 0,-0.35714 0,0.2381 0,0.47619 0,0.71429 0,0.11904 0.0842,-0.27297 0,-0.35715 -0.0842,-0.0842 -0.2381,0 -0.35715,0 -0.11904,0 -0.35714,-0.11904 -0.35714,0 0,0.2662 0.16891,0.52606 0.35714,0.71429 0.0842,0.0842 0,-0.47619 0,-0.35714 0,0.23809 0,0.47619 0,0.71428 0,0.11905 0,-0.47619 0,-0.35714 0,0.23809 0,0.47619 0,0.71428 0,0.11905 0,-0.47619 0,-0.35714 0,2.34127 0,-1.26984 0,1.07143 0,0.11905 0,-0.2381 0,-0.35714 -0.11904,0 -0.31949,-0.11294 -0.35714,0 -0.11294,0.33881 0.11294,0.73261 0,1.07143 -0.0376,0.11293 -0.35714,-0.11905 -0.35714,0 0,1.2446 1.65047,-1.15809 0.35714,1.42857 -0.11905,0.23809 -0.59524,0.11904 -0.71429,0.35714 -0.43225,0.86451 0.7894,-0.15022 0.35715,0.71429 -0.19196,0.38391 -0.57855,0.66422 -0.71429,1.07142 -0.0376,0.11294 0.27297,-0.0842 0.35714,0 0.0842,0.0842 0,0.2381 0,0.35715 0,0.11904 0.0532,0.25066 0,0.35714 -0.27187,0.54376 -0.71428,0.20912 -0.71428,1.07143 0,0.16836 0.18878,-0.35714 0.35714,-0.35714 0.11905,0 0,0.23809 0,0.35714 0,2.34127 0,-1.26984 0,1.07143 0,0.11904 0,-0.47619 0,-0.35715 0,1.50217 0,0.88772 0,4.28572 0,0.11905 0,-0.47619 0,-0.35714 0,1.0106 0,0.70519 0,2.85714 0,0.47619 -0.11905,-1.30953 0.35714,-0.35714 0.10648,0.21295 0,0.47619 0,0.71428 0,0.11905 0,-0.47619 0,-0.35714 0,0.23809 0,0.47619 0,0.71428 0,0.11905 0,-0.47619 0,-0.35714 0,0.2381 -0.10647,0.50133 0,0.71429 0.0532,0.10648 0.27297,-0.0842 0.35715,0 0.0842,0.0842 0,0.23809 0,0.35714 0,0.2381 0,0.47619 0,0.71429 0,0.11904 -0.11905,-0.35715 0,-0.35715 0.11904,0 0,0.2381 0,0.35715 0,0.11904 0.11904,0.35714 0,0.35714 -0.11905,0 0,-0.47619 0,-0.35714 0,2.34127 0,-1.26985 0,1.07142 0,0.11905 0,-0.47619 0,-0.35714 0,1.40585 0,3.10322 0,5.71429 0,0.11904 0,0.23809 0,0.35714 0,0.11905 0.11904,0.35714 0,0.35714 -0.11905,0 0,-0.47619 0,-0.35714 0,0.15024 -0.0531,2.03662 0,2.14286 0.0753,0.15058 0.28185,0.20656 0.35714,0.35714 0.0543,0.10869 0,0.91059 0,1.07143 0,0.71428 0,1.42857 0,2.14286 0,0.18675 -0.0469,1.33466 0,1.42857 0.0753,0.15058 0.35714,0.18878 0.35714,0.35714 0,0.11905 -0.27296,-0.0842 -0.35714,0 -0.0842,0.0842 0,0.2381 0,0.35714 0,0.11905 0,0.2381 0,0.35715 0,0.98534 0,0.45839 0,1.78571 0,0.71429 0,1.42857 0,2.14286 0,0.11904 0.11905,0.35714 0,0.35714 -0.11905,0 0,-0.47619 0,-0.35714 0,0.23809 0,0.47619 0,0.71428 0,0.11905 0.11905,0.35715 0,0.35715 -0.11905,0 -0.11905,-0.35715 0,-0.35715 0.2381,0 -0.10648,0.50133 0,0.71429 0.0753,0.15058 0.18878,0.35714 0.35714,0.35714 0.11905,0 0,-0.47619 0,-0.35714 0,1.38077 0,1.46727 0,2.14286 0,0.11904 -0.11904,-0.35715 0,-0.35715 0.11905,0 0,0.2381 0,0.35715 0,0.11904 0,0.23809 0,0.35714 0,0.11905 0.11905,0.35714 0,0.35714 -0.11904,0 -0.11904,-0.35714 0,-0.35714 0.11905,0 0,0.23809 0,0.35714 0,0.11905 0,0.2381 0,0.35714 0,0.11905 0.11905,0.35715 0,0.35715 -0.11904,0 -0.11904,-0.35715 0,-0.35715 0.11905,0 0,0.2381 0,0.35715 0,0.11904 0,0.23809 0,0.35714 0,0.11905 0.11905,0.35714 0,0.35714 -0.11904,0 -0.11904,-0.35714 0,-0.35714 0.11905,0 0,0.2381 0,0.35714 0,0.11905 0,0.2381 0,0.35715 0,0.11904 0,0.23809 0,0.35714 0,0.11905 0.11905,0.35714 0,0.35714 -0.11904,0 0,-0.47619 0,-0.35714 0,0.23809 0,0.47619 0,0.71428 0,0.11905 0.11905,0.35715 0,0.35715 -0.11904,0 -0.11904,-0.35715 0,-0.35715 0.11905,0 0,0.2381 0,0.35715 0,0.11904 0,0.23809 0,0.35714 0,0.11905 0.11905,0.35714 0,0.35714 -0.11904,0 -0.11904,-0.35714 0,-0.35714 0.11905,0 0,0.2381 0,0.35714 0,0.11905 0,0.2381 0,0.35715 0,1.19047 0,-0.83334 0,0.35714 0,0.11905 0.11905,0.35714 0,0.35714 -0.11904,0 -0.11904,-0.35714 0,-0.35714 0.11905,0 0,0.23809 0,0.35714 0,0.11905 0,0.2381 0,0.35714 0,0.11905 0.11905,0.35715 0,0.35715 -0.16836,0 -0.18878,-0.35715 -0.35714,-0.35715 -0.11905,0 0,0.2381 0,0.35715 0,0.47761 0,0.23667 0,0.71428 0,0.11905 0.11905,0.35715 0,0.35715 -0.11905,0 -0.11905,-0.35715 0,-0.35715 0.11905,0 0,0.2381 0,0.35715 0,0.11904 0,0.23809 0,0.35714 0,1.19047 0,-0.83333 0,0.35714 0,0.11905 0.11905,0.35714 0,0.35714 -0.16836,0 -0.18878,-0.35714 -0.35714,-0.35714 -0.11905,0 0.11904,0.35714 0,0.35714 -0.11905,0 0,-0.47619 0,-0.35714 0,0.2381 0,0.47619 0,0.71429 0,0.11904 -0.11905,-0.35715 0,-0.35715 0.11904,0 0.10957,0.40369 0,0.35715 -0.80608,-0.3424 -1.51382,-0.88111 -2.27072,-1.32167"
       id="path908"
       inkscape:connector-curvature="0" />
  </g>
</svg>
