<?xml version="1.0" encoding="UTF-8" standalone="no"?>
<!-- Created with Inkscape (http://www.inkscape.org/) -->

<svg
   xmlns:dc="http://purl.org/dc/elements/1.1/"
   xmlns:cc="http://creativecommons.org/ns#"
   xmlns:rdf="http://www.w3.org/1999/02/22-rdf-syntax-ns#"
   xmlns:svg="http://www.w3.org/2000/svg"
   xmlns="http://www.w3.org/2000/svg"
   xmlns:sodipodi="http://sodipodi.sourceforge.net/DTD/sodipodi-0.dtd"
   xmlns:inkscape="http://www.inkscape.org/namespaces/inkscape"
   width="200"
   height="369"
   id="svg2"
   version="1.1"
   inkscape:version="0.92.2 5c3e80d, 2017-08-06"
   sodipodi:docname="muscle-20.svg">
  <defs
     id="defs4" />
  <sodipodi:namedview
     id="base"
     pagecolor="#ffffff"
     bordercolor="#666666"
     borderopacity="1.0"
     inkscape:pageopacity="0"
     inkscape:pageshadow="2"
     inkscape:zoom="2.8"
     inkscape:cx="122.12416"
     inkscape:cy="193.65278"
     inkscape:document-units="px"
     inkscape:current-layer="layer1"
     showgrid="false"
     fit-margin-top="0"
     fit-margin-left="0"
     fit-margin-right="0"
     fit-margin-bottom="0"
     inkscape:window-width="1280"
     inkscape:window-height="700"
     inkscape:window-x="0"
     inkscape:window-y="1"
     inkscape:window-maximized="1"
     height="524.41px" />
  <metadata
     id="metadata7">
    <rdf:RDF>
      <cc:Work
         rdf:about="">
        <dc:format>image/svg+xml</dc:format>
        <dc:type
           rdf:resource="http://purl.org/dc/dcmitype/StillImage" />
        <dc:title></dc:title>
      </cc:Work>
    </rdf:RDF>
  </metadata>
  <g
     inkscape:label="Ebene 1"
     inkscape:groupmode="layer"
     id="layer1"
     transform="translate(-395.71431,-316.50506)">
    <path
       style="fill:#e10000;stroke:none;stroke-width:1px;stroke-linecap:butt;stroke-linejoin:miter;stroke-opacity:1;fill-opacity:1;opacity:0.544"
       d="m 419.79326,486.92173 c -0.0501,0.95635 -0.10025,1.9127 -0.15038,2.86904 0,-0.11904 -0.11905,-0.35714 0,-0.35714 0.2662,0 0.52606,0.16891 0.71429,0.35714 0.0842,0.0842 -0.27297,-0.0842 -0.35715,0 -0.0842,0.0842 0.11905,0.35715 0,0.35715 -0.11904,0 -0.11904,-0.35715 0,-0.35715 0.16836,0 0.28186,0.20656 0.35715,0.35715 0.0532,0.10648 -0.11905,0.35714 0,0.35714 0.16836,0 0.18878,-0.35714 0.35714,-0.35714 0.23809,0 -0.23809,0.71428 0,0.71428 0.16836,0 0.18878,-0.35714 0.35714,-0.35714 0.11905,0 -0.10648,0.3039 0,0.35714 0.21296,0.10648 0.47619,0 0.71429,0 0.11905,0 -0.27296,-0.0842 -0.35714,0 -0.0842,0.0842 -0.11905,0.35714 0,0.35714 2.48079,-0.14418 0.23809,-0.47619 0.35714,-0.35714 0.18823,0.18823 0.52605,0.16891 0.71428,0.35714 0.0842,0.0842 -0.35714,0.11905 -0.35714,0 0,-0.11904 0.2381,0 0.35714,0 0.35715,0 0.71429,0 1.07143,0 0.11905,0 -0.35714,0.11905 -0.35714,0 0,-0.11904 0.27296,0.0842 0.35714,0 0.0842,-0.0842 -0.0842,-0.27296 0,-0.35714 0.0842,-0.0842 0.2381,0 0.35715,0 0.47619,0 0.95238,0 1.42857,0 0.11905,0 -0.35715,0.11905 -0.35715,0 0,-0.11905 0.27297,-0.0842 0.35715,0 0.0842,0.0842 0,0.2381 0,0.35714 0,0.11905 0,0.2381 0,0.35715 0,0.11905 0.11905,0.35714 0,0.35714 -0.11905,0 -0.11905,-0.35714 0,-0.35714 0.11905,0 0,0.23809 0,0.35714 0,0.11905 0.11905,0.35714 0,0.35714 -0.11905,0 -0.11905,-0.35714 0,-0.35714 0.16836,0 0.28185,0.20656 0.35714,0.35714 0.0532,0.10648 0.11905,0.35715 0,0.35715 -0.11905,0 -0.11905,-0.35715 0,-0.35715 0.11905,0 0,0.2381 0,0.35715 0,0.11904 0.11905,0.35714 0,0.35714 -0.11905,0 -0.11905,-0.35714 0,-0.35714 0.11905,0 0,0.23809 0,0.35714 0,0.11905 0.11905,0.35714 0,0.35714 -0.11905,0 -0.11905,-0.35714 0,-0.35714 0.11905,0 0,0.23809 0,0.35714 0,0.11905 0,0.2381 0,0.35714 0,1.19048 0,-0.83333 0,0.35715 0,0.95238 -0.11905,-0.11905 0.35714,0.35714 0.43982,0.43981 -1.08993,0.71429 0.71429,0.71429 0.16836,0 -0.18878,-0.35715 -0.35714,-0.35715 -0.11905,0 -0.0842,0.27297 0,0.35715 0.0357,0.0357 1.03571,0.0357 1.07142,0 0.0842,-0.0842 -0.0842,-0.27297 0,-0.35715 0.59524,-0.59523 0.35715,1.30953 0.35715,-0.71428 0,-0.11905 -0.0842,0.27296 0,0.35714 0.0842,0.0842 0.27296,0.0842 0.35714,0 0.16836,-0.16836 -0.23809,-0.71429 0,-0.71429 0.11905,0 -0.0842,0.27297 0,0.35715 0.0842,0.0842 0.27296,0.0842 0.35714,0 0.0946,-0.0946 -0.21083,-1.4931 0.35715,-0.35715 0.0532,0.10648 0,0.2381 0,0.35715 0,0.11905 0.11904,0.35714 0,0.35714 -0.11905,0 -0.0842,-0.27296 0,-0.35714 0.0842,-0.0842 0.23809,0 0.35714,0 0.11905,0 0.23809,0 0.35714,0 0.11905,0 0.35714,-0.11905 0.35714,0 0,0.11905 -0.27296,0.0842 -0.35714,0 -0.0842,-0.0842 0,-0.2381 0,-0.35715 0,-0.11904 -0.11905,-0.35714 0,-0.35714 0.2662,0 0.52606,0.16891 0.71429,0.35714 0.0842,0.0842 -0.27297,0.0842 -0.35715,0 -0.0842,-0.0842 0,-0.23809 0,-0.35714 0,-0.11905 -0.11904,-0.35714 0,-0.35714 0.16836,0 0.18879,0.35714 0.35715,0.35714 0.11905,0 0,-0.23809 0,-0.35714 0,-0.11905 0,-0.2381 0,-0.35714 0,-0.11905 -0.11905,-0.35715 0,-0.35715 0.11905,0 -0.0842,0.27297 0,0.35715 0.0842,0.0842 0.27296,0.0842 0.35714,0 0.16836,-0.16836 -0.16836,-0.54593 0,-0.71429 0.0842,-0.0842 0.27296,0.0842 0.35714,0 0.0842,-0.0842 -0.11905,-0.35714 0,-0.35714 0.11905,0 0.11905,0.35714 0,0.35714 -0.25,0 0.10715,-0.71429 0.35715,-0.71429 0.11904,0 0.11904,0.35715 0,0.35715 -0.11905,0 -0.0842,-0.27297 0,-0.35715 0.0842,-0.0842 0.27296,0.0842 0.35714,0 0.0842,-0.0842 -0.11905,-0.35714 0,-0.35714 0.11905,0 0.11905,0.35714 0,0.35714 -0.11905,0 -0.0842,-0.27296 0,-0.35714 0.0842,-0.0842 0.27296,0.0842 0.35714,0 0.0842,-0.0842 -0.11905,-0.35714 0,-0.35714 0.16836,0 0.18879,0.35714 0.35714,0.35714 0.2381,0 -0.23809,-0.71428 0,-0.71428 0.16836,0 0.18879,0.35714 0.35715,0.35714 0.23809,0 -0.2381,-0.71429 0,-0.71429 0.16836,0 0.18878,0.35715 0.35714,0.35715 0.23809,0 -0.23809,-0.71429 0,-0.71429 0.16836,0 0.18878,0.35714 0.35714,0.35714 0.2381,0 -0.23809,-0.71428 0,-0.71428 0.11905,0 -0.0842,0.27296 0,0.35714 0.0842,0.0842 0.27297,0.0842 0.35715,0 0.16836,-0.16836 -0.2381,-0.71429 0,-0.71429 0.11904,0 -0.0842,0.27297 0,0.35715 0.0842,0.0842 0.27296,0.0842 0.35714,0 0.16836,-0.16836 -0.10648,-0.50133 0,-0.71429 0.0753,-0.15058 0.18878,-0.35714 0.35714,-0.35714 0.11905,0 0.11905,0.35714 0,0.35714 -0.11905,0 0,-0.23809 0,-0.35714 0,-0.11905 -0.11905,-0.35714 0,-0.35714 0.11905,0 -0.0842,0.27296 0,0.35714 0.0842,0.0842 0.30391,0.10648 0.35714,0 0.10648,-0.21296 0,-0.47619 0,-0.71429 0,-0.11904 0.11905,0.35715 0,0.35715 -0.26619,0 0.0909,-0.71429 0.35715,-0.71429 0.11905,0 0,0.47619 0,0.35714 0,-0.23809 0,-0.47619 0,-0.71428 0,-0.11905 -0.11905,0.35714 0,0.35714 0.16836,0 0.28185,-0.20656 0.35714,-0.35714 0.10648,-0.21296 -0.16836,-0.54593 0,-0.71429 0.0842,-0.0842 0.27296,0.0842 0.35714,0 0.16836,-0.16836 -0.23809,-0.71428 0,-0.71428 0.16836,0 0.18879,0.35714 0.35715,0.35714 0.23809,0 -0.2381,-0.71429 0,-0.71429 0.11904,0 -0.0842,0.44133 0,0.35715 0.18823,-0.18823 0.16891,-0.52606 0.35714,-0.71429 0.0842,-0.0842 0,0.47619 0,0.35714 0,-0.23809 0,-0.47619 0,-0.71428 0,-0.11905 -0.11905,0.35714 0,0.35714 0.74317,0 0.1437,-0.50085 0.35714,-0.71429 0.0842,-0.0842 0.27297,0.0842 0.35714,0 0.0842,-0.0842 -0.0842,-0.27296 0,-0.35714 0.0842,-0.0842 0.35715,0.11905 0.35715,0 0,-0.16836 -0.47619,-0.23809 -0.35715,-0.35714 0.11905,-0.11905 0.18879,0.35714 0.35715,0.35714 0.11905,0 -0.0532,-0.25066 0,-0.35714 0.0753,-0.15059 0.18878,-0.35714 0.35714,-0.35714 0.11905,0 0.11905,0.35714 0,0.35714 -0.11905,0 0,-0.2381 0,-0.35714 0,-0.11905 -0.11905,-0.35715 0,-0.35715 0.16836,0 0.47619,0.2381 0.35714,0.35715 -0.11905,0.11904 -0.35714,-0.18879 -0.35714,-0.35715 0,-0.11904 0.27296,0.0842 0.35714,0 0.0842,-0.0842 -0.0842,-0.27296 0,-0.35714 0.0842,-0.0842 0.35715,-0.11905 0.35715,0 0,0.31206 -1.1845,-0.35714 0,-0.35714 0.11904,0 0.11904,0.35714 0,0.35714 -0.11905,0 -0.0842,-0.27296 0,-0.35714 0.0842,-0.0842 0.27296,0.0842 0.35714,0 0.0842,-0.0842 -0.11905,-0.35715 0,-0.35715 0.11905,0 -0.11905,0.35715 0,0.35715 0.74317,0 0.1437,-0.50085 0.35714,-0.71429 0.0842,-0.0842 0.27296,0.0842 0.35714,0 0.0842,-0.0842 -0.11904,-0.35714 0,-0.35714 0.50596,0 -1.0119,1.66667 0,-0.35714 0.0532,-0.10648 0.27297,0.0842 0.35715,0 0.21344,-0.21344 -0.38603,-0.71429 0.35714,-0.71429 0.11905,0 0.11905,0.35714 0,0.35714 -0.11905,0 0,-0.23809 0,-0.35714 0,-0.11905 -0.11905,-0.35714 0,-0.35714 0.16836,0 0.47619,0.23809 0.35714,0.35714 -0.11905,0.11905 -0.35714,-0.18878 -0.35714,-0.35714 0,-0.16836 0.18878,-0.35715 0.35714,-0.35715 0.11905,0 0.11905,0.35715 0,0.35715 -0.11905,0 -0.0532,-0.25067 0,-0.35715 0.0753,-0.15058 0.35715,-0.18878 0.35715,-0.35714 0,-0.5255 -1.1845,0.82735 0,-0.35714 0.11904,-0.11905 0.18878,-0.35714 0.35714,-0.35714 0.11905,0 0,0.47619 0,0.35714 0,-0.2381 -0.16836,-0.54593 0,-0.71429 0.11905,-0.11904 0.18878,0.35715 0.35714,0.35715 0.042,0 -0.0525,-1.01891 0,-1.07143 0.0842,-0.0842 0.27296,0.0842 0.35714,0 0.0842,-0.0842 -0.0532,-0.25067 0,-0.35715 0.0753,-0.15058 0.28186,-0.20655 0.35715,-0.35714 0.0532,-0.10648 -0.0842,-0.27296 0,-0.35714 0.0842,-0.0842 0.35714,-0.11905 0.35714,0 0,0.11905 -0.35714,0.11905 -0.35714,0 0,-0.16836 0.28185,-0.20656 0.35714,-0.35714 0.0532,-0.10648 -0.0842,-0.27297 0,-0.35715 0.0842,-0.0842 0.35714,-0.11904 0.35714,0 0,0.11905 -0.27296,0.0842 -0.35714,0 -0.0842,-0.0842 -0.0842,-0.27296 0,-0.35714 0.0842,-0.0842 0.27296,0.0842 0.35714,0 0.0842,-0.0842 -0.0842,-0.27296 0,-0.35714 0.0842,-0.0842 0.35715,0.11905 0.35715,0 0,-0.16836 -0.35715,-0.18879 -0.35715,-0.35715 0,-0.11904 0.27297,0.0842 0.35715,0 0.16836,-0.16835 -0.16836,-0.54592 0,-0.71428 0.0842,-0.0842 0.27296,0.0842 0.35714,0 0.16836,-0.16836 -0.10648,-0.50133 0,-0.71429 0.0753,-0.15058 0.35714,-0.18878 0.35714,-0.35714 0,-0.11905 -0.35714,0.11905 -0.35714,0 0,-0.16836 0.28185,-0.20656 0.35714,-0.35714 0.10648,-0.21296 -0.16836,-0.54593 0,-0.71429 0.0842,-0.0842 0.35715,-0.11905 0.35715,0 0,0.11905 -0.35715,0.11905 -0.35715,0 0,-0.11905 0.27296,0.0842 0.35715,0 0.2388,-0.2388 -0.23881,-0.47548 0,-0.71428 0.0842,-0.0842 0.35714,0.11904 0.35714,0 0,-0.2662 -0.16891,-0.52606 -0.35714,-0.71429 -0.0842,-0.0842 -0.11905,0.35714 0,0.35714 0.16835,0 0.28185,-0.20655 0.35714,-0.35714 0.0532,-0.10648 -0.0842,-0.27296 0,-0.35714 0.59523,-0.59524 0.35714,1.30952 0.35714,-0.71429 0,-0.11905 -0.11905,0.35714 0,0.35714 0.81887,0 0,-1.06886 0,-1.07142 0,-0.16836 0.23809,0.47619 0.35714,0.35714 0.16836,-0.16836 -0.16836,-0.54593 0,-0.71429 1.1845,-1.18449 0,1.50677 0,0.35715 0,-0.33672 0.71429,-0.37757 0.71429,-0.71429 0,-0.11905 -0.35714,0.11905 -0.35714,0 0,-0.2662 0.16891,-0.52605 0.35714,-0.71429 0.0842,-0.0842 0,0.4762 0,0.35715 0,-0.2381 0,-0.47619 0,-0.71429 0,-0.11905 -0.0842,0.27297 0,0.35714 0.0842,0.0842 0.35714,-0.11904 0.35714,0 0,0.11905 -0.35714,0.11905 -0.35714,0 0,-0.26619 0.16891,-0.52605 0.35714,-0.71428 0.0842,-0.0842 0.11905,0.35714 0,0.35714 -0.47619,0 0.35714,-0.83333 0.35714,-0.35714 0,0.11905 -0.35714,0.11905 -0.35714,0 0,-0.16836 0.30391,-0.19742 0.35714,-0.35714 0.0753,-0.22588 -0.16835,-0.54593 0,-0.71429 0.11905,-0.11905 0.35715,0.18878 0.35715,0.35714 0,0.11905 -0.35715,0.11905 -0.35715,0 0,-0.2662 0.16892,-0.52605 0.35715,-0.71428 0.0842,-0.0842 0,0.47619 0,0.35714 0,-2.11491 0.35714,1.04348 0.35714,-1.07143 0,-0.11905 -0.0842,0.27297 0,0.35714 0.0842,0.0842 0.35714,-0.11904 0.35714,0 0,0.11905 -0.3039,0.10648 -0.35714,0 -0.10648,-0.21295 -0.16836,-0.54592 0,-0.71428 0.11905,-0.11905 0.23809,0.47619 0.35714,0.35714 0.16836,-0.16836 -0.16836,-0.54593 0,-0.71428 0.11905,-0.11905 0.35715,0.18878 0.35715,0.35714 0,0.11905 -0.30391,0.10648 -0.35715,0 -0.10648,-0.21296 -0.16836,-0.54593 0,-0.71429 0.11905,-0.11904 0.18879,0.35715 0.35715,0.35715 0.11904,0 -0.0532,-0.25067 0,-0.35715 0.0753,-0.15058 0.23809,-0.47619 0.35714,-0.35714 0.13675,0.13675 -1.51096,1.15382 0,-0.35714 0.0842,-0.0842 -0.0842,0.27296 0,0.35714 0.0842,0.0842 0.35714,0.11905 0.35714,0 0,-0.2662 -0.16891,-0.52605 -0.35714,-0.71429 -0.15873,-0.15873 0.0397,0.99207 0.35714,0.35715 0.10648,-0.21296 0,-0.47619 0,-0.71429 0,-0.11905 -0.0842,0.27297 0,0.35714 0.0842,0.0842 0.35715,0.11905 0.35715,0 0,-0.26619 -0.16892,-0.52605 -0.35715,-0.71428 -0.15873,-0.15873 0.0397,0.99206 0.35715,0.35714 0.10647,-0.21296 0,-0.47619 0,-0.71428 0,-0.11905 0,0.23809 0,0.35714 0.11904,0 0.35714,0.11905 0.35714,0 0,-0.2662 -0.16891,-0.52606 -0.35714,-0.71429 -0.15874,-0.15873 0.0397,0.99207 0.35714,0.35715 0.10648,-0.21296 0,-0.47619 0,-0.71429 0,-0.11905 0.11905,0.35714 0,0.35714 -0.11905,0 -0.0532,-0.25066 0,-0.35714 0.0753,-0.15058 0.35714,-0.18878 0.35714,-0.35714 0,-0.11905 -0.27296,0.0842 -0.35714,0 -0.0842,-0.0842 -0.11905,-0.35715 0,-0.35715 0.16836,0 0.18878,0.35715 0.35714,0.35715 0.23809,0 -0.23809,-0.71429 0,-0.71429 0.11905,0 -0.0842,0.44132 0,0.35714 0.18823,-0.18823 0.35714,-0.44808 0.35714,-0.71428 0,-0.16836 -0.18878,0.35714 -0.35714,0.35714 -0.11905,0 -0.0842,-0.27296 0,-0.35714 0.47619,-0.47619 0.35714,0.59524 0.35714,-0.35714 0,-0.11905 -0.11905,-0.35715 0,-0.35715 0.11905,0 0,0.2381 0,0.35715 0,-0.2381 -0.16836,-0.54593 0,-0.71429 0.64256,-0.64255 0.38321,1.12356 0,0.35714 -0.10648,-0.21296 -0.16836,-0.54592 0,-0.71428 0.11905,-0.11905 0.2381,0.47619 0.35715,0.35714 0.16836,-0.16836 0,-0.47619 0,-0.71429 0,-0.11904 -0.0842,0.44133 0,0.35715 0.18823,-0.18823 0.35714,-0.44809 0.35714,-0.71429 0,-0.16836 -0.18878,0.35714 -0.35714,0.35714 -0.11905,0 -0.0842,-0.27296 0,-0.35714 0.0842,-0.0842 0.27296,0.0842 0.35714,0 0.0842,-0.0842 -0.11905,-0.35714 0,-0.35714 0.11905,0 0.11905,0.35714 0,0.35714 -0.0986,0 0.0553,-1.01613 0.35714,-0.71428 0.11905,0.11904 -0.23809,0.47619 -0.35714,0.35714 -0.11905,-0.11905 0.28185,-0.20656 0.35714,-0.35714 0.0532,-0.10648 -0.11905,-0.35715 0,-0.35715 0.11905,0 0.11905,0.35715 0,0.35715 -0.11905,0 0,-0.2381 0,-0.35715 0,-0.11904 -0.0842,-0.27296 0,-0.35714 0.0842,-0.0842 0.35714,0.11905 0.35714,0 0,-0.16836 -0.18878,-0.35714 -0.35714,-0.35714 -0.11905,0 -0.0842,0.27296 0,0.35714 0.0842,0.0842 0.27296,0.0842 0.35714,0 0.16836,-0.16836 -0.23809,-0.71429 0,-0.71429 0.11905,0 0.11905,0.35715 0,0.35715 -0.11904,0 0,-0.2381 0,-0.35715 0,-0.11904 -0.11904,-0.35714 0,-0.35714 0.16836,0 0.35715,0.18879 0.35715,0.35714 0,0.11905 -0.27297,0.0842 -0.35715,0 -0.21344,-0.21343 0.21767,-0.71428 0.35715,-0.71428 0.11905,0 0.11905,0.35714 0,0.35714 -0.11905,0 0,-0.23809 0,-0.35714 0,-0.11905 -0.11905,-0.35714 0,-0.35714 0.11905,0 -0.11905,0.35714 0,0.35714 0.16836,0 0.35714,-0.18879 0.35714,-0.35714 0,-1.1845 -0.6692,0 -0.35714,0 0.16836,0 0.28185,-0.20656 0.35714,-0.35715 0.0532,-0.10648 -0.11905,-0.35714 0,-0.35714 0.11905,0 0.11905,0.35714 0,0.35714 -0.11905,0 0,-0.23809 0,-0.35714 0,-0.11905 -0.11905,-0.35714 0,-0.35714 0.11905,0 -0.0842,0.27296 0,0.35714 0.0842,0.0842 0.35714,0.11905 0.35714,0 0,-0.16836 -0.28185,-0.20656 -0.35714,-0.35714 -0.31746,-0.63492 0.19841,-0.19842 0.35714,-0.35715 0.0842,-0.0842 0,-0.23809 0,-0.35714 0,-0.11905 0,-0.23809 0,-0.35714 0,-0.11905 -0.11905,-0.35714 0,-0.35714 0.11905,0 0.0842,0.27296 0,0.35714 -0.21279,0.21279 -1.07142,-0.35645 -1.07142,0.35714 0,0.11905 0.27296,-0.0842 0.35714,0 0.11905,0.11905 0.11905,0.2381 0,0.35714 -0.16836,0.16836 -0.71429,-0.23809 -0.71429,0 0,0.16836 0.18879,0.35715 0.35715,0.35715 0.11904,0 -0.11905,-0.35715 0,-0.35715 0.11904,0 0.0532,0.25067 0,0.35715 -0.0753,0.15058 -0.18879,0.35714 -0.35715,0.35714 -0.16836,0 -0.35714,-0.18878 -0.35714,-0.35714 0,-0.11905 0.27296,-0.0842 0.35714,0 0.071,0.071 0.0753,1.07143 -0.35714,1.07143 -0.16836,0 -0.35714,-0.18879 -0.35714,-0.35715 0,-0.11904 0.27296,-0.0842 0.35714,0 0.0842,0.0842 0,0.2381 0,0.35715 0,0.11904 0.11905,0.35714 0,0.35714 -0.11905,0 0.10648,-0.3039 0,-0.35714 -0.21296,-0.10648 -0.47619,0 -0.71429,0 -0.11905,0 0.30391,-0.10648 0.35715,0 0.10647,0.21295 0,0.47619 0,0.71428 0,0.11905 0.10647,-0.3039 0,-0.35714 -0.21296,-0.10648 -0.4762,0 -0.71429,0 -0.11905,0 0.3039,-0.10648 0.35714,0 0.10648,0.21296 0,0.47619 0,0.71428 0,0.11905 0.10648,-0.3039 0,-0.35714 -0.21296,-0.10648 -0.47619,0 -0.71428,0 -0.11905,0 0.3039,-0.10648 0.35714,0 0.10648,0.21296 0,0.47619 0,0.71429 0,0.11905 0.10648,-0.30391 0,-0.35715 -0.21296,-0.10647 -0.47619,0 -0.71428,0 -0.11905,0 0.27296,-0.0842 0.35714,0 0.0842,0.0842 0.0532,0.25067 0,0.35715 -0.0753,0.15058 -0.18879,0.35714 -0.35714,0.35714 -0.16836,0 -0.35715,-0.18878 -0.35715,-0.35714 0,-0.11905 0.35715,-0.11905 0.35715,0 0,0.11905 -0.25067,-0.0532 -0.35715,0 -0.15058,0.0753 -0.35714,0.18878 -0.35714,0.35714 0,0.74317 0.6692,0.31206 0.35714,0 -0.36409,-0.36409 -1.21336,0.71429 -0.35714,0.71429 0.11905,0 0.0842,-0.27297 0,-0.35715 -0.0842,-0.0842 -0.2381,0 -0.35714,0 -0.11905,0 -0.35715,-0.11904 -0.35715,0 0,0.16836 0.28185,0.20656 0.35715,0.35715 0.0532,0.10648 0.11904,0.35714 0,0.35714 -0.16836,0 -0.20656,-0.28185 -0.35715,-0.35714 -0.10648,-0.0532 -0.35714,-0.11905 -0.35714,0 0,0.16835 0.28185,0.20655 0.35714,0.35714 0.0532,0.10648 0.11905,0.35714 0,0.35714 -0.16836,0 -0.20655,-0.28185 -0.35714,-0.35714 -0.10648,-0.0532 -0.35714,-0.11905 -0.35714,0 0,0.16836 0.28185,0.20656 0.35714,0.35714 0.0532,0.10648 0.11905,0.35714 0,0.35714 -0.16836,0 -0.20656,-0.28185 -0.35714,-0.35714 -0.10648,-0.0532 -0.35714,-0.11905 -0.35714,0 0,0.16836 0.35714,0.18879 0.35714,0.35714 0,0.4762 -0.71429,0.4762 -0.71429,0 0,-0.11904 0.27297,-0.0842 0.35715,0 0.27376,0.27377 -0.28445,0.71429 -0.71429,0.71429 -0.16836,0 0.18878,-0.35714 0.35714,-0.35714 0.11905,0 0.0842,0.27296 0,0.35714 -0.0842,0.0842 -0.27296,-0.0842 -0.35714,0 -0.0842,0.0842 0.11905,0.35714 0,0.35714 -1.1845,0 0,-0.6692 0,-0.35714 0,0.11905 -0.25067,-0.0532 -0.35714,0 -0.15059,0.0753 -0.35715,0.18878 -0.35715,0.35714 0,0.11905 0.35715,-0.11904 0.35715,0 0,0.2662 -0.71429,-0.0909 -0.71429,-0.35714 0,-0.11905 0.27296,0.0842 0.35714,0 0.16836,-0.16836 -0.23809,-0.71429 0,-0.71429 0.11905,0 0.11905,0.35715 0,0.35715 -0.11905,0 0,-0.2381 0,-0.35715 0,-0.11904 0,-0.23809 0,-0.35714 0,-1.19047 0,0.83334 0,-0.35714 0,-0.11905 -0.11905,-0.35714 0,-0.35714 0.11905,0 0,0.47619 0,0.35714 0,-0.35714 0,-0.71429 0,-1.07143 0,-0.11905 -0.11905,-0.35714 0,-0.35714 0.11905,0 0.11905,0.35714 0,0.35714 -0.16836,0 -0.20655,-0.28185 -0.35714,-0.35714 -0.10648,-0.0532 -0.35714,0.11905 -0.35714,0 0,-0.16836 0.18878,-0.35715 0.35714,-0.35715 0.11905,0 0.11905,0.35715 0,0.35715 -0.16836,0 -0.20656,-0.28185 -0.35714,-0.35715 -0.10648,-0.0532 -0.27297,0.0842 -0.35714,0 -0.0842,-0.0842 -0.11905,-0.35714 0,-0.35714 0.31206,0 -0.35715,1.1845 -0.35715,0 0,-0.11905 0.27296,0.0842 0.35715,0 0.0842,-0.0842 0.0842,-0.27296 0,-0.35714 -0.16836,-0.16836 -0.71429,0.23809 -0.71429,0 0,-0.11905 0.27296,0.0842 0.35714,0 0.0842,-0.0842 0.0842,-0.27296 0,-0.35714 -0.16836,-0.16836 -0.71428,0.23809 -0.71428,0 0,-0.16836 0.35714,-0.18879 0.35714,-0.35715 0,-0.23809 -0.71429,0.2381 -0.71429,0 0,-0.11904 0.35715,-0.11904 0.35715,0 0,0.11905 -0.27297,0.0842 -0.35715,0 -0.0842,-0.0842 0.0842,-0.27296 0,-0.35714 -0.0842,-0.0842 -0.35714,0.11905 -0.35714,0 0,-0.11905 0.35714,-0.11905 0.35714,0 0,0.11905 -0.23809,0 -0.35714,0 -0.11905,0 -0.35714,0.11905 -0.35714,0 0,-0.11905 0.35714,-0.11905 0.35714,0 0,0.11905 -0.23809,0 -0.35714,0 -0.11905,0 -0.35715,0.11905 -0.35715,0 0,-0.11905 0.35715,-0.11905 0.35715,0 0,0.11905 -0.2381,0 -0.35715,0 -0.11904,0 -0.35714,0.11905 -0.35714,0 0,-0.11905 0.35714,-0.11905 0.35714,0 0,0.11905 -0.23809,0 -0.35714,0 -0.11905,0 -0.35714,0.11905 -0.35714,0 0,-0.11905 0.35714,-0.11905 0.35714,0 0,0.11905 -0.23809,0 -0.35714,0 -0.11905,0 -0.35714,0.11905 -0.35714,0 0,-0.11905 0.35714,-0.11905 0.35714,0 0,0.11905 -0.2381,0 -0.35714,0 -0.11905,0 -0.2381,0 -0.35715,0 -0.11905,0 -0.35714,0.11905 -0.35714,0 0,-0.11905 0.35714,-0.11905 0.35714,0 0,0.11905 -0.23809,0 -0.35714,0 -0.11905,0 -0.35714,0.11905 -0.35714,0 0,-0.11905 0.27296,0.0842 0.35714,0 0.0842,-0.0842 0.0842,-0.27296 0,-0.35714 -0.95238,0 0.11905,0.11905 -0.35714,-0.35715 -0.0842,-0.0842 -0.35715,0.11905 -0.35715,0 0,-0.11904 0.27297,0.0842 0.35715,0 0.0842,-0.0842 0,-0.23809 0,-0.35714 0,-0.11905 0,-0.23809 0,-0.35714 0,-0.11905 0,-0.2381 0,-0.35714 0,-0.11905 -0.11905,-0.35715 0,-0.35715 0.11905,0 0.11905,0.35715 0,0.35715 -0.11905,0 0,-0.2381 0,-0.35715 0,-0.47619 0,-0.95238 0,-1.42857 0,-0.83333 0,-1.66666 0,-2.5 0,-0.11905 0.0842,-0.27296 0,-0.35714 -0.0842,-0.0842 -0.27297,0.0842 -0.35715,0 -0.0842,-0.0842 0.0842,-0.27296 0,-0.35714 -0.0842,-0.0842 -0.35714,0.11904 -0.35714,0 0,-0.16836 0.35714,-0.18879 0.35714,-0.35715 0,-0.11904 -0.27296,-0.0842 -0.35714,0 -0.0842,0.0842 0.11905,0.35715 0,0.35715 -0.11905,0 0,-0.2381 0,-0.35715 0,-0.11904 0,-0.23809 0,-0.35714 0,-0.11905 0,-0.23809 0,-0.35714 0,-0.11905 0.0842,-0.27297 0,-0.35715 -0.0842,-0.0842 -0.35714,0.11905 -0.35714,0 0,-1.62581 0.83756,0.48043 0,-0.35714 -0.0842,-0.0842 0.0842,-0.27296 0,-0.35714 -0.0842,-0.0842 -0.35714,0.11905 -0.35714,0 0,-0.11905 0.35714,-0.11905 0.35714,0 0,0.11905 -0.2381,0 -0.35714,0 -0.11905,0 -0.2381,0 -0.35715,0 -0.11905,0 -0.35714,0.11905 -0.35714,0 0,-0.11905 0.35714,-0.11905 0.35714,0 0,0.13551 -1.07143,-0.2736 -1.07143,0.35714 0,0.11905 0.35715,-0.11905 0.35715,0 0,0.11905 -0.27297,-0.0842 -0.35715,0 -0.0842,0.0842 0.0842,0.27297 0,0.35714 -0.0842,0.0842 -0.35714,0.11905 -0.35714,0 0,-0.11904 0.35714,-0.11904 0.35714,0 0,0.16836 -0.20655,0.28186 -0.35714,0.35715 -0.21296,0.10648 -0.54593,-0.16836 -0.71428,0 -0.0842,0.0842 0.0842,0.27296 0,0.35714 -0.0842,0.0842 -0.27297,-0.0842 -0.35715,0 -0.0525,0.0525 0.042,1.07143 0,1.07143 -0.11905,0 -0.11905,-0.35714 0,-0.35714 0.11905,0 0.0842,0.27296 0,0.35714 -0.0842,0.0842 -0.35714,-0.11905 -0.35714,0 0,0.16836 0.18878,0.35714 0.35714,0.35714 0.11905,0 -0.11905,-0.35714 0,-0.35714 0.11905,0 0.0842,0.27296 0,0.35714 -0.0842,0.0842 -0.27296,-0.0842 -0.35714,0 -0.0842,0.0842 0.0842,0.27297 0,0.35714 -0.0842,0.0842 -0.27296,-0.0842 -0.35714,0 -0.0842,0.0842 0.0842,0.27297 0,0.35715 -0.0842,0.0842 -0.35715,0.11905 -0.35715,0 0,-0.11905 0.27297,-0.0842 0.35715,0 0.0842,0.0842 0.0842,0.27296 0,0.35714 -0.0842,0.0842 -0.27297,-0.0842 -0.35715,0 -0.0842,0.0842 0.0842,0.27296 0,0.35714 -0.0842,0.0842 -0.35714,0.11905 -0.35714,0 0,-0.11904 0.35714,-0.11904 0.35714,0 0,0.16836 -0.20655,0.28185 -0.35714,0.35715 -0.10648,0.0532 -0.35714,-0.11905 -0.35714,0 0,0.16835 0.35714,0.18878 0.35714,0.35714 0,0.11905 -0.27296,-0.0842 -0.35714,0 -0.0842,0.0842 0.0842,0.27296 0,0.35714 -0.0842,0.0842 -0.35714,-0.11905 -0.35714,0 0,0.16836 0.18878,0.35714 0.35714,0.35714 0.11905,0 0.11905,-0.35714 0,-0.35714 -0.74317,0 -0.1437,0.50085 -0.35714,0.71429 -0.0842,0.0842 -0.35715,0.11905 -0.35715,0 0,-0.47619 0.83334,0.35714 0.35715,0.35714 -0.11905,0 0.11904,-0.35714 0,-0.35714 -0.74318,0 -0.14371,0.50084 -0.35715,0.71428 -0.0842,0.0842 -0.35714,0.11905 -0.35714,0 0,-0.47619 0.83333,0.35715 0.35714,0.35715 -0.11905,0 0.0842,-0.27297 0,-0.35715 -0.0842,-0.0842 -0.27296,-0.0842 -0.35714,0 -0.16836,0.16836 0.16836,0.54593 0,0.71429 -0.0842,0.0842 -0.35714,0.11905 -0.35714,0 0,-0.47619 0.83333,0.35714 0.35714,0.35714 -0.11905,0 0.0842,-0.27296 0,-0.35714 -0.0842,-0.0842 -0.27296,-0.0842 -0.35714,0 -0.16836,0.16836 0.16836,0.54593 0,0.71428 -0.0842,0.0842 -0.35715,-0.11904 -0.35715,0 0,0.16836 0.18879,0.35715 0.35715,0.35715 0.11905,0 -0.11905,-0.35715 0,-0.35715 0.11905,0 0.0842,0.27297 0,0.35715 -0.0842,0.0842 -0.27297,-0.0842 -0.35715,0 -0.16835,0.16836 0.2381,0.71428 0,0.71428 -0.16835,0 -0.47619,-0.23809 -0.35714,-0.35714 0.30185,-0.30185 0.45577,0.71429 0.35714,0.71429 -0.16835,0 -0.18878,-0.35715 -0.35714,-0.35715 -0.11905,0 0,0.2381 0,0.35715 0,0.11904 0,0.23809 0,0.35714 0,0.11905 0.11905,0.35714 0,0.35714 -0.11905,0 -0.11905,-0.35714 0,-0.35714 0.11905,0 0.0842,0.27296 0,0.35714 -0.0842,0.0842 -0.35714,0.11905 -0.35714,0 0,-0.47619 0.83333,0.35714 0.35714,0.35714 -0.11905,0 0,-0.23809 0,-0.35714 -0.11905,0.2381 -0.16891,0.52606 -0.35714,0.71429 -0.0842,0.0842 0,-0.47619 0,-0.35715 0,2.34127 0,-1.26984 0,1.07143 0,0.11905 0.11905,-0.35714 0,-0.35714 -0.16836,0 -0.35714,0.18878 -0.35714,0.35714 0,0.11905 0.27296,-0.0842 0.35714,0 0.0842,0.0842 0.0842,0.27297 0,0.35715 -0.0842,0.0842 -0.27297,-0.0842 -0.35714,0 -0.16836,0.16835 0.23809,0.71428 0,0.71428 -0.16836,0 -0.18879,-0.35714 -0.35715,-0.35714 -0.11905,0 0,0.23809 0,0.35714 0,0.11905 0.11905,0.35714 0,0.35714 -0.11905,0 -0.11905,-0.35714 0,-0.35714 0.11905,0 0,0.2381 0,0.35714 0,0.11905 0.0842,0.27297 0,0.35715 -0.0842,0.0842 -0.27296,-0.0842 -0.35714,0 -0.16836,0.16836 0.16836,0.54592 0,0.71428 -0.0842,0.0842 -0.27296,-0.0842 -0.35714,0 -0.16836,0.16836 0.23809,0.71429 0,0.71429 -0.16836,0 -0.18879,-0.35714 -0.35715,-0.35714 -0.23809,0 0.16836,0.54592 0,0.71428 -0.0842,0.0842 -0.27296,-0.0842 -0.35714,0 -0.0525,0.0525 0.042,1.07143 0,1.07143 -0.16836,0 -0.18878,-0.35714 -0.35714,-0.35714 -0.11905,0 0,0.23809 0,0.35714 0,0.11905 0,0.2381 0,0.35714 0,0.11905 0.11905,0.35715 0,0.35715 -0.11905,0 0.11905,-0.35715 0,-0.35715 -0.50716,0 -0.35714,0.81751 -0.35714,1.07143 0,0.11905 0.11904,0.35714 0,0.35714 -0.11905,0 -0.11905,-0.35714 0,-0.35714 0.11904,0 0,0.2381 0,0.35714 0,0.11905 0.0842,0.27297 0,0.35715 -0.0842,0.0842 -0.27297,-0.0842 -0.35715,0 -0.0525,0.0525 0.042,1.07143 0,1.07143 -0.11905,0 -0.11905,-0.35715 0,-0.35715 0.11905,0 0,0.2381 0,0.35715 0,0.11904 0.11905,0.35714 0,0.35714 -0.11905,0 -0.11905,-0.35714 0,-0.35714 0.11905,0 0,0.23809 0,0.35714 0,0.11905 0.11905,0.35714 0,0.35714 -0.11905,0 0.0842,-0.27296 0,-0.35714 -0.0842,-0.0842 -0.27296,-0.0842 -0.35714,0 -0.0855,0.0855 0.0812,1.42857 0,1.42857 -0.10672,0 0.2351,-1.18449 -0.35714,0 -0.10648,0.21296 0.23809,0.71429 0,0.71429 -0.16836,0 -0.18879,-0.35715 -0.35715,-0.35715 -0.23809,0 0.2381,0.71429 0,0.71429 -0.11904,0 -0.11904,-0.35714 0,-0.35714 0.11905,0 0,0.23809 0,0.35714 0,0.11905 0.11905,0.35714 0,0.35714 -0.16835,0 -0.18878,-0.35714 -0.35714,-0.35714 -0.23809,0 0.2381,0.71428 0,0.71428 -0.11905,0 -0.11905,-0.35714 0,-0.35714 0.11905,0 0,0.2381 0,0.35714 0,0.11905 0.11905,0.35715 0,0.35715 -0.16836,0 -0.18878,-0.35715 -0.35714,-0.35715 -0.2381,0 0.10648,0.50133 0,0.71429 -0.0753,0.15059 -0.2381,0.47619 -0.35714,0.35714 -0.11905,-0.11904 0.35714,-0.18878 0.35714,-0.35714 0,-0.11905 -0.27297,-0.0842 -0.35714,0 -0.0525,0.0525 0.042,1.07143 0,1.07143 -0.16836,0 -0.18879,-0.35714 -0.35715,-0.35714 -0.11905,0 0,0.23809 0,0.35714 0,1.19048 0,-0.83333 0,0.35714 0,0.11905 0.11905,0.35714 0,0.35714 -0.11905,0 -0.11905,-0.35714 0,-0.35714 0.2334,0 -0.12375,0.71429 -0.35714,0.71429 -0.11905,0 -0.11905,-0.35715 0,-0.35715 0.11905,0 0,0.2381 0,0.35715 0,0.11905 0.11905,0.35714 0,0.35714 -0.11905,0 -0.11905,-0.35714 0,-0.35714 0.11905,0 0,0.23809 0,0.35714 0,0.11905 0.11905,0.35714 0,0.35714 -0.11905,0 -0.11905,-0.35714 0,-0.35714 0.11905,0 0,0.2381 0,0.35714 0,0.11905 0.11905,0.35715 0,0.35715 -0.11905,0 0.11905,-0.35715 0,-0.35715 -0.44132,0 -0.35714,0.50085 -0.35714,0.71429 0,0.11905 0,0.23809 0,0.35714 0,0.11905 0.11904,0.35714 0,0.35714 -0.11905,0 -0.11905,-0.35714 0,-0.35714 0.11904,0 0,0.2381 0,0.35714 0,0.11905 0.11904,0.35715 0,0.35715 -0.10672,0 0.2351,-1.1845 -0.35715,0 -0.0532,0.10648 0.11905,0.35714 0,0.35714 -0.11904,0 -0.11904,-0.35714 0,-0.35714 0.11905,0 0,0.23809 0,0.35714 0,0.11905 0,0.2381 0,0.35714 0,0.11905 0.11905,0.35715 0,0.35715 -0.11904,0 -0.11904,-0.35715 0,-0.35715 0.11905,0 0,0.2381 0,0.35715 0,0.11904 0.11905,0.35714 0,0.35714 -0.11904,0 0.0842,-0.27296 0,-0.35714 -0.0842,-0.0842 -0.3039,-0.10648 -0.35714,0 -0.10648,0.21296 0,0.47619 0,0.71428 0,0.11905 0,-0.47619 0,-0.35714 0,2.34127 0,-1.26984 0,1.07143 0,0.11905 0,-0.47619 0,-0.35715 0,0.2381 0.16836,0.54593 0,0.71429 -0.11905,0.11905 -0.23809,-0.47619 -0.35714,-0.35714 -0.16836,0.16836 0,0.47619 0,0.71428 0,0.11905 0,-0.47619 0,-0.35714 0,2.34127 0,-1.26984 0,1.07143 0,0.11905 0,-0.47619 0,-0.35714 0,0.23809 0.16836,0.54592 0,0.71428 -0.11905,0.11905 -0.2381,-0.47619 -0.35714,-0.35714 -0.16836,0.16836 0,0.47619 0,0.71428 0,0.11905 0,-0.47619 0,-0.35714 0,0.2381 0,0.47619 0,0.71429 0,0.11905 -0.11905,-0.35715 0,-0.35715 0.11904,0 0,0.2381 0,0.35715 0,0.11905 0.11904,0.35714 0,0.35714 -0.11905,0 -0.11905,-0.35714 0,-0.35714 0.11904,0 0.0842,0.27296 0,0.35714 -0.0842,0.0842 -0.27297,-0.0842 -0.35715,0 -0.0525,0.0525 0.042,1.07143 0,1.07143 -0.11905,0 0.0842,-0.27296 0,-0.35714 -0.0842,-0.0842 -0.27296,-0.0842 -0.35714,0 -0.0525,0.0525 0.042,1.07142 0,1.07142 -0.16836,0 -0.20656,-0.28185 -0.35714,-0.35714 -0.10648,-0.0532 -0.35715,-0.11905 -0.35715,0 0,0.16836 0.28185,0.20656 0.35715,0.35714 0.0532,0.10648 0.11904,0.35715 0,0.35715 -0.16836,0 -0.18879,-0.35715 -0.35715,-0.35715 -0.16835,0 -0.35714,0.18879 -0.35714,0.35715 0,0.16836 0.18879,0.35714 0.35714,0.35714 0.11905,0 0,-0.47619 0,-0.35714 0,0.23809 0,0.47619 0,0.71428 0,0.11905 0.0842,-0.27296 0,-0.35714 -0.0842,-0.0842 -0.23809,0 -0.35714,0 -0.11905,0 -0.35714,-0.11905 -0.35714,0 0,0.2662 0.16891,0.52606 0.35714,0.71429 0.0842,0.0842 0,-0.47619 0,-0.35715 0,0.2381 0.16836,0.54593 0,0.71429 -0.11905,0.11905 -0.20656,-0.28185 -0.35714,-0.35714 -0.10648,-0.0532 -0.35714,-0.11905 -0.35714,0 0,0.26619 0.16891,0.52605 0.35714,0.71428 0.0842,0.0842 0,-0.47619 0,-0.35714 0,0.23809 0.16836,0.54593 0,0.71428 -0.11905,0.11905 -0.20656,-0.28185 -0.35714,-0.35714 -0.10648,-0.0532 -0.35715,-0.11905 -0.35715,0 0,0.16836 0.28185,0.20656 0.35715,0.35714 0.0532,0.10648 0,0.2381 0,0.35715 0,0.11905 0.11904,0.35714 0,0.35714 -0.16836,0 -0.20656,-0.28185 -0.35715,-0.35714 -0.10648,-0.0532 -0.35714,-0.11905 -0.35714,0 0,0.2662 0.16891,0.52605 0.35714,0.71428 0.0842,0.0842 0,-0.47619 0,-0.35714 0,0.2381 0,0.47619 0,0.71429 0,0.11904 0.0842,-0.44133 0,-0.35715 -0.18823,0.18823 -0.11905,0.59524 -0.35714,0.71429 -0.15058,0.0753 -0.35714,-0.18879 -0.35714,-0.35714 0,-0.11905 0.3039,-0.10648 0.35714,0 0.10648,0.21296 0,0.47619 0,0.71428 0,0.11905 0,-0.47619 0,-0.35714 0,0.23809 0,0.47619 0,0.71428 0,0.11905 0.0842,-0.27296 0,-0.35714 -0.0842,-0.0842 -0.23809,0 -0.35714,0 -0.11905,0 -0.35715,-0.11905 -0.35715,0 0,0.2662 0.16892,0.52606 0.35715,0.71429 0.0842,0.0842 0,-0.47619 0,-0.35715 0,0.2381 0.16836,0.54593 0,0.71429 -0.11905,0.11905 -0.20656,-0.28185 -0.35715,-0.35714 -0.10647,-0.0532 -0.35714,-0.11905 -0.35714,0 0,0.58079 0.66921,0.0902 0.35714,0.71428 -0.0753,0.15059 -0.18878,0.35715 -0.35714,0.35715 -0.16836,0 -0.35714,-0.18879 -0.35714,-0.35715 0,-0.11904 0.27296,-0.0842 0.35714,0 0.0842,0.0842 0,0.2381 0,0.35715 0,0.11904 0.11905,0.35714 0,0.35714 -0.11905,0 0.0842,-0.27296 0,-0.35714 -0.17391,-0.17392 -0.77018,0.16177 -0.71428,0.35714 0.15218,0.53189 0.57644,0.94445 0.86466,1.41667 z"
       id="path922"
       inkscape:connector-curvature="0" />
    <path
       style="fill:#e10000;stroke:none;stroke-width:1px;stroke-linecap:butt;stroke-linejoin:miter;stroke-opacity:1;fill-opacity:1;opacity:0.544"
       d="m 537.14888,453.39908 c -0.35914,-0.13134 -1.20877,-0.0349 -1.07743,-0.39402 0.13134,-0.35914 0.69736,0.43625 1.07743,0.39402 0.71229,-0.25039 1.42457,-0.50078 2.13686,-0.75116 -0.11905,0 -0.35714,0.11904 -0.35714,0 0,-0.2381 0.54592,0.16835 0.71428,0 0.16836,-0.16836 -0.23809,-0.71429 0,-0.71429 0.16836,0 0.2381,0.47619 0.35714,0.35714 0.16836,-0.16836 0,-0.47619 0,-0.71428 0,-0.47619 -0.11904,1.30952 0.35715,0.35714 0.10648,-0.21296 0,-0.47619 0,-0.71429 0,-0.11904 0.11905,0.35715 0,0.35715 -0.11905,0 0,-0.2381 0,-0.35715 0,-0.11904 -0.11905,-0.35714 0,-0.35714 0.16836,0 0.35714,0.18879 0.35714,0.35714 0,0.11905 -0.35714,0.11905 -0.35714,0 0,-0.16835 0.28185,-0.20655 0.35714,-0.35714 0.0532,-0.10648 -0.11905,-0.35714 0,-0.35714 0.11905,0 0.11905,0.35714 0,0.35714 -0.11905,0 0,-0.23809 0,-0.35714 0,-0.11905 -0.11905,-0.35714 0,-0.35714 0.11905,0 0.11905,0.35714 0,0.35714 -0.11905,0 0,-0.2381 0,-0.35714 0,-0.11905 -0.11905,-0.35715 0,-0.35715 0.11905,0 0,0.47619 0,0.35715 0,-0.2381 0,-0.47619 0,-0.71429 0,-0.11905 0.11905,0.35714 0,0.35714 -0.11905,0 0,-0.23809 0,-0.35714 0,-0.11905 -0.11905,-0.35714 0,-0.35714 0.11905,0 0,0.47619 0,0.35714 0,-2.34127 0,1.26984 0,-1.07143 0,-0.11905 0,0.47619 0,0.35714 0,-0.23809 -0.16836,-0.54592 0,-0.71428 0.11905,-0.11905 0.18878,0.35714 0.35714,0.35714 0.2381,0 -0.23809,-0.71428 0,-0.71428 0.16836,0 0.35715,0.18878 0.35715,0.35714 0,0.11905 -0.35715,0.11905 -0.35715,0 0,-0.11905 0.25067,0.0532 0.35715,0 0.15058,-0.0753 0.35714,-0.18879 0.35714,-0.35714 0,-0.11905 -0.35714,0.11904 -0.35714,0 0,-0.11905 0.25066,0.0532 0.35714,0 0.15058,-0.0753 0.18878,-0.35715 0.35714,-0.35715 0.11905,0 -0.0842,0.27297 0,0.35715 0.11905,0.11904 0.2381,0.11904 0.35714,0 0.0842,-0.0842 -0.0842,-0.27297 0,-0.35715 0.0842,-0.0842 0.2381,0 0.35715,0 0.11905,0 0.23809,0 0.35714,0 0.11905,0 0.35714,-0.11904 0.35714,0 0,0.11905 -0.35714,0.11905 -0.35714,0 0,-0.11904 0.2381,0 0.35714,0 0.47619,0 0.95238,0 1.42857,0 0.35715,0 0.71429,0 1.07143,0 0.11905,0 0.35715,-0.11904 0.35715,0 0,0.11905 -0.2381,0 -0.35715,0 0.2381,0.11905 0.52606,0.16892 0.71429,0.35715 0.0842,0.0842 -0.47619,0 -0.35714,0 0.23809,0 0.47619,0 0.71428,0 0.11905,0 -0.47619,0 -0.35714,0 2.30159,0 -0.63492,0 0.71428,0 0.11905,0 0.2381,0 0.35715,0 0.11905,0 0.35714,-0.11905 0.35714,0 0,0.11904 -0.35714,0.11904 -0.35714,0 0,-0.11905 0.25066,0.0532 0.35714,0 0.15059,-0.0753 0.35714,-0.18879 0.35714,-0.35715 0,-0.16836 -0.18878,-0.35714 -0.35714,-0.35714 -0.11905,0 -0.11905,0.35714 0,0.35714 0.16836,0 0.28185,-0.20655 0.35714,-0.35714 0.0532,-0.10648 -0.11904,-0.35714 0,-0.35714 0.11905,0 0.11905,0.35714 0,0.35714 -0.11904,0 0,-0.23809 0,-0.35714 0,-0.11905 -0.11904,-0.35715 0,-0.35715 0.11905,0 0.11905,0.35715 0,0.35715 -0.11904,0 0,-0.2381 0,-0.35715 0,-0.11904 -0.11904,-0.35714 0,-0.35714 0.11905,0 0.11905,0.35714 0,0.35714 -0.11904,0 0,-0.23809 0,-0.35714 0,-0.11905 0,-0.23809 0,-0.35714 0,-0.11905 -0.11904,-0.35714 0,-0.35714 0.11905,0 0.11905,0.35714 0,0.35714 -0.11904,0 0,-0.2381 0,-0.35714 0,-0.11905 -0.11904,-0.35715 0,-0.35715 0.11905,0 0.11905,0.35715 0,0.35715 -0.11904,0 0,-0.2381 0,-0.35715 0,-0.11904 -0.11904,-0.35714 0,-0.35714 0.11905,0 0.11905,0.35714 0,0.35714 -0.11904,0 0,-0.23809 0,-0.35714 0,-0.11905 -0.11904,-0.35714 0,-0.35714 0.11905,0 0.11905,0.35714 0,0.35714 -0.11904,0 0,-0.23809 0,-0.35714 0,-0.11905 -0.11904,-0.35715 0,-0.35715 0.11905,0 0.11905,0.35715 0,0.35715 -0.11904,0 0,-0.2381 0,-0.35715 0,-0.11904 -0.11904,-0.35714 0,-0.35714 0.11905,0 0.11905,0.35714 0,0.35714 -0.11904,0 0,-0.23809 0,-0.35714 0,-0.11905 -0.11904,-0.35714 0,-0.35714 0.11905,0 0,0.47619 0,0.35714 0,-2.30159 0,0.63492 0,-0.71428 0,-0.11905 0,-0.2381 0,-0.35715 0,-0.11904 -0.11904,-0.35714 0,-0.35714 0.11905,0 -0.0842,0.27296 0,0.35714 0.16836,0.16836 0.54593,-0.16836 0.71429,0 0.0842,0.0842 0,0.2381 0,0.35715 0,0.11904 0.11905,0.35714 0,0.35714 -0.2381,0 0.11905,-0.83333 0.35714,-0.35714 0.10648,0.21295 -0.16836,0.54592 0,0.71428 0.11905,0.11905 0.35714,-0.18878 0.35714,-0.35714 0,-0.11905 -0.35714,-0.11905 -0.35714,0 0,0.16836 0.20656,0.28185 0.35714,0.35714 0.10648,0.0532 0.35715,-0.11905 0.35715,0 0,0.16836 -0.35715,0.18879 -0.35715,0.35714 0,0.11905 0.25067,-0.0532 0.35715,0 1.48634,0.74318 -0.3818,-0.0247 0.35714,0.71429 0.0842,0.0842 0.35714,-0.11905 0.35714,0 0,0.11905 -0.27296,-0.0842 -0.35714,0 -0.0842,0.0842 -0.11905,0.35714 0,0.35714 0.16836,0 0.18878,-0.35714 0.35714,-0.35714 0.2381,0 -0.23809,0.71429 0,0.71429 0.16836,0 0.35715,-0.18879 0.35715,-0.35715 0,-0.11904 -0.35715,0.11905 -0.35715,0 0,-0.11904 0.27297,-0.0842 0.35715,0 0.16836,0.16836 -0.2381,0.71429 0,0.71429 0.16836,0 0.23809,-0.47619 0.35714,-0.35714 0.11905,0.11904 -0.28185,0.20655 -0.35714,0.35714 -0.0532,0.10648 -0.11905,0.35714 0,0.35714 0.16836,0 0.18878,-0.35714 0.35714,-0.35714 0.23809,0 -0.2381,0.71428 0,0.71428 0.16836,0 0.35714,-0.18878 0.35714,-0.35714 0,-0.11905 -0.3039,-0.10648 -0.35714,0 -0.10648,0.21296 -0.16836,0.54593 0,0.71429 0.11905,0.11905 0.23809,-0.47619 0.35714,-0.35715 0.16836,0.16836 -0.16836,0.54593 0,0.71429 0.11905,0.11905 0.35714,-0.18878 0.35714,-0.35714 0,-0.11905 -0.35714,0.11905 -0.35714,0 0,-0.11905 0.30391,-0.10648 0.35714,0 0.10648,0.21296 0,0.47619 0,0.71428 0,0.11905 -0.0842,-0.44132 0,-0.35714 0.18824,0.18823 0.35715,0.44809 0.35715,0.71429 0,0.16835 -0.35715,-0.18879 -0.35715,-0.35715 0,-0.11904 0.27297,-0.0842 0.35715,0 0.0842,0.0842 -0.0532,0.25067 0,0.35715 0.0753,0.15058 0.47619,0.23809 0.35714,0.35714 -0.11905,0.11905 -0.35714,-0.18879 -0.35714,-0.35714 0,-0.40315 1.49151,0.71428 0.35714,0.71428 -0.11905,0 -0.0842,-0.27296 0,-0.35714 0.0842,-0.0842 0.27296,-0.0842 0.35714,0 0.16836,0.16836 -0.23809,0.71428 0,0.71428 0.16836,0 0.35715,-0.18878 0.35715,-0.35714 0,-0.11905 -0.35715,-0.11905 -0.35715,0 0,0.16836 0.28185,0.20656 0.35715,0.35714 0.0532,0.10648 -0.11905,0.35715 0,0.35715 0.16836,0 0.35714,-0.5255 0.35714,-0.35715 0,0.2662 -0.35714,0.44809 -0.35714,0.71429 0,0.16836 0.18878,-0.35714 0.35714,-0.35714 0.11905,0 -0.0842,0.27296 0,0.35714 0.0842,0.0842 0.35714,-0.11905 0.35714,0 0,0.16836 -0.35714,0.18878 -0.35714,0.35714 0,0.11905 0.27296,-0.0842 0.35714,0 0.18823,0.18823 0.35715,0.44809 0.35715,0.71429 0,0.16836 -0.35715,-0.5255 -0.35715,-0.35714 0,0.26619 0.16891,0.52605 0.35715,0.71428 0.0842,0.0842 -0.11905,-0.35714 0,-0.35714 0.11904,0 0,0.23809 0,0.35714 0,0.2381 0,0.47619 0,0.71429 0,0.11905 -0.0842,-0.27297 0,-0.35715 0.0842,-0.0842 0.35714,-0.11904 0.35714,0 0,0.11905 -0.30391,-0.10647 -0.35714,0 -0.10648,0.21296 0,0.4762 0,0.71429 0,0.11905 -0.0842,-0.44132 0,-0.35714 0.18823,0.18823 0.16891,0.52605 0.35714,0.71428 0.0842,0.0842 0,-0.47619 0,-0.35714 0,0.2381 0,0.47619 0,0.71429 0,0.11904 0,-0.47619 0,-0.35715 0,0.2381 -0.16836,0.54593 0,0.71429 0.11905,0.11905 0.35714,-0.5255 0.35714,-0.35714 0,0.26619 -0.35714,0.44808 -0.35714,0.71428 0,0.11905 0.3039,-0.10648 0.35714,0 0.10648,0.21296 -0.0753,0.48841 0,0.71429 0.0532,0.15972 0.35714,0.18878 0.35714,0.35714 0,0.11905 -0.35714,-0.11905 -0.35714,0 0,0.16836 0.3039,0.19742 0.35714,0.35714 0.0753,0.22588 -0.0753,0.48841 0,0.71429 0.0532,0.15972 0.35715,0.18878 0.35715,0.35714 0,0.11905 -0.35715,0.11905 -0.35715,0 0,-0.11905 0.30391,-0.10648 0.35715,0 0.10648,0.21296 0,0.47619 0,0.71429 0,0.11905 -0.0842,-0.27297 0,-0.35715 0.0842,-0.0842 0.35714,-0.11904 0.35714,0 0,0.11905 -0.3039,-0.10647 -0.35714,0 -0.10648,0.21296 0,0.4762 0,0.71429 0,0.47619 -0.11905,-1.30952 0.35714,-0.35714 1.0119,2.02381 -0.50595,0.35714 0,0.35714 0.16836,0 0.35714,0.18878 0.35714,0.35714 0,0.16836 -0.18878,0.35715 -0.35714,0.35715 -0.11905,0 -0.0842,-0.27297 0,-0.35715 0.0842,-0.0842 0.3039,-0.10648 0.35714,0 0.10648,0.21296 -0.16836,0.54593 0,0.71429 0.11905,0.11905 0.35715,-0.18879 0.35715,-0.35714 0,-0.11905 -0.35715,-0.11905 -0.35715,0 0,0.26619 0.16891,0.52605 0.35715,0.71428 0.0842,0.0842 -0.11905,-0.35714 0,-0.35714 0.11904,0 0,0.23809 0,0.35714 0,0.11905 0.11904,0.35714 0,0.35714 -0.4762,0 0.35714,-0.83333 0.35714,-0.35714 0,0.17857 -1.54762,-0.47619 -0.35714,0.71429 0.5255,0.5255 0.35714,-2.01185 0.35714,0.35714 0,0.11905 -0.0842,-0.27296 0,-0.35714 0.0842,-0.0842 0.35714,-0.11905 0.35714,0 0,0.2662 -0.16891,0.52605 -0.35714,0.71428 -0.15873,0.15873 0.0397,-0.99206 0.35714,-0.35714 0.10648,0.21296 0,0.47619 0,0.71429 0,0.11904 -0.11905,-0.35715 0,-0.35715 0.11905,0 -0.0842,0.27297 0,0.35715 0.0842,0.0842 0.35714,-0.11905 0.35714,0 0,0.26619 -0.16891,0.52605 -0.35714,0.71428 -0.15873,0.15873 0.0397,-0.99206 0.35714,-0.35714 0.10648,0.21296 0,0.47619 0,0.71428 0,0.11905 0,-0.47619 0,-0.35714 0,0.2381 0,0.47619 0,0.71429 0,0.11905 -0.0842,-0.27297 0,-0.35715 0.0842,-0.0842 0.35715,-0.11904 0.35715,0 0,1.80422 -0.54068,0.54068 -0.35715,0.35715 0.0842,-0.0842 0.30391,-0.10648 0.35715,0 0.10648,0.21296 0,0.47619 0,0.71428 0,0.11905 0,-0.47619 0,-0.35714 0,0.2381 -0.16836,0.54593 0,0.71429 0.11904,0.11904 0.35714,-0.18879 0.35714,-0.35715 0,-0.11904 -0.35714,-0.11904 -0.35714,0 0,0.2662 0.16891,0.52606 0.35714,0.71429 0.0842,0.0842 -0.0842,-0.44132 0,-0.35714 0.18823,0.18823 0.35714,0.44808 0.35714,0.71428 0,0.16836 -0.35714,-0.18878 -0.35714,-0.35714 0,-0.11905 0.27296,-0.0842 0.35714,0 0.0842,0.0842 -0.0842,0.27296 0,0.35714 0.0842,0.0842 0.35715,-0.11905 0.35715,0 0,0.16836 -0.35715,0.18879 -0.35715,0.35714 0,0.11905 0.27297,-0.0842 0.35715,0 0.0842,0.0842 -0.0842,0.27297 0,0.35715 0.0842,0.0842 0.35714,-0.11905 0.35714,0 0,0.11905 -0.35714,-0.11905 -0.35714,0 0,0.16836 0.20655,0.28185 0.35714,0.35714 0.10648,0.0532 0.35714,-0.11905 0.35714,0 0,0.11905 -0.27296,-0.0842 -0.35714,0 -0.0842,0.0842 -0.0842,0.27296 0,0.35714 0.0842,0.0842 0.27296,-0.0842 0.35714,0 0.0842,0.0842 -0.0532,0.25067 0,0.35715 0.0753,0.15058 0.35714,0.18878 0.35714,0.35714 0,0.16836 -0.18878,0.35714 -0.35714,0.35714 -0.11905,0 0,-0.47619 0,-0.35714 0,0.23809 0,0.47619 0,0.71428 0,0.4762 -0.11905,-1.30952 0.35714,-0.35714 1.01191,2.02381 -0.50595,0.35714 0,0.35714 0.16836,0 0.35715,0.18879 0.35715,0.35715 0,0.11905 -0.27297,-0.0842 -0.35715,0 -0.0842,0.0842 -0.0842,0.27296 0,0.35714 0.0842,0.0842 0.30391,-0.10648 0.35715,0 0.10648,0.21296 0,0.47619 0,0.71429 0,0.11904 -0.11905,-0.35715 0,-0.35715 0.11904,0 0,0.2381 0,0.35715 0,0.11904 0,0.23809 0,0.35714 0,0.11905 0,0.23809 0,0.35714 0,0.11905 -0.0532,0.25067 0,0.35714 0.0753,0.15059 0.35714,0.18879 0.35714,0.35715 0,0.11905 -0.35714,-0.11905 -0.35714,0 0,0.95522 0.71428,-0.24094 0.71428,0.71428 0,0.11905 -0.41038,-0.10648 -0.35714,0 0.15058,0.30117 0.47619,0.47619 0.71429,0.71429 0.11904,0.11905 -0.4762,-0.2381 -0.35715,-0.35714 0.11905,-0.11905 0.2381,0.23809 0.35715,0.35714 0.11904,0.11905 0.35714,0.18878 0.35714,0.35714 0,0.11905 -0.35714,0.11905 -0.35714,0 0,-0.11905 0.27296,-0.0842 0.35714,0 0.0842,0.0842 -0.0842,0.27297 0,0.35714 0.0842,0.0842 0.35714,-0.11904 0.35714,0 0,0.16836 -0.35714,0.18879 -0.35714,0.35715 0,0.11905 0.27296,-0.0842 0.35714,0 0.0842,0.0842 -0.0842,0.27296 0,0.35714 0.0842,0.0842 0.35714,-0.11905 0.35714,0 0,0.11905 -0.35714,0.11905 -0.35714,0 0,-0.11905 0.27296,-0.0842 0.35714,0 0.16836,0.16836 -0.23809,0.71429 0,0.71429 0.16836,0 0.35715,-0.52551 0.35715,-0.35715 0,1.80422 -0.54068,0.54067 -0.35715,0.35715 0.0842,-0.0842 0.27297,-0.0842 0.35715,0 0.0842,0.0842 -0.0842,0.27296 0,0.35714 0.0842,0.0842 0.35714,-0.11905 0.35714,0 0,0.11905 -0.27296,-0.0842 -0.35714,0 -0.0842,0.0842 -0.0842,0.27296 0,0.35714 0.0842,0.0842 0.25066,-0.0532 0.35714,0 1.33674,0.66837 -0.66018,0.0541 0,0.71429 0.0842,0.0842 0.27296,-0.0842 0.35714,0 0.0842,0.0842 -0.0842,0.27296 0,0.35714 0.0842,0.0842 0.35715,-0.11905 0.35715,0 0,0.11905 -0.35715,-0.11905 -0.35715,0 0,0.16836 0.28185,0.20656 0.35715,0.35714 0.0532,0.10648 -0.0842,0.27297 0,0.35715 0.0842,0.0842 0.35714,-0.11905 0.35714,0 0,0.16835 -0.35714,0.18878 -0.35714,0.35714 0,0.11905 0.25066,-0.0532 0.35714,0 0.15058,0.0753 0.35714,0.18878 0.35714,0.35714 0,0.11905 -0.27296,-0.0842 -0.35714,0 -0.0842,0.0842 -0.0842,0.27297 0,0.35714 0.0842,0.0842 0.27296,-0.0842 0.35714,0 0.0842,0.0842 -0.0842,0.27297 0,0.35715 0.0842,0.0842 0.35714,-0.11905 0.35714,0 0,0.11905 -0.27296,-0.0842 -0.35714,0 -0.0842,0.0842 -0.0842,0.27296 0,0.35714 0.0842,0.0842 0.27296,-0.0842 0.35714,0 0.0842,0.0842 -0.0842,0.27296 0,0.35714 0.0842,0.0842 0.35715,-0.11904 0.35715,0 0,0.16836 -0.35715,0.18879 -0.35715,0.35715 0,0.11904 0.27297,-0.0842 0.35715,0 0.16836,0.16835 -0.10648,0.50132 0,0.71428 0.0753,0.15059 0.35714,0.18879 0.35714,0.35714 0,0.11905 -0.27296,-0.0842 -0.35714,0 -0.0842,0.0842 -0.11905,0.35715 0,0.35715 0.16836,0 0.18878,-0.35715 0.35714,-0.35715 0.11905,0 0,0.2381 0,0.35715 0,0.11905 0,0.23809 0,0.35714 0,0.11905 -0.0532,0.25066 0,0.35714 0.0753,0.15059 0.35714,0.18879 0.35714,0.35715 0,0.11904 -0.27296,-0.0842 -0.35714,0 -0.0842,0.0842 0.11905,0.35714 0,0.35714 -0.11905,0 -0.11905,-0.35714 0,-0.35714 0.0626,0 -0.065,1.29852 0,1.42857 0.0753,0.15058 0.28185,0.20656 0.35714,0.35714 0.10648,0.21296 -0.10648,0.50133 0,0.71429 0.0753,0.15058 0.35715,0.18878 0.35715,0.35714 0,0.11905 -0.27297,-0.0842 -0.35715,0 -0.0504,0.0504 -0.0366,0.99817 0,1.07143 0.0753,0.15058 0.28185,0.20656 0.35715,0.35714 0.0532,0.10648 0,0.2381 0,0.35714 0,0.11905 0,0.2381 0,0.35715 0,0.11904 0.11904,0.35714 0,0.35714 -0.11905,0 -0.11905,-0.35714 0,-0.35714 0.23809,0 -0.16836,0.54592 0,0.71428 0.0842,0.0842 0.35714,-0.11905 0.35714,0 0,0.11905 -0.27297,-0.0842 -0.35714,0 -0.0842,0.0842 0,0.2381 0,0.35714 0,0.11905 0,0.2381 0,0.35715 0,0.11905 0.11904,0.35714 0,0.35714 -0.11905,0 -0.11905,-0.35714 0,-0.35714 0.23809,0 -0.2381,0.71428 0,0.71428 0.44132,0 0.35714,-0.83756 0.35714,0 0,0.11905 0,0.2381 0,0.35715 0,0.11904 0.11905,0.35714 0,0.35714 -0.11905,0 -0.11905,-0.35714 0,-0.35714 0.11905,0 0,0.23809 0,0.35714 0,0.11905 0,0.23809 0,0.35714 0,0.11905 0.11905,0.35714 0,0.35714 -0.11905,0 -0.11905,-0.35714 0,-0.35714 0.11905,0 0,0.2381 0,0.35714 0,0.11905 0,0.2381 0,0.35715 0,0.0866 0.0115,1.05994 0,1.07143 -0.0842,0.0842 -0.27297,-0.0842 -0.35714,0 -0.0842,0.0842 0.11904,0.35714 0,0.35714 -0.11905,0 0,-0.2381 0,-0.35714 -0.11905,0.11904 -0.20656,0.28185 -0.35715,0.35714 -0.10648,0.0532 -0.35714,-0.11905 -0.35714,0 0,0.16836 0.18878,0.35714 0.35714,0.35714 0.11905,0 0.0842,-0.27296 0,-0.35714 -0.0842,-0.0842 -0.27296,-0.0842 -0.35714,0 -0.0842,0.0842 0.0842,0.27296 0,0.35714 -0.0842,0.0842 -0.35714,0.11905 -0.35714,0 0,-0.11905 0.35714,-0.11905 0.35714,0 0,0.11905 -0.27296,-0.0842 -0.35714,0 -0.0842,0.0842 0.11904,0.35714 0,0.35714 -0.16836,0 -0.35715,-0.18878 -0.35715,-0.35714 0,-0.11905 0.27297,-0.0842 0.35715,0 0.0842,0.0842 0.0842,0.27297 0,0.35714 -0.16836,0.16836 -0.54593,-0.16835 -0.71429,0 -0.0842,0.0842 0.11905,0.35715 0,0.35715 -0.11905,0 0.0842,-0.27297 0,-0.35715 -0.0842,-0.0842 -0.35714,-0.11904 -0.35714,0 0,0.16836 0.35714,0.18879 0.35714,0.35715 0,0.11905 -0.23809,0 -0.35714,0 -0.11905,0 -0.35714,0.11905 -0.35714,0 0,-0.47619 0.83333,0.35714 0.35714,0.35714 -1.80422,0 -0.54067,-0.54067 -0.35714,-0.35714 0.55257,0.55258 -0.95386,0.35714 -1.07143,0.35714 -0.11905,0 -0.35715,0.11905 -0.35715,0 0,-0.47619 0.83334,0.35714 0.35715,0.35714 -0.16836,0 -0.20656,-0.28185 -0.35715,-0.35714 -0.63492,-0.31746 -0.19841,0.19841 -0.35714,0.35714 -0.16836,0.16836 -0.71428,-0.23809 -0.71428,0 0,0.16836 0.18878,0.35715 0.35714,0.35715 0.11905,0 0.0842,-0.27297 0,-0.35715 -0.0842,-0.0842 -0.2381,0 -0.35714,0 -0.11905,0 -0.35715,-0.11904 -0.35715,0 0,0.16836 0.35715,0.18879 0.35715,0.35715 0,0.23809 -0.71429,-0.2381 -0.71429,0 0,0.16836 0.47619,0.23809 0.35714,0.35714 -0.11905,0.11905 -0.18878,-0.35714 -0.35714,-0.35714 -0.16836,0 -0.35714,0.18878 -0.35714,0.35714 0,0.11905 0.35714,-0.11905 0.35714,0 0,0.11905 -0.2381,0 -0.35714,0 -0.11905,0 -0.27297,-0.0842 -0.35715,0 -0.0842,0.0842 0.11905,0.35714 0,0.35714 -0.11904,0 0.11905,-0.35714 0,-0.35714 -0.16836,0 -0.35714,0.18878 -0.35714,0.35714 0,0.11905 0.35714,-0.11905 0.35714,0 0,0.2381 -0.71428,-0.23809 -0.71428,0 0,0.16836 0.47619,0.2381 0.35714,0.35714 -0.11905,0.11905 -0.18878,-0.35714 -0.35714,-0.35714 -0.16836,0 -0.35714,0.18879 -0.35714,0.35714 0,0.11905 0.35714,-0.11904 0.35714,0 0,0.2381 -0.54593,-0.16835 -0.71429,0 -0.0842,0.0842 0.11905,0.35715 0,0.35715 -0.11905,0 0.0842,-0.27297 0,-0.35715 -0.0525,-0.0525 -1.07143,0.042 -1.07143,0 0,-0.11904 0.35715,-0.11904 0.35715,0 0,0.11905 -0.2381,0 -0.35715,0 -0.11904,0 -0.35714,0.11905 -0.35714,0 0,-0.11904 0.3039,0.10648 0.35714,0 0.10648,-0.21295 0.16836,-0.54592 0,-0.71428 -0.11904,-0.11905 -0.20655,0.28185 -0.35714,0.35714 -0.10648,0.0532 -0.3039,0.10648 -0.35714,0 -0.10648,-0.21296 0.16836,-0.54592 0,-0.71428 -0.11905,-0.11905 -0.35714,0.18878 -0.35714,0.35714 0,0.11905 0.35714,-0.11905 0.35714,0 0,0.11905 -0.30391,0.10648 -0.35714,0 -0.10648,-0.21296 0,-0.47619 0,-0.71429 0,-0.11904 0.0842,0.27297 0,0.35715 -0.0842,0.0842 -0.35715,0.11904 -0.35715,0 0,-0.11905 0.35715,-0.11905 0.35715,0 0,0.11904 -0.30391,0.10648 -0.35715,0 -0.10648,-0.21296 0.16836,-0.54593 0,-0.71429 -0.11905,-0.11905 -0.35714,0.18878 -0.35714,0.35714 0,0.11905 0.35714,-0.11904 0.35714,0 0,0.11905 -0.3039,0.10648 -0.35714,0 -0.10648,-0.21296 0.16836,-0.54592 0,-0.71428 -0.11905,-0.11905 -0.35714,0.18878 -0.35714,0.35714 0,0.11905 0.3039,0.10648 0.35714,0 0.10648,-0.21296 0.16836,-0.54593 0,-0.71429 -0.11905,-0.11904 -0.20656,0.28186 -0.35714,0.35715 -0.10648,0.0532 -0.35715,0.11905 -0.35715,0 0,-0.2662 0.35715,-0.44809 0.35715,-0.71429 0,-0.16836 -0.20656,0.28185 -0.35715,0.35714 -0.10648,0.0532 -0.35714,0.11905 -0.35714,0 0,-0.16835 0.35714,-0.18878 0.35714,-0.35714 0,-0.16836 -0.18878,-0.35714 -0.35714,-0.35714 -0.11905,0 0.11905,0.35714 0,0.35714 -0.16836,0 -0.35714,-0.18878 -0.35714,-0.35714 0,-0.16836 0.23809,-0.47619 0.35714,-0.35714 0.11905,0.11904 -0.18878,0.35714 -0.35714,0.35714 -0.11905,0 0.0842,-0.27296 0,-0.35714 -0.0842,-0.0842 -0.35714,0.11904 -0.35714,0 0,-0.16836 0.18878,-0.35715 0.35714,-0.35715 0.11905,0 0.11905,0.35715 0,0.35715 -0.2662,0 -0.62334,-0.71429 -0.35714,-0.71429 0.47619,0 -0.35715,0.83333 -0.35715,0.35714 0,-0.16836 0.28185,-0.20655 0.35715,-0.35714 0.0532,-0.10648 0.11904,-0.35714 0,-0.35714 -0.52551,0 -0.35715,1.26867 -0.35715,-0.35715 0,-0.11904 0.0842,0.27297 0,0.35715 -0.0842,0.0842 -0.35714,0.11905 -0.35714,0 0,-0.2662 0.35714,-0.44809 0.35714,-0.71429 0,-0.16836 -0.18878,0.35714 -0.35714,0.35714 -0.11905,0 0,-0.23809 0,-0.35714 0,-0.11905 -0.11905,-0.35714 0,-0.35714 0.11905,0 0.11905,0.35714 0,0.35714 -0.16836,0 -0.35714,-0.18878 -0.35714,-0.35714 0,-0.16836 0.23809,-0.47619 0.35714,-0.35714 0.11905,0.11904 -0.18878,0.35714 -0.35714,0.35714 -0.2381,0 0.23809,-0.71429 0,-0.71429 -0.96384,0 -0.15603,0.66921 0,0.35715 0.10648,-0.21296 0.16836,-0.54593 0,-0.71429 -0.11905,-0.11905 -0.18879,0.35714 -0.35715,0.35714 -0.23809,0 0.2381,-0.71428 0,-0.71428 -0.16836,0 -0.35714,0.18878 -0.35714,0.35714 0,0.11905 0.35714,-0.11905 0.35714,0 0,0.11905 -0.3039,0.10648 -0.35714,0 -0.10648,-0.21296 0,-0.47619 0,-0.71429 0,-0.11904 0.11905,0.35715 0,0.35715 -0.16836,0 -0.35714,-0.18879 -0.35714,-0.35715 0,-0.16835 0.23809,-0.47619 0.35714,-0.35714 0.11905,0.11905 -0.18878,0.35714 -0.35714,0.35714 -0.2381,0 0.23809,-0.71428 0,-0.71428 -0.16836,0 -0.18879,0.35714 -0.35715,0.35714 -0.23809,0 0.2381,-0.71428 0,-0.71428 -0.16835,0 -0.35714,0.18878 -0.35714,0.35714 0,0.11905 0.27297,0.0842 0.35714,0 0.21344,-0.21344 -0.21766,-0.71429 -0.35714,-0.71429 -0.11905,0 0.11905,0.35715 0,0.35715 -0.47619,0 -0.47619,-0.71429 0,-0.71429 0.11905,0 0.0842,0.27296 0,0.35714 -0.0842,0.0842 -0.27296,0.0842 -0.35714,0 -0.16836,-0.16836 0.23809,-0.71428 0,-0.71428 -1.18449,0 0,0.6692 0,0.35714 0,-0.16836 -0.28185,-0.20656 -0.35714,-0.35714 -0.0532,-0.10648 0.0842,-0.27297 0,-0.35715 -0.0842,-0.0842 -0.35715,0.11905 -0.35715,0 0,-0.16835 0.18879,-0.35714 0.35715,-0.35714 0.11904,0 0.0842,0.27297 0,0.35714 -0.0842,0.0842 -0.27297,0.0842 -0.35715,0 -0.16836,-0.16835 0.2381,-0.71428 0,-0.71428 -0.16836,0 -0.18878,0.35714 -0.35714,0.35714 -0.13551,0 0.2736,-1.07143 -0.35714,-1.07143 -0.11905,0 0,0.47619 0,0.35715 0,-0.2381 0,-0.47619 0,-0.71429 0,-0.11905 0.11905,0.35714 0,0.35714 -0.2662,0 -0.62334,-0.71428 -0.35715,-0.71428 0.11905,0 0,0.47619 0,0.35714 0,-0.23809 0.16836,-0.54593 0,-0.71429 -0.11904,-0.11904 -0.18878,0.35715 -0.35714,0.35715 -0.11905,0 0,-0.2381 0,-0.35715 0,-0.11904 -0.11905,-0.35714 0,-0.35714 0.11905,0 0.11905,0.35714 0,0.35714 -0.16836,0 -0.35714,-0.18878 -0.35714,-0.35714 0,-0.16836 0.23809,-0.47619 0.35714,-0.35714 0.11905,0.11905 -0.18878,0.35714 -0.35714,0.35714 -0.2381,0 0.16836,-0.54593 0,-0.71428 -0.0842,-0.0842 -0.27296,0.0842 -0.35714,0 -0.0842,-0.0842 -0.11905,-0.35715 0,-0.35715 0.11904,0 0.0842,0.44133 0,0.35715 -0.18823,-0.18823 -0.16892,-0.52606 -0.35715,-0.71429 -0.0842,-0.0842 0.11905,0.35714 0,0.35714 -0.23809,0 0.16836,-0.54592 0,-0.71428 -0.0842,-0.0842 -0.27296,0.0842 -0.35714,0 -0.16836,-0.16836 0.2381,-0.71429 0,-0.71429 -0.16836,0 -0.18878,0.35714 -0.35714,0.35714 -0.2381,0 0.16836,-0.54592 0,-0.71428 -0.0842,-0.0842 -0.27297,0.0842 -0.35715,0 -0.16835,-0.16836 0.16836,-0.54593 0,-0.71429 -0.0842,-0.0842 -0.27296,0.0842 -0.35714,0 -0.0842,-0.0842 0.0842,-0.27296 0,-0.35714 -0.0842,-0.0842 -0.27296,0.0842 -0.35714,0 -0.16836,-0.16836 0.16836,-0.54593 0,-0.71429 -0.0842,-0.0842 -0.27296,0.0842 -0.35714,0 -0.16836,-0.16835 0.23809,-0.71428 0,-0.71428 -0.16836,0 -0.18879,0.35714 -0.35715,0.35714 -0.11904,0 0,-0.23809 0,-0.35714 0,-0.11905 -0.11904,-0.35714 0,-0.35714 0.11905,0 0,0.47619 0,0.35714 0,-0.2381 0,-0.47619 0,-0.71429 0,-0.11904 0.11905,0.35715 0,0.35715 -0.16836,0 -0.28185,-0.20656 -0.35714,-0.35715 -0.0328,-0.0655 0.0262,-1.07143 0,-1.07143 -0.16836,0 -0.18878,0.35715 -0.35714,0.35715 -0.11905,0 0,-0.2381 0,-0.35715 0,-0.11904 0,-0.23809 0,-0.35714 0,-1.19713 -0.35715,0.83999 -0.35715,-0.35714 0,-0.21344 0.0842,-0.71429 -0.35714,-0.71429 -0.11905,0 0,0.47619 0,0.35715 0,-0.2381 0,-0.47619 0,-0.71429 0,-0.11905 0.11905,0.35714 0,0.35714 -0.11905,0 0.0842,-0.27296 0,-0.35714 -0.0842,-0.0842 -0.27296,0.0842 -0.35714,0 -0.0842,-0.0842 0.0842,-0.27296 0,-0.35714 -0.0842,-0.0842 -0.27296,0.0842 -0.35714,0 -0.73894,-0.73894 1.1292,0.0289 -0.35715,-0.71429 -0.10648,-0.0532 -0.35714,0.11905 -0.35714,0 0,-0.11905 0.27296,0.0842 0.35714,0 0.0842,-0.0842 0.0842,-0.27296 0,-0.35714 -0.16836,-0.16836 -0.71428,0.23809 -0.71428,0 0,-0.13947 0.6692,-0.40222 0.35714,-0.71429 -0.16836,-0.16836 -0.71429,0.2381 -0.71429,0 0,-0.16836 0.35715,-0.18878 0.35715,-0.35714 0,-0.11905 -0.27297,0.0842 -0.35715,0 -0.16835,-0.16836 0.16836,-0.54593 0,-0.71429 -0.0842,-0.0842 -0.27296,0.0842 -0.35714,0 -0.16836,-0.16835 0.16836,-0.54592 0,-0.71428 -0.0842,-0.0842 -0.27296,0.0842 -0.35714,0 -0.16836,-0.16836 0.10648,-0.50133 0,-0.71429 -0.0753,-0.15058 -0.28185,-0.20655 -0.35714,-0.35714 -0.10648,-0.21296 0.16836,-0.54593 0,-0.71429 -0.0842,-0.0842 -0.2381,0 -0.35715,0 0,-0.11904 0.0532,-0.25066 0,-0.35714 -0.0753,-0.15058 -0.20655,-0.28185 -0.35714,-0.35714 -0.10648,-0.0532 -0.35714,0.11905 -0.35714,0 0,-0.47619 0.83333,0.59524 0.35714,-0.35714 -0.0753,-0.15059 -0.20656,-0.28185 -0.35714,-0.35715 -0.10648,-0.0532 -0.35715,0.11905 -0.35715,0 0,-0.47619 0.83334,0.59524 0.35715,-0.35714 -0.0753,-0.15058 -0.20656,-0.28185 -0.35715,-0.35714 -0.10647,-0.0532 -0.35714,0.11905 -0.35714,0 0,-0.11905 0.27297,0.0842 0.35714,0 0.30352,-0.30352 -0.41077,-0.76792 -0.71428,-1.07143 -0.11905,-0.11905 0.23809,0.47619 0.35714,0.35714 0.16836,-0.16836 0.16836,-0.54593 0,-0.71428 -0.11905,-0.11905 -0.18878,0.35714 -0.35714,0.35714 -0.2381,0 0.16836,-0.54593 0,-0.71429 -0.0842,-0.0842 -0.3039,0.10648 -0.35714,0 -1.01191,-2.02381 0.50595,-0.35714 0,-0.35714 -0.11905,0 0.0842,-0.27296 0,-0.35714 -0.16836,-0.16836 -0.71429,0.23809 -0.71429,0 0,-0.13948 0.66921,-0.40223 0.35714,-0.71429 -0.16836,-0.16836 -0.71428,0.2381 -0.71428,0 0,-0.11905 0.27296,0.0842 0.35714,0 0.26567,-0.26567 -0.71429,-1.97576 -0.71429,-0.71428 0,0.11904 0.30391,0.10648 0.35715,0 0.10648,-0.21296 0,-0.47619 0,-0.71429 0,-0.11905 0.0842,0.44132 0,0.35714 -0.18823,-0.18823 -0.11905,-0.59523 -0.35715,-0.71428 -0.15058,-0.0753 -0.35714,0.18878 -0.35714,0.35714 0,0.11905 0.30391,0.10648 0.35714,0 0.10648,-0.21296 0,-0.47619 0,-0.71429 0,-0.11904 0.10648,0.41039 0,0.35715 -0.30116,-0.15059 -0.47619,-0.47619 -0.71428,-0.71429 -0.30185,-0.30185 0.88264,1.05101 0.35714,0 -0.0753,-0.15058 -0.20656,-0.28185 -0.35714,-0.35714 -0.10648,-0.0532 -0.35714,0.11905 -0.35714,0 0,-0.11905 0.3039,0.10648 0.35714,0 0.10648,-0.21296 0,-0.47619 0,-0.71429 0,-0.11904 0.11905,0.35715 0,0.35715 -0.11905,0 0.0532,-0.25067 0,-0.35715 -0.0753,-0.15058 -0.18878,-0.35714 -0.35714,-0.35714 -0.96384,0 -0.15603,0.66921 0,0.35714 0.10648,-0.21296 0,-0.47619 0,-0.71428 0,-0.11905 0.0842,0.27296 0,0.35714 -0.0842,0.0842 -0.2381,0 -0.35715,0 -0.11904,0 -0.35714,0.11905 -0.35714,0 0,-0.11905 0.3039,0.10648 0.35714,0 0.10648,-0.21296 0,-0.47619 0,-0.71429 0,-0.11904 0.11905,0.35715 0,0.35715 -0.11904,0 0,-0.2381 0,-0.35715 0,-0.11904 -0.11904,-0.35714 0,-0.35714 0.11905,0 0.0842,0.27297 0,0.35714 -0.27376,0.27377 -0.71428,-0.28444 -0.71428,-0.71428 0,-0.16836 0.23809,0.47619 0.35714,0.35714 0.16836,-0.16836 0,-0.47619 0,-0.71428 0,-0.11905 0,0.47619 0,0.35714 0,-0.2381 0,-0.47619 0,-0.71429 0,-0.47619 0.11905,1.30953 -0.35714,0.35715 -0.10648,-0.21296 0.16836,-0.54593 0,-0.71429 -0.11905,-0.11905 -0.35715,0.18878 -0.35715,0.35714 0,0.11905 0.30391,0.10648 0.35715,0 0.10648,-0.21296 0,-0.47619 0,-0.71428 0,-0.11905 0.11905,0.35714 0,0.35714 -0.11905,0 0,-0.23809 0,-0.35714 0,-0.11905 -0.11905,-0.35715 0,-0.35715 0.11905,0 0.0842,0.27297 0,0.35715 -0.0842,0.0842 -0.27297,0.0842 -0.35715,0 -0.0842,-0.0842 -0.11904,-0.35715 0,-0.35715 0.11905,0 0,0.2381 0,0.35715 0,0.23809 -0.0653,0.48533 0,0.71428 0.16102,0.5643 0.44567,1.08574 0.6685,1.62861"
       id="path924"
       inkscape:connector-curvature="0" />
  </g>
</svg>
