<?xml version="1.0" encoding="UTF-8" standalone="no"?>
<!-- Created with Inkscape (http://www.inkscape.org/) -->

<svg
   xmlns:dc="http://purl.org/dc/elements/1.1/"
   xmlns:cc="http://creativecommons.org/ns#"
   xmlns:rdf="http://www.w3.org/1999/02/22-rdf-syntax-ns#"
   xmlns:svg="http://www.w3.org/2000/svg"
   xmlns="http://www.w3.org/2000/svg"
   xmlns:sodipodi="http://sodipodi.sourceforge.net/DTD/sodipodi-0.dtd"
   xmlns:inkscape="http://www.inkscape.org/namespaces/inkscape"
   width="200"
   height="369.03"
   id="svg2"
   version="1.1"
   inkscape:version="0.92.2 5c3e80d, 2017-08-06"
   sodipodi:docname="muscle-18.svg">
  <defs
     id="defs4" />
  <sodipodi:namedview
     id="base"
     pagecolor="#ffffff"
     bordercolor="#666666"
     borderopacity="1.0"
     inkscape:pageopacity="0"
     inkscape:pageshadow="2"
     inkscape:zoom="2.8"
     inkscape:cx="20.65203"
     inkscape:cy="242.41452"
     inkscape:document-units="px"
     inkscape:current-layer="layer1"
     showgrid="false"
     fit-margin-top="0"
     fit-margin-left="0"
     fit-margin-right="0"
     fit-margin-bottom="0"
     inkscape:window-width="1280"
     inkscape:window-height="700"
     inkscape:window-x="0"
     inkscape:window-y="1"
     inkscape:window-maximized="1" />
  <metadata
     id="metadata7">
    <rdf:RDF>
      <cc:Work
         rdf:about="">
        <dc:format>image/svg+xml</dc:format>
        <dc:type
           rdf:resource="http://purl.org/dc/dcmitype/StillImage" />
        <dc:title></dc:title>
      </cc:Work>
    </rdf:RDF>
  </metadata>
  <g
     inkscape:label="Ebene 1"
     inkscape:groupmode="layer"
     id="layer1"
     transform="translate(-54.28571,-335.71492)">
    <path
       style="fill:#f57900;stroke:none;stroke-width:1px;stroke-linecap:butt;stroke-linejoin:miter;stroke-opacity:1;fill-opacity:1;opacity:0.524"
       d="m 100.60993,431.91628 c 0.0499,-1.23544 1.17461,0.68578 0.81864,0.68578 -0.11905,0 0.0913,-0.28069 0,-0.35714 -0.22541,-0.18883 -0.81864,-0.0346 -0.81864,-0.32864 0.27288,-0.60474 0.54576,-1.20948 0.81864,-1.81422 0,0.11905 0.11905,0.35714 0,0.35714 -0.11905,0 0,-0.23809 0,-0.35714 0,-0.11905 0,-0.23809 0,-0.35714 0,-0.11905 -0.11905,-0.35714 0,-0.35714 0.11905,0 0,0.47619 0,0.35714 0,-0.35714 0,-0.71429 0,-1.07143 0,-1.19048 0,0.83333 0,-0.35714 0,-0.11905 0,-0.2381 0,-0.35715 0,-0.11904 -0.11905,-0.35714 0,-0.35714 0.11905,0 0,0.47619 0,0.35714 0,-0.23809 0,-0.47619 0,-0.71428 0,-0.11905 -0.11905,-0.35714 0,-0.35714 0.11905,0 0.11905,0.35714 0,0.35714 -0.2662,0 0.0909,-0.71429 0.35714,-0.71429 0.11905,0 0,0.47619 0,0.35715 0,-0.35715 0,-0.71429 0,-1.07143 0,-0.11905 -0.11905,-0.35715 0,-0.35715 0.16836,0 0.35714,0.18879 0.35714,0.35715 0,0.11905 -0.27296,0.0842 -0.35714,0 -0.0842,-0.0842 0,-0.2381 0,-0.35715 0,-0.11904 -0.0842,-0.27296 0,-0.35714 0.0842,-0.0842 0.27296,0.0842 0.35714,0 0.16836,-0.16836 -0.23809,-0.71428 0,-0.71428 0.16836,0 0.47619,0.23809 0.35715,0.35714 -0.30185,0.30185 -0.45577,-0.71429 -0.35715,-0.71429 1.67513,0 -1.26867,1.26868 0.35715,-0.35714 0.11904,-0.11905 0.18878,0.35714 0.35714,0.35714 0.11905,0 0,-0.23809 0,-0.35714 0,-0.11905 0,-0.23809 0,-0.35714 0,-0.11905 -0.11905,-0.35715 0,-0.35715 0.11905,0 -0.0842,0.27297 0,0.35715 0.0842,0.0842 0.3039,0.10648 0.35714,0 0.10648,-0.21296 0,-0.47619 0,-0.71429 0,-0.11905 -0.0842,0.27297 0,0.35714 0.0842,0.0842 0.27297,0.0842 0.35714,0 0.16836,-0.16835 -0.16835,-0.54592 0,-0.71428 0.0842,-0.0842 0.35715,-0.11905 0.35715,0 0,0.11905 -0.35715,0.11905 -0.35715,0 0,-0.11905 0.27297,0.0842 0.35715,0 0.0842,-0.0842 -0.11905,-0.35714 0,-0.35714 0.11905,0 -0.0842,0.44132 0,0.35714 0.18823,-0.18823 0.35714,-0.44809 0.35714,-0.71429 0,-0.16836 -0.35714,0.5255 -0.35714,0.35715 0,-0.2662 0.11905,-0.59524 0.35714,-0.71429 0.15059,-0.0753 0.18878,0.35714 0.35714,0.35714 0.2381,0 -0.16836,-0.54592 0,-0.71428 0.0842,-0.0842 0.27297,0.0842 0.35715,0 0.0842,-0.0842 -0.0532,-0.25067 0,-0.35715 0.0753,-0.15058 0.28185,-0.20655 0.35714,-0.35714 0.0532,-0.10648 -0.0842,-0.27296 0,-0.35714 0.0842,-0.0842 0.27296,0.0842 0.35714,0 0.0842,-0.0842 -0.0532,-0.25067 0,-0.35714 0.0753,-0.15059 0.2381,-0.4762 0.35714,-0.35715 0.11905,0.11905 -0.35714,0.5255 -0.35714,0.35715 0,-0.2662 0.11905,-0.59524 0.35714,-0.71429 0.15059,-0.0753 0.35715,0.18878 0.35715,0.35714 0,0.11905 -0.35715,0.11905 -0.35715,0 0,-0.11905 0.27297,0.0842 0.35715,0 0.16836,-0.16836 -0.2381,-0.71428 0,-0.71428 1.18449,0 0,0.6692 0,0.35714 0,-0.16836 0.28185,-0.20656 0.35714,-0.35714 0.0532,-0.10648 -0.11905,-0.35715 0,-0.35715 0.16836,0 0.47619,0.2381 0.35714,0.35715 -0.11904,0.11904 -0.35714,-0.18879 -0.35714,-0.35715 0,-0.16836 0.2381,-0.23809 0.35714,-0.35714 0.11905,-0.11905 0.20656,-0.28185 0.35715,-0.35714 0.83756,-0.41878 0,0.67643 0,-0.35714 0,-0.2381 0.54592,0.16835 0.71428,0 0.0842,-0.0842 -0.11905,-0.35715 0,-0.35715 0.11905,0 -0.11905,0.35715 0,0.35715 0.16836,0 0.35714,-0.18879 0.35714,-0.35715 0,-0.16836 -0.47619,-0.23809 -0.35714,-0.35714 0.11905,-0.11905 0.18879,0.35714 0.35714,0.35714 0.11905,0 -0.0842,-0.27296 0,-0.35714 0.0842,-0.0842 0.27297,0.0842 0.35715,0 0.0842,-0.0842 -0.0532,-0.25066 0,-0.35714 0.0753,-0.15059 0.23809,-0.2381 0.35714,-0.35715 0.11905,-0.11904 0.18878,-0.35714 0.35714,-0.35714 0.16836,0 0.20656,0.43244 0.35715,0.35714 0.23809,-0.11904 0.16891,-0.52605 0.35714,-0.71428 0.0842,-0.0842 -0.11905,0.35714 0,0.35714 0.16836,0 0.35714,-0.18878 0.35714,-0.35714 0,-0.11905 -0.35714,0.11905 -0.35714,0 0,-0.16836 0.18878,-0.35714 0.35714,-0.35714 0.11905,0 -0.11905,0.35714 0,0.35714 0.16836,0 0.35714,-0.18879 0.35714,-0.35714 0,-0.11905 -0.35714,0.11904 -0.35714,0 0,-0.2381 0.54593,0.16835 0.71429,0 0.0842,-0.0842 -0.11905,-0.35715 0,-0.35715 0.11905,0 -0.11905,0.35715 0,0.35715 0.16836,0 0.35714,-0.18879 0.35714,-0.35715 0,-0.11904 -0.35714,0.11905 -0.35714,0 0,-0.11904 0.25066,0.0532 0.35714,0 0.15059,-0.0753 0.35714,-0.18878 0.35714,-0.35714 0,-0.11905 -0.35714,0.11905 -0.35714,0 0,-0.042 1.01891,0.0525 1.07143,0 0.0842,-0.0842 -0.0842,-0.27296 0,-0.35714 0.0842,-0.0842 0.25066,0.0532 0.35714,0 0.15059,-0.0753 0.18879,-0.35715 0.35714,-0.35715 0.16836,0 0.20656,0.43244 0.35715,0.35715 0.23809,-0.11905 0.35714,-0.44809 0.35714,-0.71429 0,-0.11905 -0.47619,0 -0.35714,0 0.23809,0 0.50132,0.10648 0.71428,0 0.10648,-0.0532 -0.0842,-0.27296 0,-0.35714 0.0842,-0.0842 0.2381,0 0.35715,0 0.11904,0 0.35714,-0.11905 0.35714,0 0,0.11905 -0.35714,0.11905 -0.35714,0 0,-0.7136 0.85863,-0.14435 1.07142,-0.35714 0.0842,-0.0842 -0.0842,-0.27297 0,-0.35715 0.16836,-0.16836 0.50133,0.10648 0.71429,0 0.15059,-0.0753 0.18878,-0.35714 0.35714,-0.35714 0.11905,0 -0.11904,0.35714 0,0.35714 0.16836,0 0.20656,-0.28185 0.35715,-0.35714 0.10648,-0.0532 0.35714,0.11905 0.35714,0 0,-0.16836 -0.35714,-0.18878 -0.35714,-0.35714 0,-0.11905 0.23809,0 0.35714,0 0.11905,0 0.23809,0 0.35714,0 0.11905,0 0.35714,-0.11905 0.35714,0 0,0.11905 -0.35714,0.11905 -0.35714,0 0,-0.2381 0.50133,0.10648 0.71429,0 0.15058,-0.0753 0.19742,-0.30391 0.35714,-0.35715 0.22588,-0.0753 0.54593,0.16836 0.71429,0 0.11904,-0.11904 -0.4762,-0.23809 -0.35715,-0.35714 0.16836,-0.16836 0.47619,0 0.71429,0 0.11905,0 -0.47619,0 -0.35714,0 0.23809,0 0.47619,0 0.71428,0 0.11905,0 -0.35714,0.11905 -0.35714,0 0,-0.11905 0.23809,0 0.35714,0 0.11905,0 0.2381,0 0.35714,0 0.11905,0 0.35715,-0.11905 0.35715,0 0,0.11905 -0.35715,0.11905 -0.35715,0 0,-0.11905 0.2381,0 0.35715,0 0.11905,0 0.23809,0 0.35714,0 0.11905,0 0.23809,0 0.35714,0 0.11905,0 0.35715,-0.11905 0.35715,0 0,0.11905 -0.44133,0.0842 -0.35715,0 0.44408,-0.44408 0.89798,-0.35714 1.42857,-0.35714 0.11905,0 0.35715,-0.11905 0.35715,0 0,0.11905 -0.35715,0.11905 -0.35715,0 0,-0.11905 0.2381,0 0.35715,0 0.11904,0 0.23809,0 0.35714,0 0.11905,0 0.35714,0.11905 0.35714,0 0,-0.16836 -0.18878,-0.35714 -0.35714,-0.35714 -0.11905,0 -0.0842,0.27296 0,0.35714 0.16836,0.16836 0.71429,-0.2381 0.71429,0 0,0.11905 -0.35715,0.11905 -0.35715,0 0,-0.11905 0.25067,0.0532 0.35715,0 0.15058,-0.0753 0.20655,-0.28185 0.35714,-0.35714 0.10869,-0.0543 0.91058,0 1.07143,0 0.11904,0 0.35714,0.11904 0.35714,0 0,-0.16836 -0.47619,-0.2381 -0.35714,-0.35715 2.02381,-0.23809 0.35714,0.11905 0.35714,0 0,-0.11904 0.23809,0 0.35714,0 0.11905,0 0.35715,-0.11904 0.35715,0 0,0.11905 -0.35715,0.11905 -0.35715,0 0,-0.11904 0.2381,0 0.35715,0 0.11904,0 0.35714,-0.11904 0.35714,0 0,0.11905 -0.35714,0.11905 -0.35714,0 0,-0.11904 0.23809,0 0.35714,0 0.11905,0 0.23809,0 0.35714,0 0.11905,0 0.2381,0 0.35714,0 0.11905,0 0.35715,-0.11904 0.35715,0 0,0.11905 -0.35715,0.11905 -0.35715,0 0,-0.11904 0.2381,0 0.35715,0 0.11904,0 0.23809,0 0.35714,0 1.19048,0 -0.83333,0 0.35714,0 0.11905,0 0.2381,0 0.35715,0 0.11904,0 0.35714,-0.11904 0.35714,0 0,0.11905 -0.35714,0.11905 -0.35714,0 0,-0.11904 0.23809,0 0.35714,0 0.11905,0 0.47619,0 0.35714,0 -0.23809,0 -0.47619,0 -0.71428,0 -0.2381,0 0.47619,0 0.71428,0 1.19048,0 -0.83333,0 0.35714,0 0.11905,0 0.35715,-0.11904 0.35715,0 0,0.11905 -0.27297,-0.0842 -0.35715,0 -0.16835,0.16836 0.16836,0.54593 0,0.71429 -0.0842,0.0842 -0.3039,-0.10648 -0.35714,0 -0.10648,0.21296 0.16836,0.54593 0,0.71428 -0.11905,0.11905 -0.35714,-0.18878 -0.35714,-0.35714 0,-0.11905 0.3039,-0.10648 0.35714,0 0.10648,0.21296 0,0.47619 0,0.71429 0,0.11905 0.0842,-0.27297 0,-0.35715 -0.0842,-0.0842 -0.27296,-0.0842 -0.35714,0 -0.0842,0.0842 0.0842,0.27297 0,0.35715 -0.0842,0.0842 -0.35714,0.11905 -0.35714,0 0,-0.11905 0.27296,-0.0842 0.35714,0 0.0842,0.0842 0.0842,0.27296 0,0.35714 -0.0842,0.0842 -0.27297,-0.0842 -0.35714,0 -0.0842,0.0842 0.0842,0.27296 0,0.35714 -0.0842,0.0842 -0.35715,-0.11904 -0.35715,0 0,0.13948 0.66921,0.40223 0.35715,0.71429 -0.21344,0.21344 -0.71429,-0.38603 -0.71429,0.35714 0,0.11905 0.35714,-0.11905 0.35714,0 0,0.16836 -0.20656,0.28185 -0.35714,0.35714 -0.10648,0.0532 -0.35714,-0.11904 -0.35714,0 0,0.16836 0.35714,0.18879 0.35714,0.35715 0,0.11904 -0.27296,-0.0842 -0.35714,0 -0.0842,0.0842 0.11904,0.35714 0,0.35714 -0.11905,0 -0.11905,-0.35714 0,-0.35714 0.47619,0 -0.35715,0.83333 -0.35715,0.35714 0,-0.11905 0.27297,-0.0842 0.35715,0 0.0842,0.0842 0.0842,0.27296 0,0.35714 -0.0842,0.0842 -0.27297,-0.0842 -0.35715,0 -0.0842,0.0842 0.11905,0.35714 0,0.35714 -0.16835,0 -0.23809,-0.47619 -0.35714,-0.35714 -0.16836,0.16836 0,0.47619 0,0.71429 0,0.11905 0.11905,-0.35715 0,-0.35715 -0.16836,0 -0.35714,0.18879 -0.35714,0.35715 0,0.11905 0.27296,-0.0842 0.35714,0 0.0842,0.0842 0.0842,0.27296 0,0.35714 -0.0842,0.0842 -0.27296,-0.0842 -0.35714,0 -0.0842,0.0842 0.0842,0.27296 0,0.35714 -0.0842,0.0842 -0.35714,-0.11904 -0.35714,0 0,0.16836 0.35714,0.18879 0.35714,0.35715 0,0.23809 -0.71429,-0.2381 -0.71429,0 0,0.16836 0.35715,0.18878 0.35715,0.35714 0,0.16836 -0.20656,0.28185 -0.35715,0.35714 -0.10648,0.0532 -0.35714,-0.11905 -0.35714,0 0,0.16836 0.18878,0.35714 0.35714,0.35714 0.11905,0 -0.11904,-0.35714 0,-0.35714 0.11905,0 0.0842,0.27297 0,0.35714 -0.0842,0.0842 -0.27296,-0.0842 -0.35714,0 -0.0842,0.0842 0.11905,0.35715 0,0.35715 -0.16836,0 -0.47619,-0.2381 -0.35714,-0.35715 0.11905,-0.11904 0.28185,0.20656 0.35714,0.35715 0.31746,0.63492 -0.19841,0.19841 -0.35714,0.35714 -0.0842,0.0842 0.0842,0.27296 0,0.35714 -0.95238,0.95238 0,-0.95238 0,0 0,0.11905 -0.27297,-0.0842 -0.35715,0 -0.0842,0.0842 0.0532,0.25067 0,0.35715 -0.0753,0.15058 -0.35714,0.18878 -0.35714,0.35714 0,0.11905 0.27297,-0.0842 0.35714,0 0.0842,0.0842 0.0842,0.27296 0,0.35714 -0.0842,0.0842 -0.23809,0 -0.35714,0 -0.11905,0 -0.35714,0.11905 -0.35714,0 0,-0.11905 0.27296,-0.0842 0.35714,0 0.0842,0.0842 0.0842,0.27297 0,0.35714 -0.0842,0.0842 -0.27296,-0.0842 -0.35714,0 -0.0842,0.0842 0.0842,0.27297 0,0.35715 -0.0842,0.0842 -0.35714,-0.11905 -0.35714,0 0,0.16836 0.35714,0.18878 0.35714,0.35714 0,0.2381 -0.71429,-0.23809 -0.71429,0 0,0.16836 0.35715,0.18878 0.35715,0.35714 0,0.16836 -0.18879,0.35715 -0.35715,0.35715 -0.16836,0 -0.47619,-0.2381 -0.35714,-0.35715 0.11905,-0.11904 0.35714,0.18879 0.35714,0.35715 0,0.11904 -0.27296,-0.0842 -0.35714,0 -0.0842,0.0842 0.0842,0.27296 0,0.35714 -0.0842,0.0842 -0.27296,-0.0842 -0.35714,0 -0.0842,0.0842 0.0842,0.27296 0,0.35714 -0.0842,0.0842 -0.35715,0.11905 -0.35715,0 0,-0.11905 0.35715,-0.11905 0.35715,0 0,0.74317 -0.50085,0.14371 -0.71429,0.35714 -0.0842,0.0842 0.0842,0.27297 0,0.35715 -0.0842,0.0842 -0.35714,0.11905 -0.35714,0 0,-0.11905 0.44132,-0.0842 0.35714,0 -0.18823,0.18823 -0.44809,0.35714 -0.71428,0.35714 -0.16836,0 0.5255,-0.35714 0.35714,-0.35714 -0.2662,0 -0.52606,0.16891 -0.71429,0.35714 -0.0842,0.0842 0.0842,0.27296 0,0.35714 -0.21344,0.21344 -0.71428,-0.38603 -0.71428,0.35715 0,0.11904 0.35714,-0.11905 0.35714,0 0,0.23809 -0.54593,-0.16836 -0.71429,0 -0.0842,0.0842 0,0.23809 0,0.35714 -0.11904,0 -0.25066,-0.0532 -0.35714,0 -0.15058,0.0753 -0.23809,0.47619 -0.35714,0.35714 -0.11905,-0.11905 0.5255,-0.35714 0.35714,-0.35714 -0.2662,0 -0.52605,0.16891 -0.71428,0.35714 -0.0842,0.0842 0.44132,-0.0842 0.35714,0 -0.18823,0.18823 -0.4928,0.20948 -0.71429,0.35714 -0.28016,0.18678 -0.47619,0.4762 -0.71428,0.71429 -0.11905,0.11905 -0.18879,0.35714 -0.35715,0.35714 -0.11904,0 0.11905,-0.35714 0,-0.35714 -0.74317,0 -0.1437,0.50085 -0.35714,0.71429 -0.0842,0.0842 -0.35714,-0.11905 -0.35714,0 0,0.16836 0.47619,0.23809 0.35714,0.35714 -0.11905,0.11905 -0.18878,-0.35714 -0.35714,-0.35714 -0.11905,0 0.0842,0.27296 0,0.35714 -0.0842,0.0842 -0.35714,0.11905 -0.35714,0 0,-0.11905 0.44132,-0.0842 0.35714,0 -0.18823,0.18823 -0.4928,0.20948 -0.71429,0.35714 -0.41208,0.27473 -0.65934,0.79671 -1.07143,1.07143 -0.22149,0.14766 -0.49279,0.20948 -0.71428,0.35714 -0.14008,0.0934 -0.21706,0.26376 -0.35714,0.35715 -0.22149,0.14766 -0.4928,0.20948 -0.71429,0.35714 -0.28017,0.18678 -0.41312,0.5637 -0.71429,0.71428 -0.10647,0.0532 -0.25066,-0.0532 -0.35714,0 -0.15058,0.0753 -0.20656,0.28186 -0.35714,0.35715 -0.10648,0.0532 -0.27296,-0.0842 -0.35714,0 -0.0842,0.0842 0.11904,0.35714 0,0.35714 -0.11905,0 0.11904,-0.35714 0,-0.35714 -0.16836,0 -0.35715,0.18878 -0.35715,0.35714 0,0.11905 0.35715,-0.11905 0.35715,0 0,0.2381 -0.50133,-0.10648 -0.71429,0 -0.15058,0.0753 -0.18878,0.35714 -0.35714,0.35714 -0.16836,0 -0.47619,-0.23809 -0.35715,-0.35714 0.11905,-0.11905 0.43244,0.20656 0.35715,0.35714 -0.11905,0.2381 -0.44809,0.35715 -0.71429,0.35715 -0.16836,0 -0.20656,-0.43244 -0.35714,-0.35715 -0.2381,0.11905 -0.16891,0.52606 -0.35714,0.71429 -0.16836,0.16836 -0.54593,-0.16836 -0.71429,0 -0.0842,0.0842 0.0842,0.27296 0,0.35714 -0.0842,0.0842 -0.27296,-0.0842 -0.35714,0 -0.83757,0.83757 1.26867,0 -0.35715,0 -0.11904,0 0.0842,0.27297 0,0.35714 -0.0842,0.0842 -0.23809,0 -0.35714,0 -0.11905,0 -0.35714,0.11905 -0.35714,0 0,-0.31206 1.18449,0.35715 0,0.35715 -0.16836,0 -0.18878,-0.35715 -0.35714,-0.35715 -0.11905,0 0.0842,0.27297 0,0.35715 -0.0842,0.0842 -0.27297,-0.0842 -0.35715,0 -0.0842,0.0842 0.11905,0.35714 0,0.35714 -0.16836,0 -0.18878,-0.35714 -0.35714,-0.35714 -0.16836,0 -0.28185,0.20656 -0.35714,0.35714 -0.0532,0.10648 0.11905,0.35714 0,0.35714 -0.16836,0 -0.18879,-0.35714 -0.35715,-0.35714 -0.16835,0 -0.35714,0.18878 -0.35714,0.35714 0,0.11905 0.35714,-0.11904 0.35714,0 0,0.16836 -0.18878,0.35715 -0.35714,0.35715 -0.16836,0 -0.18878,-0.35715 -0.35714,-0.35715 -0.2381,0 0.23809,0.71429 0,0.71429 -0.11905,0 0.0842,-0.27296 0,-0.35714 -0.0842,-0.0842 -0.27296,-0.0842 -0.35714,0 -0.0842,0.0842 0.0842,0.27296 0,0.35714 -0.0842,0.0842 -0.27297,-0.0842 -0.35715,0 -0.0842,0.0842 0.11905,0.35714 0,0.35714 -0.16836,0 -0.18878,-0.35714 -0.35714,-0.35714 -0.23809,0 0.2381,0.71428 0,0.71428 -0.16836,0 -0.18878,-0.35714 -0.35714,-0.35714 -0.11905,0 0.0842,0.27297 0,0.35714 -0.0842,0.0842 -0.27297,-0.0842 -0.35715,0 -0.0842,0.0842 0.11905,0.35715 0,0.35715 -0.11904,0 0.0842,-0.27297 0,-0.35715 -0.0842,-0.0842 -0.27296,-0.0842 -0.35714,0 -0.0842,0.0842 0,0.2381 0,0.35715 -0.11905,0 -0.27296,-0.0842 -0.35714,0 -0.0842,0.0842 0.11905,0.35714 0,0.35714 -0.11905,0 0.11905,-0.35714 0,-0.35714 -0.16836,0 -0.28185,0.20656 -0.35714,0.35714 -0.0532,0.10648 0.11904,0.35714 0,0.35714 -0.16836,0 -0.18879,-0.35714 -0.35715,-0.35714 -0.23809,0 0.2381,0.71429 0,0.71429 -0.16836,0 -0.18878,-0.35715 -0.35714,-0.35715 -0.23809,0 0.2381,0.71429 0,0.71429 -0.16836,0 -0.18878,-0.35714 -0.35714,-0.35714 -0.2381,0 0.23809,0.71428 0,0.71428 -0.16836,0 -0.18879,-0.35714 -0.35715,-0.35714 -0.23809,0 0.2381,0.71429 0,0.71429 -0.16835,0 -0.18878,-0.35715 -0.35714,-0.35715 -0.11905,0 0.0842,0.27297 0,0.35715 -0.0842,0.0842 -0.27296,-0.0842 -0.35714,0 -0.0842,0.0842 0.11905,0.35714 0,0.35714 -0.11905,0 -0.11905,-0.35714 0,-0.35714 0.11905,0 0.0842,0.27296 0,0.35714 -0.0842,0.0842 -0.27296,-0.0842 -0.357144,0 -0.952381,0.95238 0.952384,0 0,0 -0.168359,0 -0.188784,0.35714 -0.357143,0.35714 -0.119048,0 0,-0.23809 0,-0.35714 0,-0.11905 0,-0.2381 0,-0.35714 0,-1.19048 0,0.83333 0,-0.35715 0,-0.11904 -0.119048,-0.35714 0,-0.35714 0.119048,0 0.119048,0.35714 0,0.35714 -0.119048,0 0,-0.23809 0,-0.35714 0,-0.11905 -0.119048,-0.35714 0,-0.35714 0.119048,0 0.119048,0.35714 0,0.35714 -0.119048,0 0,-0.2381 0,-0.35714 0,-0.11905 -0.119048,-0.35715 0,-0.35715 0.119048,0 0.119048,0.35715 0,0.35715 -0.119048,0 -0.08418,-0.27297 0,-0.35715 0.08418,-0.0842 0.272963,0.0842 0.357143,0 0.168364,-0.16836 -0.238095,-0.71428 0,-0.71428 0.168364,0 0.188784,0.35714 0.357144,0.35714 0.23809,0 -0.2381,-0.71429 0,-0.71429 0.11905,0 0.11905,0.35715 0,0.35715 -0.11905,0 0,-0.2381 0,-0.35715 0,-0.11904 -0.11905,-0.35714 0,-0.35714 0.11905,0 0,0.47619 0,0.35714 0,-0.23809 0,-0.47619 0,-0.71428 0,-0.11905 0.11905,0.35714 0,0.35714 -0.11905,0 0,-0.23809 0,-0.35714 0,-0.11905 -0.11905,-0.35714 0,-0.35714 0.11905,0 0.11905,0.35714 0,0.35714 -0.11905,0 -0.0169,-0.23931 0,-0.35714 0.0675,-0.46941 0.16853,-0.93338 0.25279,-1.40007 z"
       id="path832"
       inkscape:connector-curvature="0" />
    <path
       style="fill:#f57900;stroke:none;stroke-width:1px;stroke-linecap:butt;stroke-linejoin:miter;stroke-opacity:1;fill-opacity:1;opacity:0.524"
       d="m 181.59588,407.36563 c -0.17482,0.555 -0.47647,1.0851 -0.52446,1.665 -0.0278,0.33557 0.71429,0.37757 0.71429,0.71429 0,0.11905 -0.35714,-0.11905 -0.35714,0 0,0.16836 0.28185,0.20656 0.35714,0.35714 0.0532,0.10648 -0.0532,0.25067 0,0.35714 0.0753,0.15059 0.35714,0.18879 0.35714,0.35715 0,0.11904 -0.35714,-0.11905 -0.35714,0 0,0.16836 0.18878,0.35714 0.35714,0.35714 0.11905,0 0,-0.47619 0,-0.35714 0,0.23809 0,0.47619 0,0.71428 0,0.11905 -0.0842,-0.44132 0,-0.35714 0.18823,0.18823 0.35715,0.44809 0.35715,0.71429 0,0.16835 -0.18879,-0.35715 -0.35715,-0.35715 -0.11904,0 -0.0532,0.25067 0,0.35715 0.74317,1.48634 0.14371,-0.21344 0.35715,0 0.18823,0.18823 0.35714,0.44808 0.35714,0.71428 0,0.16836 -0.47619,-0.23809 -0.35714,-0.35714 0.11904,-0.11905 0.28185,0.20656 0.35714,0.35714 0.10648,0.21296 -0.2381,0.71429 0,0.71429 0.16836,0 0.23809,-0.47619 0.35714,-0.35715 0.11905,0.11905 -0.28185,0.20656 -0.35714,0.35715 -0.0532,0.10648 -0.11905,0.35714 0,0.35714 0.16836,0 0.18878,-0.35714 0.35714,-0.35714 0.2381,0 -0.16836,0.54592 0,0.71428 0.0842,0.0842 0.35714,-0.11905 0.35714,0 0,0.16836 -0.18878,0.35715 -0.35714,0.35715 -0.11905,0 -0.11905,-0.35715 0,-0.35715 0.16836,0 0.28185,0.20656 0.35714,0.35715 0.0532,0.10647 -0.0842,0.27296 0,0.35714 0.0842,0.0842 0.35715,-0.11905 0.35715,0 0,0.16836 -0.35715,0.18878 -0.35715,0.35714 0,0.11905 0.27297,-0.0842 0.35715,0 0.0842,0.0842 -0.0842,0.27296 0,0.35714 0.0842,0.0842 0.35714,-0.11904 0.35714,0 0,0.11905 -0.27296,-0.0842 -0.35714,0 -0.0842,0.0842 -0.11905,0.35715 0,0.35715 0.16836,0 0.18878,-0.35715 0.35714,-0.35715 0.2381,0 -0.2381,0.71429 0,0.71429 1.18449,0 0,-0.66921 0,-0.35714 0,0.16836 0.28185,0.20655 0.35714,0.35714 0.0532,0.10648 -0.11904,0.35714 0,0.35714 0.16836,0 0.2381,-0.47619 0.35715,-0.35714 0.11904,0.11905 -0.28185,0.20656 -0.35715,0.35714 -0.0532,0.10648 -0.11904,0.35714 0,0.35714 0.16836,0 0.20656,-0.43243 0.35715,-0.35714 0.23809,0.11905 0.35714,0.44809 0.35714,0.71429 0,0.16836 -0.35714,-0.5255 -0.35714,-0.35715 0,0.2662 0.16891,0.52606 0.35714,0.71429 0.0842,0.0842 -0.11905,-0.35714 0,-0.35714 1.43155,0 -1.07441,1.07143 0.35714,1.07143 0.11905,0 -0.11905,-0.35715 0,-0.35715 0.11905,0 -0.0532,0.25067 0,0.35715 0.0753,0.15058 0.47619,0.23809 0.35714,0.35714 -0.11904,0.11905 -0.47619,-0.2381 -0.35714,-0.35714 0.11905,-0.11905 0.28185,0.20655 0.35714,0.35714 0.0532,0.10648 -0.0842,0.27296 0,0.35714 0.0842,0.0842 0.35715,-0.11905 0.35715,0 0,1.1845 -0.66921,0 -0.35715,0 0.16836,0 0.2381,0.2381 0.35715,0.35714 0.11904,0.11905 0.35714,0.18879 0.35714,0.35715 0,0.11905 -0.27296,-0.0842 -0.35714,0 -0.0842,0.0842 -0.11905,0.35714 0,0.35714 0.16836,0 0.18878,-0.35714 0.35714,-0.35714 0.2381,0 -0.2381,0.71428 0,0.71428 0.16836,0 0.35714,-0.18878 0.35714,-0.35714 0,-0.11905 -0.35714,-0.11905 -0.35714,0 0,0.16836 0.28185,0.20656 0.35714,0.35714 0.0532,0.10648 -0.11904,0.35715 0,0.35715 0.16836,0 0.2381,-0.47619 0.35715,-0.35715 0.11904,0.11905 -0.35715,0.18879 -0.35715,0.35715 0,0.16836 0.18879,0.35714 0.35715,0.35714 0.11904,0 -0.0842,-0.27296 0,-0.35714 0.0842,-0.0842 0.3039,-0.10648 0.35714,0 0.10648,0.21296 -0.16836,0.54592 0,0.71428 0.11905,0.11905 0.35714,-0.5255 0.35714,-0.35714 0,0.2662 -0.54537,0.52605 -0.35714,0.71428 0.18823,0.18824 0.44809,-0.35714 0.71428,-0.35714 0.16836,0 -0.35714,0.18879 -0.35714,0.35714 0,0.16836 0.18879,0.35715 0.35714,0.35715 0.16836,0 0.2381,-0.47619 0.35715,-0.35715 0.11904,0.11905 -0.35715,0.18879 -0.35715,0.35715 0,0.11905 0.25067,-0.0532 0.35715,0 0.15058,0.0753 0.35714,0.18878 0.35714,0.35714 0,0.11905 -0.35714,0.11905 -0.35714,0 0,-0.11905 0.23809,0 0.35714,0 0.11905,0 0.35714,-0.11905 0.35714,0 0,0.16836 -0.18878,0.35714 -0.35714,0.35714 -0.11905,0 -0.11905,-0.35714 0,-0.35714 0.2662,0 0.59524,0.11905 0.71429,0.35714 0.0753,0.15059 -0.52551,0.35715 -0.35715,0.35715 2.4808,-0.14419 0.2381,-0.47619 0.35715,-0.35715 0.18823,0.18823 0.59523,0.11905 0.71428,0.35715 0.0753,0.15058 -0.35714,0.18878 -0.35714,0.35714 0,0.23809 0.71428,-0.2381 0.71428,0 0,0.16836 -0.23809,0.47619 -0.35714,0.35714 -0.11905,-0.11905 0.18879,-0.35714 0.35714,-0.35714 1.1845,0 0,0.6692 0,0.35714 0,-0.11905 0.27297,-0.0842 0.35715,0 0.0842,0.0842 -0.11905,0.35714 0,0.35714 0.16836,0 0.35714,-0.18878 0.35714,-0.35714 0,-0.11905 -0.44132,-0.0842 -0.35714,0 0.18823,0.18823 0.59524,0.11905 0.71428,0.35714 0.0753,0.15059 -0.18878,0.35715 -0.35714,0.35715 -0.11905,0 -0.0842,-0.27297 0,-0.35715 0.0842,-0.0842 0.2381,0 0.35714,0 0.11905,0 0.27297,-0.0842 0.35715,0 0.16835,0.16836 -0.2381,0.71429 0,0.71429 0.16835,0 0.35714,-0.18878 0.35714,-0.35714 0,-0.11905 -0.35714,-0.11905 -0.35714,0 0,0.16836 0.23809,0.23809 0.35714,0.35714 0.11905,0.11905 0.18878,0.35714 0.35714,0.35714 0.11905,0 -0.11905,-0.35714 0,-0.35714 0.11905,0 -0.0532,0.25066 0,0.35714 0.0753,0.15059 0.18879,0.35715 0.35714,0.35715 0.11905,0 -0.11904,-0.35715 0,-0.35715 0.11905,0 -0.0532,0.25067 0,0.35715 0.0753,0.15058 0.47619,0.23809 0.35715,0.35714 -0.37159,0.37159 -0.57482,-0.93196 0,-0.35714 0.0842,0.0842 -0.0532,0.25066 0,0.35714 0.0753,0.15058 0.47619,0.23809 0.35714,0.35714 -0.11905,0.11905 -0.5255,-0.35714 -0.35714,-0.35714 0.7192,0 1.07634,0.71428 0.35714,0.71428 -0.11905,0 -0.11905,-0.35714 0,-0.35714 0.16836,0 0.20656,0.28185 0.35714,0.35714 0.10648,0.0532 0.35715,-0.11904 0.35715,0 0,0.16836 -0.18879,0.35715 -0.35715,0.35715 -0.11904,0 -0.11904,-0.35715 0,-0.35715 0.2662,0 0.59524,0.11905 0.71429,0.35715 0.24772,0.49545 -0.84437,0.48723 -0.35714,0 0.21344,-0.21344 0.71428,0.21767 0.71428,0.35714 0,0.16836 -0.23809,0.47619 -0.35714,0.35714 -0.11905,-0.11904 0.18878,-0.35714 0.35714,-0.35714 0.16836,0 0.35714,0.18878 0.35714,0.35714 0,0.16836 -0.23809,0.47619 -0.35714,0.35715 -0.30185,-0.30185 0.71429,-0.45577 0.71429,-0.35715 0,0.16836 -0.35715,0.18879 -0.35715,0.35715 0,0.16836 0.18879,0.35714 0.35715,0.35714 0.11904,0 -0.0842,-0.27296 0,-0.35714 0.0842,-0.0842 0.35714,-0.11905 0.35714,0 0,0.16836 -0.47619,0.23809 -0.35714,0.35714 0.16836,0.16836 0.54592,-0.16836 0.71428,0 0.11905,0.11905 -0.18878,0.35714 -0.35714,0.35714 -0.11905,0 -0.0842,-0.27296 0,-0.35714 0.0842,-0.0842 0.2381,0 0.35714,0 0.11905,0 0.35715,-0.11905 0.35715,0 0,0.16836 -0.35715,0.18878 -0.35715,0.35714 0,0.47619 0.71429,0.47619 0.71429,0 0,-0.11905 -0.27296,-0.0842 -0.35714,0 -0.0842,0.0842 -0.0842,0.27297 0,0.35714 0.18823,0.18824 0.44808,0.35715 0.71428,0.35715 0.16836,0 -0.47619,-0.2381 -0.35714,-0.35715 0.16836,-0.16835 0.47619,0 0.71428,0 0.11905,0 -0.35714,-0.11904 -0.35714,0 0,0.16836 0.2381,0.2381 0.35714,0.35715 0.11905,0.11905 0.18879,0.35714 0.35715,0.35714 0.47619,0 -0.59524,-0.83333 0.35714,-0.35714 0.15058,0.0753 0.35714,0.18878 0.35714,0.35714 0,0.11905 -0.47619,0 -0.35714,0 0.2381,0 0.54593,-0.16836 0.71429,0 0.11904,0.11905 -0.2381,0.47619 -0.35715,0.35714 -0.30185,-0.30185 0.71429,-0.45576 0.71429,-0.35714 0,0.11905 -0.35714,-0.11905 -0.35714,0 0,0.74317 0.50084,0.1437 0.71428,0.35714 0.0842,0.0842 -0.11905,0.35715 0,0.35715 0.16836,0 0.35714,-0.18879 0.35714,-0.35715 0,-0.11904 -0.35714,0.11905 -0.35714,0 0,-0.25 0.71429,0.10715 0.71429,0.35715 0,0.16836 -0.5255,0.35714 -0.35715,0.35714 0.2662,0 0.44809,-0.35714 0.71429,-0.35714 0.16836,0 -0.43243,0.20655 -0.35714,0.35714 0.11904,0.23809 0.44808,0.35714 0.71428,0.35714 0.16836,0 -0.35714,-0.18878 -0.35714,-0.35714 0,-0.11905 0.2381,0 0.35714,0 0.11905,0 0.35715,-0.11905 0.35715,0 0,0.16836 -0.35715,0.18878 -0.35715,0.35714 0,0.2381 0.71429,-0.23809 0.71429,0 0,0.16836 -0.18879,0.35714 -0.35714,0.35714 -0.11905,0 -0.0842,-0.27296 0,-0.35714 0.0842,-0.0842 0.23809,0 0.35714,0 0.11905,0 0.35714,-0.11905 0.35714,0 0,0.16836 -0.35714,0.18879 -0.35714,0.35714 0,0.4762 0.71428,0.4762 0.71428,0 0,-0.11904 -0.41038,-0.10647 -0.35714,0 0.15059,0.30117 0.47619,0.4762 0.71429,0.71429 0.11904,0.11905 -0.35715,-0.18878 -0.35715,-0.35714 0,-0.11905 0.2381,0 0.35715,0 0.11904,0 0.35714,-0.11905 0.35714,0 0,0.16836 -0.35714,0.18878 -0.35714,0.35714 0,0.16836 0.18878,0.35714 0.35714,0.35714 1.62582,0 -0.31206,-0.6692 0,-0.35714 0.18823,0.18823 0.52606,0.16891 0.71429,0.35714 0.0842,0.0842 -0.44133,-0.0842 -0.35715,0 0.18823,0.18823 0.44809,0.35715 0.71429,0.35715 0.16836,0 -0.35714,-0.18879 -0.35714,-0.35715 0,-0.2662 0.71428,0.0909 0.71428,0.35715 0,0.11904 -0.35714,-0.11905 -0.35714,0 0,0.16836 0.18878,0.35714 0.35714,0.35714 0.16836,0 0.35714,-0.18878 0.35714,-0.35714 0,-0.11905 -0.47619,0 -0.35714,0 0.2381,0 0.54593,-0.16836 0.71429,0 0.11905,0.11904 -0.35715,0.18878 -0.35715,0.35714 0,0.11905 0.27297,-0.0842 0.35715,0 0.0842,0.0842 0.11905,0.35714 0,0.35714 -0.11905,0 -0.11905,-0.35714 0,-0.35714 0.2662,0 0.59524,0.11905 0.71428,0.35714 0.0753,0.15059 -0.5255,0.35714 -0.35714,0.35714 0.51372,0 1.07143,-0.86146 1.07143,-0.35714 0,0.11905 -0.27296,-0.0842 -0.35714,0 -0.0842,0.0842 -0.10648,0.30391 0,0.35714 0.21295,0.10648 0.47619,0 0.71428,0 0.11905,0 -0.27296,-0.0842 -0.35714,0 -0.0842,0.0842 -0.11905,0.35715 0,0.35715 0.16836,0 0.20656,-0.28185 0.35714,-0.35715 0.10648,-0.0532 0.35714,-0.11904 0.35714,0 0,0.11905 -0.27296,-0.0842 -0.35714,0 -0.0842,0.0842 -0.0842,0.27297 0,0.35715 0.0842,0.0842 0.27297,-0.0842 0.35714,0 0.0842,0.0842 -0.11904,0.35714 0,0.35714 0.16836,0 0.35715,-0.18878 0.35715,-0.35714 0,-0.11905 -0.35715,0.11905 -0.35715,0 0,-0.2662 0.71429,0.0909 0.71429,0.35714 0,0.11905 -0.27296,-0.0842 -0.35714,0 -0.0842,0.0842 -0.11905,0.35714 0,0.35714 0.16836,0 0.18878,-0.35714 0.35714,-0.35714 0.11905,0 -0.0842,0.27296 0,0.35714 0.0842,0.0842 0.35714,0.11905 0.35714,0 0,-0.16836 -0.18878,-0.35714 -0.35714,-0.35714 -0.11905,0 0.11905,0.35714 0,0.35714 -0.11905,0 0,-0.23809 0,-0.35714 0,-0.11905 0,-0.23809 0,-0.35714 0,-0.11905 -0.11905,-0.35715 0,-0.35715 0.11905,0 0.11905,0.35715 0,0.35715 -0.11905,0 0,-0.2381 0,-0.35715 0,-0.11904 0,-0.23809 0,-0.35714 0,-0.11905 -0.11905,-0.35714 0,-0.35714 0.11905,0 0.11905,0.35714 0,0.35714 -0.11905,0 0,-0.23809 0,-0.35714 0,-0.11905 -0.11905,-0.35714 0,-0.35714 0.11905,0 0.11905,0.35714 0,0.35714 -0.2662,0 -0.62334,-0.71429 -0.35714,-0.71429 0.11905,0 0.11905,0.35715 0,0.35715 -0.2381,0 0.23809,-0.71429 0,-0.71429 -0.16836,0 -0.35715,0.18878 -0.35715,0.35714 0,0.11905 0.27297,0.0842 0.35715,0 0.16836,-0.16836 -0.2381,-0.71428 0,-0.71428 0.11905,0 0.11905,0.35714 0,0.35714 -0.11905,0 0,-0.23809 0,-0.35714 0,-0.11905 -0.11905,-0.35715 0,-0.35715 0.11905,0 0.11905,0.35715 0,0.35715 -0.11905,0 0.0842,-0.27297 0,-0.35715 -0.0842,-0.0842 -0.27297,0.0842 -0.35715,0 -0.0842,-0.0842 0,-0.23809 0,-0.35714 0,-0.11905 0,-0.23809 0,-0.35714 0,-0.11905 -0.11904,-0.35714 0,-0.35714 0.11905,0 0.11905,0.35714 0,0.35714 -0.11904,0 0,-0.2381 0,-0.35714 0,-0.11905 -0.11904,-0.35715 0,-0.35715 0.11905,0 0.11905,0.35715 0,0.35715 -0.11904,0 0,-0.2381 0,-0.35715 0,-0.11904 -0.11904,-0.35714 0,-0.35714 0.11905,0 0.11905,0.35714 0,0.35714 -0.11904,0 0,-0.23809 0,-0.35714 0,-0.11905 -0.11904,-0.35714 0,-0.35714 0.11905,0 0.11905,0.35714 0,0.35714 -0.11904,0 0,-0.23809 0,-0.35714 0,-0.11905 -0.11904,-0.35715 0,-0.35715 0.11905,0 0.11905,0.35715 0,0.35715 -0.11904,0 0.0842,-0.27297 0,-0.35715 -0.0842,-0.0842 -0.35714,0.11905 -0.35714,0 0,-1.18449 0.66921,0 0.35714,0 -0.23809,0 0.2381,-0.71428 0,-0.71428 -0.16835,0 -0.18878,0.35714 -0.35714,0.35714 -0.11905,0 0,-0.23809 0,-0.35714 0,-0.11905 0,-0.2381 0,-0.35714 0,-0.11905 -0.11905,-0.35715 0,-0.35715 0.11905,0 0.11905,0.35715 0,0.35715 -0.11905,0 0.0532,-0.25067 0,-0.35715 -0.0753,-0.15058 -0.47619,-0.23809 -0.35714,-0.35714 0.11905,-0.11905 0.18878,0.35714 0.35714,0.35714 0.11905,0 0,-0.23809 0,-0.35714 0,-0.11905 0.0842,-0.27296 0,-0.35714 -0.0842,-0.0842 -0.27296,0.0842 -0.35714,0 -0.35732,-0.35732 0.35732,-0.35697 0,-0.71429 -0.0842,-0.0842 -0.35714,0.11905 -0.35714,0 0,-0.16836 0.28185,-0.20656 0.35714,-0.35714 0.10648,-0.21296 -0.2381,-0.71429 0,-0.71429 0.11905,0 0.11905,0.35715 0,0.35715 -0.7136,0 -0.14435,-0.85864 -0.35714,-1.07143 -0.0842,-0.0842 -0.35715,0.11905 -0.35715,0 0,-0.13948 0.66921,-0.40223 0.35715,-0.71429 -0.0842,-0.0842 -0.27297,0.0842 -0.35715,0 -0.0842,-0.0842 0.0842,-0.27296 0,-0.35714 -0.0842,-0.0842 -0.35714,0.11905 -0.35714,0 0,-0.11905 0.27296,0.0842 0.35714,0 0.0842,-0.0842 0.11905,-0.35714 0,-0.35714 -0.16836,0 -0.18878,0.35714 -0.35714,0.35714 -0.23809,0 0.16836,-0.54593 0,-0.71429 -0.0842,-0.0842 -0.35714,0.11905 -0.35714,0 0,-0.11904 0.27296,0.0842 0.35714,0 0.0842,-0.0842 0.0842,-0.27296 0,-0.35714 -0.21344,-0.21344 -0.71429,0.38603 -0.71429,-0.35714 0,-0.11905 0.35715,0.11905 0.35715,0 0,-0.16836 -0.20656,-0.28185 -0.35715,-0.35715 -0.10647,-0.0532 -0.35714,0.11905 -0.35714,0 0,-1.18449 0.66921,0 0.35714,0 -0.74317,0 -0.1437,-0.50084 -0.35714,-0.71428 -0.0842,-0.0842 -0.35714,0.11905 -0.35714,0 0,-0.16836 0.35714,-0.18878 0.35714,-0.35714 0,-0.11905 -0.25066,0.0532 -0.35714,0 C 205.20655,420.74106 205,420.62756 205,420.4592 c 0,-0.11904 0.27296,0.0842 0.35714,0 0.0842,-0.0842 0.11905,-0.35714 0,-0.35714 -0.16836,0 -0.20656,0.43244 -0.35714,0.35714 -1.80422,-0.9021 0,-0.6779 0,-0.71428 0,-0.33672 -0.71429,-0.37757 -0.71429,-0.71429 0,-0.16836 0.35714,-0.18878 0.35714,-0.35714 0,-0.11905 -0.27296,0.0842 -0.35714,0 -0.0842,-0.0842 0.0842,-0.27296 0,-0.35714 -0.0842,-0.0842 -0.35714,0.11904 -0.35714,0 0,-0.16836 0.35714,-0.18879 0.35714,-0.35715 0,-0.11904 -0.27296,0.0842 -0.35714,0 -0.0842,-0.0842 0.11904,-0.35714 0,-0.35714 -0.16836,0 -0.2381,0.47619 -0.35715,0.35714 -0.11904,-0.11904 0.35715,-0.18878 0.35715,-0.35714 0,-0.16836 -0.18879,-0.35714 -0.35715,-0.35714 -0.16835,0 -0.23809,0.47619 -0.35714,0.35714 -0.11905,-0.11905 0.35714,-0.18878 0.35714,-0.35714 0,-0.16836 -0.28185,-0.20656 -0.35714,-0.35715 -0.0532,-0.10647 0.0842,-0.27296 0,-0.35714 -0.0842,-0.0842 -0.35714,0.11905 -0.35714,0 0,-0.10672 1.18449,0.23511 0,-0.35714 -0.10648,-0.0532 -0.35714,0.11905 -0.35714,0 0,-0.16836 0.35714,-0.18878 0.35714,-0.35714 0,-0.11905 -0.25066,0.0532 -0.35714,0 -0.15059,-0.0753 -0.35715,-0.18879 -0.35715,-0.35715 0,-0.11904 0.35715,-0.11904 0.35715,0 0,0.14124 -0.50168,0.0681 -0.71429,-0.35714 0,-0.95238 0.11905,0.11905 -0.35714,-0.35714 -0.73894,-0.73894 1.1292,0.0289 -0.35715,-0.71429 -0.10647,-0.0532 -0.35714,0.11905 -0.35714,0 0,-0.16836 0.35714,-0.18878 0.35714,-0.35714 0,-0.11905 -0.25066,0.0532 -0.35714,0 -0.15058,-0.0753 -0.35714,-0.18878 -0.35714,-0.35714 0,-0.11905 0.35714,-0.11905 0.35714,0 0,0.11904 -0.25066,0.0532 -0.35714,0 C 200.20655,413.24106 200,413.12756 200,412.9592 c 0,-0.11904 0.35714,-0.11904 0.35714,0 0,0.11905 -0.3039,0.10648 -0.35714,0 -0.10648,-0.21296 0.16835,-0.54592 0,-0.71428 -0.11905,-0.11905 -0.2381,0.47619 -0.35715,0.35714 -0.11904,-0.11905 0.47619,-0.23809 0.35715,-0.35714 -2.02381,-0.2381 -0.35715,0.11905 -0.35715,0 0,-0.33672 -0.71428,-0.37757 -0.71428,-0.71429 0,-0.11905 0.35714,-0.11905 0.35714,0 0,0.11905 -0.25066,0.0532 -0.35714,0 -0.15059,-0.0753 -0.20656,-0.28185 -0.35715,-0.35714 -0.10647,-0.0532 -0.3039,0.10648 -0.35714,0 -0.10648,-0.21296 0,-0.47619 0,-0.71429 0,-0.11904 0.0842,0.27297 0,0.35715 -0.0842,0.0842 -0.27296,0.0842 -0.35714,0 -0.0842,-0.0842 0.0842,-0.27297 0,-0.35715 -0.21344,-0.21344 -0.71429,0.38603 -0.71429,-0.35714 0,-0.11905 0.35715,-0.11905 0.35715,0 0,0.11905 -0.2381,0 -0.35715,0 -0.11904,0 -0.27296,0.0842 -0.35714,0 -0.0842,-0.0842 0,-0.23809 0,-0.35714 0,-0.11905 0.11905,-0.35714 0,-0.35714 -0.16836,0 -0.18878,0.35714 -0.35714,0.35714 -0.16836,0 -0.20656,-0.28185 -0.35715,-0.35714 -0.10647,-0.0532 -0.25066,0.0532 -0.35714,0 -0.15058,-0.0753 -0.20656,-0.28185 -0.35714,-0.35715 -0.10648,-0.0532 -0.27296,0.0842 -0.35714,0 -0.0842,-0.0842 0.0842,-0.27296 0,-0.35714 -0.16836,-0.16836 -0.60781,0.21296 -0.71429,0 -0.10648,-0.21296 0.16836,-0.54593 0,-0.71429 -0.89709,-0.89708 0.1828,1.25423 -0.71429,0.35715 -0.16835,-0.16836 0.2381,-0.71429 0,-0.71429 -0.16835,0 -0.18878,0.35714 -0.35714,0.35714 -0.23339,0 -0.59053,-0.71428 -0.35714,-0.71428 0.11905,0 0.0842,0.27296 0,0.35714 -0.0842,0.0842 -0.2381,0 -0.35714,0 -0.95239,0 0.11904,0.11905 -0.35715,-0.35714 -0.16836,-0.16836 -0.50132,0.10648 -0.71428,0 -0.15059,-0.0753 -0.20656,-0.28185 -0.35715,-0.35714 -0.21295,-0.10648 -0.54592,0.16835 -0.71428,0 -0.0842,-0.0842 0.0842,-0.27297 0,-0.35715 -0.17857,-0.17857 -0.89286,0.17857 -1.07143,0 -0.16836,-0.16836 0.2381,-0.71428 0,-0.71428 -0.13947,0 -0.40222,0.6692 -0.71429,0.35714 -0.16835,-0.16836 0.2381,-0.71429 0,-0.71429 -0.16835,0 -0.20655,0.28186 -0.35714,0.35715 -0.10648,0.0532 -0.23809,0 -0.35714,0 -0.11905,0 -0.27296,0.0842 -0.35714,0 -0.0842,-0.0842 0.0842,-0.27297 0,-0.35715 -0.0842,-0.0842 -0.27297,0.0842 -0.35715,0 -0.0842,-0.0842 0.11905,-0.35714 0,-0.35714 -0.16836,0 -0.19742,0.3039 -0.35714,0.35714 -0.22588,0.0753 -0.47619,0 -0.71429,0 -0.11904,0 0.47619,0 0.35715,0 -0.2381,0 -0.47619,0 -0.71429,0 -0.11905,0 0.44132,0.0842 0.35714,0 -0.18823,-0.18823 -0.52605,-0.16891 -0.71428,-0.35714 -0.0842,-0.0842 0.27296,0.0842 0.35714,0 0.0842,-0.0842 0.11905,-0.35714 0,-0.35714 -0.2662,0 -0.52605,0.16891 -0.71428,0.35714 -0.0842,0.0842 0.47619,0 0.35714,0 -2.34127,0 1.26984,0 -1.07143,0 -0.11905,0 0.47619,0 0.35714,0 -0.23809,0 -0.47619,0 -0.71428,0 -0.11905,0 0.47619,0 0.35714,0 -0.2381,0 -0.47619,0 -0.71429,0 -0.11904,0 0.47619,0 0.35715,0 -0.2381,0 -0.47619,0 -0.71429,0 -0.11905,0 0.47619,0 0.35714,0 -2.34127,0 1.26985,0 -1.07142,0 -0.11905,0 0.47619,0 0.35714,0 -0.2381,0 -0.47619,0 -0.71429,0 -0.11904,0 0.47619,0 0.35715,0 -0.2381,0 -0.47619,0 -0.71429,0 -0.11905,0 0.47619,0 0.35714,0 -2.34127,0 1.26984,0 -1.07143,0 -0.11904,0 0.47619,0 0.35715,0 -0.2381,0 -0.47619,0 -0.71429,0 -0.11905,0 0.27297,-0.0842 0.35714,0 0.0842,0.0842 0.10648,0.3039 0,0.35714 -0.21295,0.10648 -0.47619,0 -0.71428,0 -0.11905,0 0.27296,-0.0842 0.35714,0 0.0842,0.0842 0.11905,0.35715 0,0.35715 -2.2146,0 -0.35714,-0.54068 -0.35714,-0.35715 0,0.11905 -0.42201,-0.0998 -0.35714,0 0.45154,0.69493 1.06392,1.27095 1.59588,1.90643"
       id="path842"
       inkscape:connector-curvature="0" />
  </g>
</svg>
